<?xml version="1.0" encoding="UTF-8" standalone="no"?>
<svg width="33px" height="23px" viewBox="0 0 33 23" version="1.1" xmlns="http://www.w3.org/2000/svg" xmlns:xlink="http://www.w3.org/1999/xlink">
    <!-- Generator: Sketch 48.2 (47327) - http://www.bohemiancoding.com/sketch -->
    <title>“/bkue</title>
    <desc>Created with Sketch.</desc>
    <defs></defs>
    <g id="Visual---123Credit---Homepage3" stroke="none" stroke-width="1" fill="none" fill-rule="evenodd" transform="translate(-1025.000000, -3274.000000)">
        <path d="M1043.54425,3287.35714 C1043.54425,3282.64283 1044.71238,3279.26192 1047.04867,3277.21429 C1049.38497,3275.16666 1052.719,3274.09524 1057.05088,3274 L1058,3278.5 C1052.84068,3279.02381 1050.45575,3281.38093 1050.84513,3285.57143 L1055.37168,3285.57143 L1055.37168,3297 L1043.54425,3297 L1043.54425,3287.35714 Z M1025,3287.35714 C1025,3282.64283 1026.16813,3279.26192 1028.50442,3277.21429 C1030.84072,3275.16666 1034.17476,3274.09524 1038.50664,3274 L1039.45575,3278.5 C1034.29643,3279.02381 1031.9115,3281.38093 1032.30088,3285.57143 L1036.82743,3285.57143 L1036.82743,3297 L1025,3297 L1025,3287.35714 Z" id="“/bkue" fill="#086DB1"></path>
    </g>
</svg>