<?xml version="1.0" encoding="UTF-8" standalone="no"?>
<svg width="124px" height="124px" viewBox="0 0 124 124" version="1.1" xmlns="http://www.w3.org/2000/svg" xmlns:xlink="http://www.w3.org/1999/xlink">
    <!-- Generator: Sketch 48.2 (47327) - http://www.bohemiancoding.com/sketch -->
    <title>expend</title>
    <desc>Created with Sketch.</desc>
    <defs></defs>
    <g id="Visual---123Credit---Homepage3" stroke="none" stroke-width="1" fill="none" fill-rule="evenodd" transform="translate(-890.000000, -1025.000000)">
        <g id="Group-11" transform="translate(279.000000, 1025.000000)">
            <g id="expend" transform="translate(611.000000, 0.000000)">
                <circle id="Oval-8" fill="#54408F" cx="62" cy="62" r="62"></circle>
                <g id="24h-delivery" transform="translate(30.000000, 30.000000)" fill-rule="nonzero">
                    <g id="color_22_" transform="translate(6.005865, 4.363636)" fill="#E4AE55">
                        <ellipse id="Oval" cx="28.5278592" cy="27.6421818" rx="28.5278592" ry="27.6363636"></ellipse>
                    </g>
                    <g id="outline_21_" fill="#EEEEEE">
                        <path d="M15.0146628,7.27854545 C15.8449736,7.27854545 16.516129,6.62836364 16.516129,5.824 C16.516129,5.01963636 15.8449736,4.36945455 15.0146628,4.36945455 C14.1843519,4.36945455 13.5131965,5.01963636 13.5131965,5.824 C13.5131965,6.62836364 14.1843519,7.27854545 15.0146628,7.27854545 Z M1.50146628,27.6421818 C0.671155425,27.6421818 0,28.2923636 0,29.0967273 C0,29.9010909 0.671155425,30.5512727 1.50146628,30.5512727 C2.33177713,30.5512727 3.00293255,29.9010909 3.00293255,29.0967273 C3.00293255,28.2923636 2.33177713,27.6421818 1.50146628,27.6421818 Z M30.0293255,2.91490909 C30.8596364,2.91490909 31.5307918,2.26472727 31.5307918,1.46036364 C31.5307918,0.656 30.8596364,0.00581818182 30.0293255,0.00581818182 C29.1990147,0.00581818182 28.5278592,0.656 28.5278592,1.46036364 C28.5278592,2.26472727 29.1990147,2.91490909 30.0293255,2.91490909 Z M34.5337243,32.0058182 L40.5395894,32.0058182 L40.5395894,36.3694545 C40.5395894,37.1738182 41.2107449,37.824 42.0410557,37.824 C42.8713666,37.824 43.542522,37.1738182 43.542522,36.3694545 L43.542522,32.0058182 L45.0439883,32.0058182 C45.8742991,32.0058182 46.5454545,31.3556364 46.5454545,30.5512727 C46.5454545,29.7469091 45.8742991,29.0967273 45.0439883,29.0967273 L43.542522,29.0967273 L43.542522,27.6421818 C43.542522,26.8378182 42.8713666,26.1876364 42.0410557,26.1876364 C41.2107449,26.1876364 40.5395894,26.8378182 40.5395894,27.6421818 L40.5395894,29.0967273 L36.8114487,29.0967273 L40.4179707,20.9425455 L40.4164692,20.9425455 C40.4960469,20.7650909 40.5395894,20.5730909 40.5395894,20.3694545 C40.5395894,19.5650909 39.868434,18.9149091 39.0381232,18.9149091 C38.4195191,18.9149091 37.888,19.2785455 37.6582757,19.7963636 L37.6552727,19.8007273 C37.6552727,19.8021818 37.6552727,19.8036364 37.6537713,19.8050909 L33.1538768,29.9781818 C33.0758006,30.1541818 33.0322581,30.3476364 33.0322581,30.5512727 C33.0322581,31.3556364 33.7034135,32.0058182 34.5337243,32.0058182 Z M60.058651,29.0967273 C60.058651,18.8407273 54.4236481,10.0305455 46.144563,4.85236364 C45.8712962,4.56 45.4839179,4.36945455 45.0439883,4.36945455 C44.2136774,4.36945455 43.542522,5.01963636 43.542522,5.824 C43.542522,6.43636364 43.9359062,6.95563636 44.4899472,7.17090909 C51.9312141,11.8327273 57.0557185,19.8734545 57.0557185,29.0967273 C57.0557185,43.5563636 44.9554018,55.2785455 30.0293255,55.2785455 C29.6929971,55.2785455 29.364176,55.2567273 29.0308504,55.2421818 L29.0308504,55.2305455 L32.6088446,51.7992727 C33.1733959,51.2567273 33.1733959,50.3767273 32.6088446,49.8341818 C32.0427918,49.2916364 31.1253959,49.2916364 30.5593431,49.8341818 L24.4138416,55.7294545 C23.8477889,56.272 23.8477889,57.152 24.4138416,57.6945455 L30.5593431,63.5898182 C31.1253959,64.1323636 32.0427918,64.1323636 32.6088446,63.5898182 C33.1733959,63.0472727 33.1733959,62.1672727 32.6088446,61.6247273 L28.9858065,58.1498182 C29.3326452,58.1643636 29.6779824,58.1876364 30.0293255,58.1876364 C46.614522,58.1876364 60.058651,45.1636364 60.058651,29.0967273 Z M6.0058651,42.1876364 C5.17555425,42.1876364 4.50439883,42.8378182 4.50439883,43.6421818 C4.50439883,44.4465455 5.17555425,45.0967273 6.0058651,45.0967273 C6.83617595,45.0967273 7.50733138,44.4465455 7.50733138,43.6421818 C7.50733138,42.8378182 6.83617595,42.1876364 6.0058651,42.1876364 Z M28.5278592,36.3694545 C28.5278592,35.5650909 27.8567038,34.9149091 27.026393,34.9149091 L21.2232258,34.9149091 L26.6795543,28.5745455 C26.6795543,28.5745455 28.5278592,26.6996364 28.5278592,24.7330909 C28.5278592,21.52 25.8387331,18.9149091 22.5219941,18.9149091 C19.2052551,18.9149091 16.516129,21.52 16.516129,24.7330909 L19.5190616,24.7330909 C19.5190616,23.1272727 20.8643754,21.824 22.5219941,21.824 C24.1796129,21.824 25.4468504,23.1272727 25.5249267,24.7330909 C25.5714721,25.7105455 24.3702991,26.7098182 24.3702991,26.7098182 L16.8629677,35.4370909 C16.8629677,35.4370909 16.516129,35.6698182 16.516129,36.3694545 C16.516129,37.1738182 17.1872845,37.824 18.0175953,37.824 L27.026393,37.824 C27.8567038,37.824 28.5278592,37.1738182 28.5278592,36.3694545 Z M15.0146628,50.9149091 C14.1843519,50.9149091 13.5131965,51.5650909 13.5131965,52.3694545 C13.5131965,53.1738182 14.1843519,53.824 15.0146628,53.824 C15.8449736,53.824 16.516129,53.1738182 16.516129,52.3694545 C16.516129,51.5650909 15.8449736,50.9149091 15.0146628,50.9149091 Z M6.0058651,13.0967273 C5.17555425,13.0967273 4.50439883,13.7469091 4.50439883,14.5512727 C4.50439883,15.3556364 5.17555425,16.0058182 6.0058651,16.0058182 C6.83617595,16.0058182 7.50733138,15.3556364 7.50733138,14.5512727 C7.50733138,13.7469091 6.83617595,13.0967273 6.0058651,13.0967273 Z" id="Shape"></path>
                    </g>
                </g>
            </g>
        </g>
    </g>
</svg>