<?xml version="1.0" encoding="UTF-8" standalone="no"?>
<svg width="18px" height="16px" viewBox="0 0 18 16" version="1.1" xmlns="http://www.w3.org/2000/svg" xmlns:xlink="http://www.w3.org/1999/xlink">
    <!-- Generator: Sketch 48.2 (47327) - http://www.bohemiancoding.com/sketch -->
    <title>ic-arrow</title>
    <desc>Created with Sketch.</desc>
    <defs></defs>
    <g id="Mobile-Responsive---Homepage--" stroke="none" stroke-width="1" fill="none" fill-rule="evenodd" transform="translate(-179.000000, -1276.000000)">
        <g id="Section" transform="translate(0.000000, 1276.000000)" fill="#192C34" fill-rule="nonzero">
            <g id="ic-arrow" transform="translate(179.000000, 0.000000)">
                <path d="M17.5695238,6.75931805 C17.3257143,6.51851852 16.9295238,6.51851852 16.6857143,6.75931805 L8.91428571,14.449853 L1.12761905,6.75931805 C0.883809524,6.51851852 0.487619048,6.51851852 0.243809524,6.75931805 C2.04398998e-13,7.00011758 2.04398998e-13,7.39141681 0.243809524,7.63221634 L8.45714286,15.7441505 C8.57904762,15.8645503 8.73142857,15.9247501 8.89904762,15.9247501 C9.05142857,15.9247501 9.21904762,15.8645503 9.34095238,15.7441505 L17.5542857,7.63221634 C17.8133333,7.39141681 17.8133333,7.00011758 17.5695238,6.75931805 Z" id="Shape"></path>
                <path d="M17.5695238,0.24079953 C17.3257143,-6.76403378e-14 16.9295238,-6.76403378e-14 16.6857143,0.24079953 L8.91428571,7.93133451 L1.12761905,0.24079953 C0.883809524,-6.76403378e-14 0.487619048,-6.76403378e-14 0.243809524,0.24079953 C2.04398998e-13,0.481599059 2.04398998e-13,0.872898295 0.243809524,1.11369782 L8.45714286,9.22563198 C8.57904762,9.34603175 8.73142857,9.40623163 8.89904762,9.40623163 C9.05142857,9.40623163 9.21904762,9.34603175 9.34095238,9.22563198 L17.5542857,1.11369782 C17.8133333,0.872898295 17.8133333,0.481599059 17.5695238,0.24079953 Z" id="Shape"></path>
            </g>
        </g>
    </g>
</svg>