<?xml version="1.0" encoding="UTF-8" standalone="no"?>
<svg width="33px" height="23px" viewBox="0 0 33 23" version="1.1" xmlns="http://www.w3.org/2000/svg" xmlns:xlink="http://www.w3.org/1999/xlink">
    <!-- Generator: Sketch 48.2 (47327) - http://www.bohemiancoding.com/sketch -->
    <title>“</title>
    <desc>Created with Sketch.</desc>
    <defs></defs>
    <g id="Visual---123Credit---Homepage3" stroke="none" stroke-width="1" fill="none" fill-rule="evenodd" transform="translate(-784.000000, -3251.000000)" fill-opacity="0.2830899">
        <path d="M802.544248,3264.35714 C802.544248,3259.64283 803.712378,3256.26192 806.048673,3254.21429 C808.384967,3252.16666 811.719005,3251.09524 816.050885,3251 L817,3255.5 C811.840682,3256.02381 809.45575,3258.38093 809.845133,3262.57143 L814.371681,3262.57143 L814.371681,3274 L802.544248,3274 L802.544248,3264.35714 Z M784,3264.35714 C784,3259.64283 785.16813,3256.26192 787.504425,3254.21429 C789.84072,3252.16666 793.174757,3251.09524 797.506637,3251 L798.455752,3255.5 C793.296434,3256.02381 790.911502,3258.38093 791.300885,3262.57143 L795.827434,3262.57143 L795.827434,3274 L784,3274 L784,3264.35714 Z" id="“" fill="#A3AAAD"></path>
    </g>
</svg>