<?xml version="1.0" encoding="UTF-8" standalone="no"?>
<svg width="14px" height="14px" viewBox="0 0 14 14" version="1.1" xmlns="http://www.w3.org/2000/svg" xmlns:xlink="http://www.w3.org/1999/xlink">
    <!-- Generator: Sketch 48.2 (47327) - http://www.bohemiancoding.com/sketch -->
    <title>ic-phone/white</title>
    <desc>Created with Sketch.</desc>
    <defs></defs>
    <g id="Visual---123Credit---Homepage3" stroke="none" stroke-width="1" fill="none" fill-rule="evenodd" transform="translate(-1018.000000, -5529.000000)">
        <g id="Footer" transform="translate(0.000000, 5428.000000)" fill="#FFFFFF">
            <g id="Group-4" transform="translate(302.000000, 32.000000)">
                <g id="Group-" transform="translate(716.000000, 64.000000)">
                    <g id="ic-phone/white" transform="translate(0.000000, 5.000000)">
                        <g id="ic-phone">
                            <path d="M0.194444444,0.777777778 C0.194444444,7.97282077 6.02717923,13.8055556 13.2222222,13.8055556 C13.5443883,13.8055556 13.8055556,13.5443883 13.8055556,13.2222222 C13.8055556,12.9000561 13.5443883,12.6388889 13.2222222,12.6388889 C6.67151144,12.6388889 1.36111111,7.32848856 1.36111111,0.777777778 C1.36111111,0.455611674 1.09994388,0.194444444 0.777777778,0.194444444 C0.455611674,0.194444444 0.194444444,0.455611674 0.194444444,0.777777778 Z" id="Oval-2" fill-rule="nonzero"></path>
                            <path d="M2.05049591,4.7726663 L4.86111111,4.19159639 L4.86111111,1.3611111 L1.37519495,1.36111111 C1.43207772,2.53652871 1.66068815,3.68278117 2.05049591,4.7726663 Z M0.777777777,0.194444444 L5.44444444,0.194444436 C5.76661055,0.194444435 6.02777778,0.455611664 6.02777778,0.777777769 L6.02777778,4.66666666 C6.02777778,4.9433118 5.83346192,5.18191002 5.56254593,5.23791951 L1.80046134,6.01569729 C1.52457794,6.07273375 1.24735075,5.92445451 1.14164611,5.6633198 C0.518732237,4.12446184 0.194444444,2.47316824 0.194444444,0.777777778 C0.194444444,0.455611674 0.455611673,0.194444445 0.777777777,0.194444444 Z" id="Combined-Shape" fill-rule="nonzero"></path>
                            <path d="M13.8055556,13.2222222 C13.8055556,13.5443883 13.5443883,13.8055556 13.2222222,13.8055556 C11.5268318,13.8055556 9.87553816,13.4812678 8.3366802,12.8583539 C8.0755455,12.7526493 7.92726625,12.4754221 7.98430271,12.1995387 L8.76208048,8.43745407 C8.81808997,8.16653808 9.05668819,7.97222222 9.33333333,7.97222222 L13.2222222,7.97222222 C13.5443883,7.97222222 13.8055556,8.23338945 13.8055556,8.55555556 L13.8055556,13.2222222 Z M12.6388889,12.6248051 L12.6388889,9.13888889 L9.8084036,9.13888889 L9.22733372,11.9495041 C10.3172188,12.3393118 11.4634713,12.5679223 12.6388889,12.6248051 Z" id="Combined-Shape" fill-rule="nonzero"></path>
                        </g>
                    </g>
                </g>
            </g>
        </g>
    </g>
</svg>