<?xml version="1.0" encoding="UTF-8" standalone="no"?>
<svg width="184px" height="38px" viewBox="0 0 184 38" version="1.1" xmlns="http://www.w3.org/2000/svg" xmlns:xlink="http://www.w3.org/1999/xlink">
    <!-- Generator: Sketch 49 (51002) - http://www.bohemiancoding.com/sketch -->
    <title>Logo</title>
    <desc>Created with Sketch.</desc>
    <defs></defs>
    <g id="Homepage" stroke="none" stroke-width="1" fill="none" fill-rule="evenodd">
        <g id="Visual---123Credit---Homepage3" transform="translate(-200.000000, -19.000000)">
            <g id="Logo" transform="translate(200.000000, 18.000000)">
                <g id="Group" transform="translate(0.000000, 1.000000)">
                    <path d="M30,28.1818182 L30,9.18181818 C30,8.62953343 29.5522847,8.18181818 29,8.18181818 L10,8.18181818 L10,1 C10,0.44771525 10.4477153,1.01453063e-16 11,0 L37.1818182,-1.11022302e-16 C37.7341029,-2.17458495e-15 38.1818182,0.44771525 38.1818182,1 L38.1818182,27.1818182 C38.1818182,27.7341029 37.7341029,28.1818182 37.1818182,28.1818182 L30,28.1818182 Z" id="Combined-Shape" fill="#398AAA"></path>
                    <path d="M20,32.7272727 L20,18.2727273 C20,17.7204425 19.5522847,17.2727273 19,17.2727273 L5.45454545,17.2727273 L5.45454545,10.0909091 C5.45454545,9.53862434 5.9022607,9.09090909 6.45454545,9.09090909 L28.0909091,9.09090909 C28.6431938,9.09090909 29.0909091,9.53862434 29.0909091,10.0909091 L29.0909091,31.7272727 C29.0909091,32.2795575 28.6431938,32.7272727 28.0909091,32.7272727 L20,32.7272727 Z" id="Combined-Shape" fill="#5DB397"></path>
                    <rect id="Rectangle-Copy-3" fill="#398AAA" x="0" y="18.1818182" width="19.0909091" height="19.0909091" rx="1"></rect>
                </g>
                <text id="123credit" font-family="Gotham-Bold, Gotham" font-size="24" font-weight="bold" fill="#FFFFFF">
                    <tspan x="51" y="19">123CREDIT</tspan>
                </text>
                <text id="Trust-your-choice" font-family="Gotham-Light, Gotham" font-size="10" font-weight="300" letter-spacing="0.75" fill="#FFFFFF">
                    <tspan x="52" y="30">TRUST YOUR CHOICE</tspan>
                </text>
            </g>
        </g>
    </g>
</svg>