<?xml version="1.0" encoding="UTF-8" standalone="no"?>
<svg width="30px" height="20px" viewBox="0 0 30 20" version="1.1" xmlns="http://www.w3.org/2000/svg" xmlns:xlink="http://www.w3.org/1999/xlink">
    <!-- Generator: Sketch 48.2 (47327) - http://www.bohemiancoding.com/sketch -->
    <title>mail</title>
    <desc>Created with Sketch.</desc>
    <defs></defs>
    <g id="Visual---123Credit---Homepage3" stroke="none" stroke-width="1" fill="none" fill-rule="evenodd" transform="translate(-1256.000000, -26.000000)">
        <g id="mail" transform="translate(1256.000000, 26.000000)" fill="#FFFFFF" fill-rule="nonzero">
            <path d="M27.4979158,0 L2.5010838,0 C1.12148598,0 0,1.122 0,2.5 L0,17.5 C0,18.878 1.12148598,20 2.5010838,20 L27.4989162,20 C28.878514,20 30,18.878 30,17.5 L30,2.5 C29.9989996,1.122 28.878514,0 27.4979158,0 Z M28.998566,17.5 C28.998566,18.327 28.3252743,19 27.4979158,19 L2.5010838,19 C1.67372528,19 1.00043352,18.327 1.00043352,17.5 L1.00043352,2.5 C1.00043352,1.673 1.67372528,1 2.5010838,1 L27.4989162,1 C28.3262747,1 28.9995665,1.673 28.9995665,2.5 L28.998566,17.5 Z" id="Shape"></path>
            <path d="M26.9192967,3.22772189 C26.7692967,2.99565387 26.4572967,2.93063482 26.2282967,3.0806788 L16.2182968,9.5895866 C15.4092968,10.143749 14.0912968,10.143749 13.2822968,9.5895866 L3.78229683,3.08768085 C3.55729683,2.9326354 3.24429683,2.98965211 3.08629684,3.21771896 C2.93229684,3.44578581 2.98929684,3.75687699 3.21829684,3.91292273 L12.7182968,10.4148285 C13.2892968,10.8049428 14.0222968,11 14.7532968,11 C15.4812968,11 16.2092968,10.8069434 16.7732968,10.4218305 L26.7732967,3.91992478 C27.0042967,3.76888051 27.0692967,3.45878962 26.9192967,3.22772189 Z" id="Shape"></path>
            <path d="M10.1747732,10.120698 L3.17527325,16.1200893 C2.96528825,16.300071 2.94029004,16.616039 3.12027718,16.8250178 C3.22126997,16.941006 3.36026004,17 3.50025004,17 C3.61524182,17 3.73123353,16.9600041 3.82522682,16.8790123 L10.8247267,10.879621 C11.0347117,10.6996393 11.05971,10.3836713 10.8797228,10.1746925 C10.6987357,9.96471384 10.3837583,9.94071627 10.1747732,10.120698 Z" id="Shape"></path>
            <path d="M19.8250054,10.120698 C19.616973,9.94071627 19.3009238,9.96471384 19.1198956,10.1746925 C18.9408677,10.3846712 18.9648714,10.6996393 19.1749041,10.879621 L26.1759948,16.8790123 C26.2690092,16.9600041 26.3860275,17 26.5000452,17 C26.6410672,17 26.7800889,16.941006 26.8801044,16.8250178 C27.0591323,16.6150391 27.0351286,16.300071 26.8250959,16.1200893 L19.8250054,10.120698 Z" id="Shape"></path>
        </g>
    </g>
</svg>