<?xml version="1.0" encoding="UTF-8" standalone="no"?>
<svg width="20px" height="20px" viewBox="0 0 20 20" version="1.1" xmlns="http://www.w3.org/2000/svg" xmlns:xlink="http://www.w3.org/1999/xlink">
    <!-- Generator: Sketch 48.2 (47327) - http://www.bohemiancoding.com/sketch -->
    <title>phone-in-talk</title>
    <desc>Created with Sketch.</desc>
    <defs></defs>
    <g id="Mobile-Responsive---Homepage_Menu" stroke="none" stroke-width="1" fill="none" fill-rule="evenodd" transform="translate(-81.000000, -376.000000)">
        <g id="Side-bar" fill="#FFFFFF" fill-rule="nonzero">
            <g id="Group-8" transform="translate(28.000000, 376.000000)">
                <g id="phone-in-talk" transform="translate(53.000000, 0.000000)">
                    <path d="M12.0833333,0.833333333 C16.9766667,0.833333333 19.1666667,4.39083333 19.1666667,7.91666667 C19.1666667,8.14666667 19.3533333,8.33333333 19.5833333,8.33333333 C19.8133333,8.33333333 20,8.14666667 20,7.91666667 C20,3.97583333 17.5525,0 12.0833333,0 C11.8533333,0 11.6666667,0.186666667 11.6666667,0.416666667 C11.6666667,0.646666667 11.8533333,0.833333333 12.0833333,0.833333333 Z" id="Shape"></path>
                    <path d="M12.0833333,5 C14.4941667,5 15,6.58583333 15,7.91666667 C15,8.14666667 15.1866667,8.33333333 15.4166667,8.33333333 C15.6466667,8.33333333 15.8333333,8.14666667 15.8333333,7.91666667 C15.8333333,5.53333333 14.4658333,4.16666667 12.0833333,4.16666667 C11.8533333,4.16666667 11.6666667,4.35333333 11.6666667,4.58333333 C11.6666667,4.81333333 11.8533333,5 12.0833333,5 Z" id="Shape"></path>
                    <path d="M18.5416667,13.3333333 C17.2716667,13.3333333 15.585,12.925 14.5316667,12.5775 C14.0175,12.4 13.4291667,12.5366667 13.0916667,12.8816667 L10.7991667,14.5125 C8.15416667,13.1141667 6.4725,11.44 5.09083333,8.82416667 L7.0675,6.77416667 C7.45666667,6.385 7.59666667,5.81666667 7.42916667,5.28583333 C6.92333333,3.7525 6.66666667,2.465 6.66666667,1.45833333 C6.66666667,0.654166667 6.0125,0 5.20833333,0 L1.45833333,0 C0.654166667,0 0,0.654166667 0,1.45833333 C0,11.5091667 8.49083333,20 18.5416667,20 C19.3458333,20 20,19.3458333 20,18.5416667 L20,14.7916667 C20,13.9875 19.3458333,13.3333333 18.5416667,13.3333333 Z M19.1666667,18.5416667 C19.1666667,18.8866667 18.8858333,19.1666667 18.5416667,19.1666667 C8.9425,19.1666667 0.833333333,11.0575 0.833333333,1.45833333 C0.833333333,1.11333333 1.11416667,0.833333333 1.45833333,0.833333333 L5.2075,0.833333333 C5.55166667,0.833333333 5.8325,1.11333333 5.8325,1.45833333 C5.8325,2.55333333 6.10333333,3.92916667 6.63583333,5.54166667 C6.70833333,5.77333333 6.65,6.01333333 6.4725,6.19 L4.2825,8.46083333 C4.15916667,8.58916667 4.13083333,8.78083333 4.21166667,8.93916667 C5.74416667,11.9525 7.6075,13.8158333 10.6433333,15.3708333 C10.7808333,15.4416667 10.9491667,15.43 11.075,15.3391667 L13.6275,13.5158333 C13.7941667,13.3491667 14.0441667,13.2916667 14.265,13.3666667 C15.435,13.7533333 17.1733333,14.1666667 18.5416667,14.1666667 C18.8858333,14.1666667 19.1666667,14.4466667 19.1666667,14.7916667 C19.1666667,14.7916667 19.1666667,18.5416667 19.1666667,18.5416667 Z" id="Shape"></path>
                </g>
            </g>
        </g>
    </g>
</svg>