<?xml version="1.0" encoding="UTF-8" standalone="no"?>
<svg width="24px" height="24px" viewBox="0 0 24 24" version="1.1" xmlns="http://www.w3.org/2000/svg" xmlns:xlink="http://www.w3.org/1999/xlink">
    <!-- Generator: Sketch 48.2 (47327) - http://www.bohemiancoding.com/sketch -->
    <title>share</title>
    <desc>Created with Sketch.</desc>
    <defs></defs>
    <g id="Visual---123Credit---Homepage3" stroke="none" stroke-width="1" fill="none" fill-rule="evenodd" transform="translate(-1376.000000, -24.000000)">
        <g id="share" transform="translate(1376.000000, 24.000000)" fill="#FFFFFF" fill-rule="nonzero">
            <path d="M23.3490633,5.38722744 C23.9101444,4.03265778 23.6000048,2.47348065 22.5632621,1.43673792 C21.5265193,0.399995183 19.9673422,0.0898555693 18.6127726,0.650936695 C17.2582029,1.21201782 16.375,2.53382436 16.375,4 C16.375,4.04210605 16.3791849,4.08169241 16.3928428,4.17744936 C16.4069554,4.28001047 16.4105008,4.31011976 16.4138429,4.35256355 L16.4323092,4.58708586 L7.06318564,10.0619037 L6.8620438,9.79869959 C5.91319493,8.55708377 4.27547501,8.06326102 2.7984206,8.57339265 C1.32136619,9.08352428 0.337460585,10.4827802 0.357086405,12.0453227 C0.376712226,13.6078651 1.39545172,14.9819674 2.88485284,15.4548398 C4.37425396,15.9277122 5.99905419,15.3929116 6.9164188,14.1278558 L7.11691492,13.8513695 L16.4300294,19.3589891 L16.4141114,19.5898008 C16.4109293,19.6359407 16.4063194,19.6806681 16.3992149,19.7391691 C16.3794771,19.8976879 16.375,19.9460075 16.3749956,20.0018104 C16.3664117,21.7798415 17.6534405,23.2995134 19.4086198,23.5837918 C21.1637991,23.8680702 22.8647144,22.8323421 23.4178058,21.1425023 C23.9708972,19.4526626 23.2115416,17.6116778 21.6279474,16.8031621 C20.0443531,15.9946464 18.1078636,16.4592477 17.0634954,17.8982625 L16.8613469,18.176799 L7.56768359,12.579479 L7.58619427,12.3480955 C7.59010844,12.2991684 7.59537339,12.2574026 7.60532831,12.1888237 C7.62090621,12.0818743 7.625,12.0440326 7.625,12.004 C7.625,11.9651318 7.62170374,11.9295036 7.61188962,11.8547127 C7.6034229,11.7904412 7.6034229,11.7904412 7.5966892,11.7275534 L7.574242,11.4918579 L16.9077908,5.90439854 L17.1103945,6.17552695 C17.7914865,7.08697841 18.8623285,7.62410135 20.0001408,7.625 C21.4662603,7.62494346 22.7880001,6.74175374 23.3490633,5.38722744 Z M20,22.375 C18.6883237,22.375 17.625,21.3116763 17.625,20 C17.625,18.6883237 18.6883237,17.625 20,17.625 C21.3116763,17.625 22.375,18.6883237 22.375,20 C22.375,21.3116763 21.3116763,22.375 20,22.375 Z M4,9.625 C5.31167628,9.625 6.375,10.6883237 6.375,12 C6.375,13.3116763 5.31167628,14.375 4,14.375 C2.68832372,14.375 1.625,13.3116763 1.625,12 C1.625,10.6883237 2.68832372,9.625 4,9.625 Z M20,1.625 C21.3116763,1.625 22.375,2.68832372 22.375,4 C22.375,5.31167628 21.3116763,6.375 20,6.375 C18.6883237,6.375 17.625,5.31167628 17.625,4 C17.625,2.68832372 18.6883237,1.625 20,1.625 Z" id="share1"></path>
        </g>
    </g>
</svg>