<?xml version="1.0" encoding="UTF-8" standalone="no"?>
<svg width="124px" height="124px" viewBox="0 0 124 124" version="1.1" xmlns="http://www.w3.org/2000/svg" xmlns:xlink="http://www.w3.org/1999/xlink">
    <!-- Generator: Sketch 48.2 (47327) - http://www.bohemiancoding.com/sketch -->
    <title>Shopping</title>
    <desc>Created with Sketch.</desc>
    <defs></defs>
    <g id="Visual---123Credit---Homepage3" stroke="none" stroke-width="1" fill="none" fill-rule="evenodd" transform="translate(-279.000000, -1025.000000)">
        <g id="Group-11" transform="translate(279.000000, 1025.000000)">
            <g id="Shopping">
                <circle id="Oval-5" fill="#AB3030" cx="62" cy="62" r="62"></circle>
                <g id="ic---online-store" transform="translate(29.000000, 29.000000)">
                    <g id="Group-">
                        <g id="online-store" fill-rule="nonzero">
                            <g id="Group" fill="#EEEEEE">
                                <rect id="Rectangle-path" x="18.4313573" y="4.117125" width="8.16093724" height="2.0585625"></rect>
                                <rect id="Rectangle-path" x="12.3104937" y="4.117125" width="2.04028787" height="2.0585625"></rect>
                                <path d="M19.4515013,53.5215443 C17.4827649,53.5215443 15.8809975,55.1374424 15.8809975,57.1240287 C15.8809975,59.1103989 17.4825506,60.7265131 19.4515013,60.7265131 C21.4204519,60.7265131 23.022005,59.110615 23.022005,57.1240287 C23.0217908,55.1374424 21.4202377,53.5215443 19.4515013,53.5215443 Z M19.4515013,58.6679506 C18.6078795,58.6679506 17.9212854,57.9752067 17.9212854,57.1240287 C17.9212854,56.2728507 18.6078795,55.5801068 19.4515013,55.5801068 C20.295123,55.5801068 20.9817172,56.2728507 20.9817172,57.1240287 C20.9815029,57.9752067 20.295123,58.6679506 19.4515013,58.6679506 Z" id="Shape"></path>
                                <path d="M49.9581322,38.0825417 L51.1822192,25.7313828 L38.8335933,25.7313828 L38.8335933,5.14640625 C38.8335933,2.30864197 36.545446,0 33.7328736,0 L5.16970042,0 C2.35712803,0 0.0689807531,2.30864197 0.0689807531,5.14640625 L0.0689807531,58.6679506 C0.0689807531,61.5057149 2.35712803,63.8143568 5.16970042,63.8143568 L33.7330879,63.8143568 C36.5456603,63.8143568 38.8338075,61.5057149 38.8338075,58.6679506 L38.8338075,42.1998829 L43.1020452,42.1998829 C43.5242845,43.3949471 44.6466142,44.2584454 45.9748151,44.2584454 C47.6620586,44.2584454 49.0352469,42.8729576 49.0352469,41.1706016 C49.0352469,39.8305042 48.1794142,38.6983381 46.994959,38.2721006 L46.994959,38.0827578 L49.9581322,38.0827578 L49.9581322,38.0825417 Z M43.1020452,40.1411042 L34.564713,40.1411042 C34.2566561,39.2693925 33.5762745,38.5827006 32.712087,38.2718845 L32.712087,38.0825417 L44.9536,38.0825417 L44.9536,38.2718845 C44.0904837,38.5829168 43.4101021,39.2693925 43.1020452,40.1411042 Z M32.7129439,41.1703855 C32.7129439,41.7375493 32.256,42.1996667 31.6928,42.1996667 C31.1296,42.1996667 30.6726561,41.7375493 30.6726561,41.1703855 C30.6726561,40.6032217 31.1296,40.1411042 31.6928,40.1411042 C32.256,40.1411042 32.7129439,40.6032217 32.7129439,41.1703855 Z M5.16970042,2.0585625 L33.7330879,2.0585625 C35.4203314,2.0585625 36.7935197,3.44405028 36.7935197,5.14640625 L36.7935197,8.23425001 L2.10926862,8.23425001 L2.10926862,5.14640625 C2.10926862,3.44383414 3.4824569,2.0585625 5.16970042,2.0585625 Z M33.7330879,61.7555782 L5.16970042,61.7555782 C3.4824569,61.7555782 2.10926862,60.3700904 2.10926862,58.6677344 L2.10926862,52.4922631 L36.7935197,52.4922631 L36.7935197,58.6677344 C36.7935197,60.3703065 35.4203314,61.7555782 33.7330879,61.7555782 Z M36.7935197,50.4337006 L2.10926862,50.4337006 L2.10926862,10.2925964 L36.7935197,10.2925964 L36.7935197,25.731599 L29.6527264,25.731599 L29.6527264,27.7901615 L48.9279197,27.7901615 L48.1117188,36.0241953 L29.5334025,36.0241953 L27.4931146,19.5561276 L23.532077,19.5561276 L23.532077,21.614474 L25.6916887,21.614474 L27.7319766,38.0825417 L30.6730845,38.0825417 L30.6730845,38.2718845 C29.4886293,38.6979058 28.6327967,39.8302881 28.6327967,41.1703855 C28.6327967,42.8727414 30.0059849,44.2582292 31.6932285,44.2582292 C33.0214293,44.2582292 34.1435448,43.394731 34.5659983,42.1996667 L36.7939481,42.1996667 L36.7939481,50.4337006 L36.7935197,50.4337006 Z M45.9746008,42.1996667 C45.4114008,42.1996667 44.9544569,41.7375493 44.9544569,41.1703855 C44.9544569,40.6032217 45.4114008,40.1411042 45.9746008,40.1411042 C46.5378008,40.1411042 46.9947448,40.6032217 46.9947448,41.1703855 C46.9947448,41.7375493 46.5378008,42.1996667 45.9746008,42.1996667 Z" id="Shape"></path>
                                <rect id="Rectangle-path" x="30.6728703" y="30.8777891" width="16.3218745" height="2.0585625"></rect>
                                <rect id="Rectangle-path" x="9.14285714" y="19.7818182" width="14.2818008" height="2.0585625"></rect>
                                <rect id="Rectangle-path" x="4.57142857" y="19.7818182" width="3.0604318" height="2.0585625"></rect>
                                <rect id="Rectangle-path" x="6.85714286" y="26.7636364" width="17.3420184" height="2.0585625"></rect>
                                <rect id="Rectangle-path" x="15.3709255" y="33.9656328" width="10.2012251" height="2.0585625"></rect>
                                <rect id="Rectangle-path" x="11.2903498" y="33.9656328" width="2.04028787" height="2.0585625"></rect>
                            </g>
                            <rect id="Rectangle-path" fill="#E4AE55" x="5.71428571" y="23.2727273" width="17.3420184" height="2.0585625"></rect>
                            <rect id="Rectangle-path" fill="#E4AE55" x="9.14285714" y="30.2545455" width="15.3019448" height="2.0585625"></rect>
                            <rect id="Rectangle-path" fill="#E4AE55" x="13.7142857" y="37.2363636" width="12.241513" height="2.0585625"></rect>
                        </g>
                        <g id="credit-card-" transform="translate(51.281406, 12.185145) rotate(-45.000000) translate(-51.281406, -12.185145) translate(41.567120, 5.203326)" fill="#EEEEEE" fill-rule="nonzero">
                            <path d="M17.3992408,0 L1.6838079,0 C0.785781319,0 0,0.784681661 0,1.6814515 L0,11.7700961 C0,12.6668659 0.785781319,13.4515476 1.6838079,13.4515476 L17.3992408,13.4515476 C18.2972673,13.4515476 19.0830487,12.6668659 19.0830487,11.7700961 L19.0830487,1.6814515 C19.0829841,0.784681661 18.2972028,9.15441843e-16 17.3992408,0 Z M1.6838079,1.12094619 L17.3992408,1.12094619 C17.7359765,1.12094619 17.9605316,1.34512255 17.9605316,1.6814515 L17.9605316,2.57822134 L1.1225171,2.57822134 L1.1225171,1.6814515 C1.1225171,1.34518697 1.34707212,1.12094619 1.6838079,1.12094619 Z M17.960467,3.69916753 L17.960467,4.59593737 L1.1225171,4.59593737 L1.1225171,3.69916753 L17.960467,3.69916753 Z M17.3992408,12.330537 L1.6838079,12.330537 C1.34707212,12.330537 1.1225171,12.1063606 1.1225171,11.7700317 L1.1225171,5.71688357 L17.960467,5.71688357 L17.960467,11.7700317 C17.960467,12.1063606 17.7359765,12.330537 17.3992408,12.330537 Z" id="Shape" stroke="#EEEEEE" stroke-width="0.5"></path>
                            <path d="M3.54751129,8.81823675 L6.72797644,8.81823675 C7.09492886,8.81823675 7.3396341,8.54923672 7.3396341,8.14565937 C7.3396341,7.74215932 7.09499915,7.47308199 6.72797644,7.47308199 L3.54751129,7.47308199 C3.18055888,7.47308199 2.93585364,7.74208202 2.93585364,8.14565937 C2.93592394,8.54923672 3.18055888,8.81823675 3.54751129,8.81823675 Z" id="Shape"></path>
                            <path d="M9.75864975,8.96769839 L3.45275103,8.96769839 C3.14264824,8.96769839 2.93585364,9.23669842 2.93585364,9.64027577 C2.93585364,10.0438531 3.14258883,10.3128531 3.45275103,10.3128531 L9.75859034,10.3128531 C9.96532554,10.3128531 10.2754877,10.0438531 10.2754877,9.64027577 C10.2754877,9.23669842 10.0687525,8.96769839 9.75864975,8.96769839 Z" id="Shape"></path>
                        </g>
                    </g>
                </g>
            </g>
        </g>
    </g>
</svg>