<?xml version="1.0" encoding="UTF-8" standalone="no"?>
<svg width="48px" height="69px" viewBox="0 0 48 69" version="1.1" xmlns="http://www.w3.org/2000/svg" xmlns:xlink="http://www.w3.org/1999/xlink">
    <!-- Generator: Sketch 48.2 (47327) - http://www.bohemiancoding.com/sketch -->
    <title>tag</title>
    <desc>Created with Sketch.</desc>
    <defs></defs>
    <g id="Visual---123Credit---Homepage3" stroke="none" stroke-width="1" fill="none" fill-rule="evenodd" transform="translate(-200.000000, -214.000000)">
        <g id="Group-12" transform="translate(193.000000, 204.000000)">
            <g id="tag" transform="translate(31.545481, 42.541675) rotate(-5.000000) translate(-31.545481, -42.541675) translate(4.045481, 3.041675)">
                <g>
                    <g id="tag-" transform="translate(27.520476, 39.450174) rotate(15.000000) translate(-27.520476, -39.450174) translate(8.520476, 4.450174)" fill-rule="nonzero">
                        <path d="M30.13465,20.2152239 L27.1583964,17.2862687 L25.345,15.5014925 L19.4904107,9.73985075 C18.4801786,10.8186567 17.6257429,11.9286567 16.9781107,13.0204478 C15.9022036,14.8332836 15.5222929,16.451791 15.9863786,17.2438806 C16.3867714,17.9276119 17.52875,18.2264179 19.1658679,17.989403 L19.1657357,17.989403 C19.1698321,18.0691045 19.1867464,18.1446269 19.1867464,18.2255224 C19.1867464,19.1058209 18.944,19.920597 18.5331679,20.5947761 C18.5256357,20.599403 18.5187643,20.6035821 18.5112321,20.608209 C16.4914286,20.6946269 14.9154929,20.0625373 14.0931679,18.6595522 C13.0697214,16.9125373 13.4243929,14.4026866 15.0923,11.5923881 C15.7954321,10.4074627 16.7089357,9.21119403 17.7751964,8.05179104 L16.4734571,6.77059701 C15.9036571,6.20985075 15.0549036,6.20985075 14.4849714,6.77059701 L0.823514286,20.2155224 C0.328771429,20.7023881 0.0447964286,21.4073134 0.0447964286,22.1486567 L0.0447964286,66.4758209 C0.0447964286,68.3640299 1.39992143,69.8946269 3.07166071,69.8946269 L27.8867679,69.8946269 C29.5585071,69.8946269 30.9136321,68.3640299 30.9136321,66.4758209 L30.9136321,22.1480597 C30.9133679,21.4070149 30.6293929,20.7020896 30.13465,20.2152239 Z M25.9547071,18.0334328 C25.7607214,18.1473134 25.5699071,18.2465672 25.3775071,18.3531343 C25.5699071,18.2468657 25.7607214,18.1471642 25.9547071,18.0334328 Z M19.8054393,17.8743284 C19.7951321,17.8765672 19.7856179,17.8776119 19.7753107,17.8797015 C19.7856179,17.8776119 19.7951321,17.8765672 19.8054393,17.8743284 Z M24.4607,16.020597 C24.3722964,16.07 24.2873286,16.111791 24.19985,16.1592537 C24.2873286,16.111791 24.3722964,16.07 24.4607,16.020597 Z M23.6019036,16.4771642 C23.5436286,16.5065672 23.4879964,16.530597 23.4301179,16.5591045 C23.4879964,16.530597 23.5436286,16.5065672 23.6019036,16.4771642 Z M22.7723107,16.8722388 C22.7288357,16.891791 22.6876071,16.9070149 22.6442643,16.9261194 C22.6876071,16.9071642 22.7287036,16.891791 22.7723107,16.8722388 Z M21.9754893,17.2076119 C21.9351857,17.2234328 21.8973929,17.2353731 21.8574857,17.2507463 C21.8972607,17.2353731 21.9351857,17.2234328 21.9754893,17.2076119 Z M21.2124964,17.4855224 C21.200075,17.4897015 21.1884464,17.4925373 21.1761571,17.4967164 C21.1884464,17.4925373 21.1999429,17.4897015 21.2124964,17.4855224 Z M20.4882214,17.7070149 C20.4802929,17.7092537 20.4728929,17.710597 20.4647,17.7128358 C20.4728929,17.710597 20.4802929,17.7092537 20.4882214,17.7070149 Z M20.450825,20.3249254 C19.7767643,20.4786567 19.1365321,20.5676119 18.5333,20.5944776 C19.1361357,20.5677612 19.7779536,20.4773134 20.450825,20.3249254 Z M24.7789,18.6819403 C24.5196357,18.8162687 24.2649964,18.9347761 24.0095643,19.0553731 C24.2648643,18.9352239 24.5197679,18.8159701 24.7789,18.6819403 Z M23.6378464,19.2331343 C23.3381464,19.3679104 23.0443929,19.4862687 22.7514321,19.6016418 C23.0439964,19.4868657 23.3385429,19.3671642 23.6378464,19.2331343 Z M22.5337929,19.6895522 C22.208325,19.8131343 21.8895964,19.9202985 21.5740393,20.0192537 C21.8889357,19.9210448 22.2087214,19.8123881 22.5337929,19.6895522 Z M21.4709679,20.0529851 C21.1317571,20.1568657 20.8006071,20.2441791 20.4751393,20.3189552 C20.8000786,20.2447761 21.1324179,20.1561194 21.4709679,20.0529851 Z" id="Shape" fill="#D77575"></path>
                        <g id="Group" transform="translate(13.478571, 0.000000)" fill="#812A2A">
                            <path d="M22.9421143,1.96761194 C21.9185357,0.221492537 19.7342143,-0.391044776 16.7923179,0.244925373 C14.1851393,0.808358209 11.1790214,2.29238806 8.32737857,4.4241791 C6.83284286,5.54179104 5.47150714,6.7741791 4.296625,8.05164179 C3.23049643,9.21104478 2.31686071,10.4073134 1.61372857,11.5922388 C1.00851429,12.6119403 0.581692857,13.5902985 0.325467857,14.508806 C0.83065,14.2174627 1.39437143,14.0374627 2.00064286,14.0374627 C2.3125,14.0374627 2.61048214,14.0940299 2.899875,14.1758209 C3.0673,13.8035821 3.26353214,13.4179104 3.49967143,13.0201493 C4.14743571,11.9283582 5.00187143,10.8183582 6.01197143,9.73955224 C7.05233214,8.62865672 8.25800357,7.55104478 9.58062143,6.56238806 C12.1870071,4.61343284 14.8997679,3.26462687 17.2194036,2.76298507 C17.8342643,2.63029851 18.4039321,2.56522388 18.9095107,2.56522388 C19.96335,2.56522388 20.7354607,2.84731343 21.0489036,3.38313433 C21.5129893,4.17522388 21.1332107,5.79358209 20.0571714,7.60656716 C18.7424821,9.82253731 16.5832679,12.1153731 13.9760893,14.0643284 C13.2563071,14.6025373 12.5511929,15.0801493 11.8664286,15.501194 L13.679825,17.2859701 C14.1945214,16.948209 14.7112,16.5898507 15.2293321,16.2026866 C18.0803143,14.0708955 20.4649643,11.5252239 21.9429821,9.03462687 C23.6108893,6.22447761 23.9655607,3.71462687 22.9421143,1.96761194 Z" id="Shape"></path>
                            <path d="M0.614596429,18.659403 C1.38763214,19.978209 2.82640357,20.6158209 4.67376071,20.6158209 C4.79638929,20.6158209 4.92853214,20.6001493 5.05459643,20.5946269 C5.46542857,19.9204478 5.708175,19.1056716 5.708175,18.2253731 C5.708175,18.1444776 5.69112857,18.0689552 5.68716429,17.9892537 C4.05017857,18.2262687 2.9082,17.9274627 2.50793929,17.2437313 C2.14560357,16.6253731 2.30404286,15.5007463 2.899875,14.1759701 C2.61048214,14.0940299 2.3125,14.0376119 2.00064286,14.0376119 C1.39437143,14.0376119 0.83065,14.2174627 0.325467857,14.5089552 C-0.124742857,16.1216418 -0.0375285714,17.5462687 0.614596429,18.659403 Z" id="Shape"></path>
                        </g>
                        <g id="Group" transform="translate(11.760714, 14.029851)" fill="#CE0000">
                            <path d="M6.39161786,6.58597015 C4.54412857,6.58597015 3.10535714,5.94835821 2.33245357,4.62955224 C1.68032857,3.51641791 1.59311429,2.0919403 2.04319286,0.478955224 C0.84175,1.17179104 0.0105714286,2.56731343 0.0105714286,4.19552239 C0.0105714286,6.50835821 1.67055,8.38343284 3.71836786,8.38343284 C4.986675,8.38343284 6.10394286,7.6619403 6.77245357,6.56477612 C6.64638929,6.57029851 6.51424643,6.58597015 6.39161786,6.58597015 Z" id="Shape"></path>
                            <path d="M4.22566429,3.2138806 C4.62605714,3.89761194 5.76790357,4.19641791 7.40488929,3.95940299 C7.31172857,2.10597015 6.16168929,0.583134328 4.6176,0.146119403 C4.02176786,1.47089552 3.86346071,2.59552239 4.22566429,3.2138806 Z" id="Shape"></path>
                        </g>
                    </g>
                    <g id="Group-12" transform="translate(23.022516, 44.286297) rotate(5.000000) translate(-23.022516, -44.286297) translate(11.022516, 17.786297)">
                        <text id="S" font-family="SVN-GothamBold, SVN-Gotham" font-size="38" font-weight="bold" letter-spacing="-1.1875" fill="#FFFFFF">
                            <tspan x="1.88293825e-13" y="44">S</tspan>
                        </text>
                        <path d="M10.5,15.5 L10.5,19.5" id="Line-6" stroke="#FFFFFF" stroke-width="3" stroke-linecap="square"></path>
                        <path d="M14.5,15.5 L14.5,19.5" id="Line-6" stroke="#FFFFFF" stroke-width="3" stroke-linecap="square"></path>
                        <path d="M10.5,41.4979947 L10.5,45.9979947" id="Line-6" stroke="#FFFFFF" stroke-width="3" stroke-linecap="square"></path>
                        <path d="M14.5,41.5 L14.5,46" id="Line-6" stroke="#FFFFFF" stroke-width="3" stroke-linecap="square"></path>
                    </g>
                </g>
            </g>
        </g>
    </g>
</svg>