<?xml version="1.0" encoding="UTF-8" standalone="no"?>
<svg width="124px" height="124px" viewBox="0 0 124 124" version="1.1" xmlns="http://www.w3.org/2000/svg" xmlns:xlink="http://www.w3.org/1999/xlink">
    <!-- Generator: Sketch 48.2 (47327) - http://www.bohemiancoding.com/sketch -->
    <title>technology</title>
    <desc>Created with Sketch.</desc>
    <defs></defs>
    <g id="Visual---123Credit---Homepage3" stroke="none" stroke-width="1" fill="none" fill-rule="evenodd" transform="translate(-1195.000000, -1025.000000)">
        <g id="Group-11" transform="translate(279.000000, 1025.000000)">
            <g id="technology" transform="translate(916.000000, 0.000000)">
                <circle id="Oval-9" fill="#31718A" cx="62" cy="62" r="62"></circle>
                <g id="ic---qr-code" transform="translate(30.000000, 30.000000)">
                    <g id="qr-code">
                        <rect id="Rectangle-path" fill="#E4AE55" fill-rule="nonzero" x="17.5483871" y="13.4193548" width="45.4193548" height="35.0967742"></rect>
                        <g id="Group" fill="#EEEEEE" fill-rule="nonzero">
                            <path d="M64,12.3870968 L37.1612903,12.3870968 L37.1612903,5.16129032 C37.1612903,2.31535484 34.8459355,0 32,0 L5.16129032,0 C2.31535484,0 0,2.31535484 0,5.16129032 L0,58.8387097 C0,61.6846452 2.31535484,64 5.16129032,64 L32,64 C34.8459355,64 37.1612903,61.6846452 37.1612903,58.8387097 L37.1612903,49.5483871 L64,49.5483871 L64,12.3870968 Z M61.9354839,24.7741935 L51.6129032,24.7741935 L51.6129032,14.4516129 L61.9354839,14.4516129 L61.9354839,24.7741935 Z M49.5483871,20.6451613 L43.3548387,20.6451613 L43.3548387,18.5806452 L49.5483871,18.5806452 L49.5483871,20.6451613 Z M5.16129032,2.06451613 L32,2.06451613 C33.7073548,2.06451613 35.0967742,3.45393548 35.0967742,5.16129032 L35.0967742,6.19354839 L2.06451613,6.19354839 L2.06451613,5.16129032 C2.06451613,3.45393548 3.45393548,2.06451613 5.16129032,2.06451613 Z M32,61.9354839 L5.16129032,61.9354839 C3.45393548,61.9354839 2.06451613,60.5460645 2.06451613,58.8387097 L2.06451613,55.7419355 L35.0967742,55.7419355 L35.0967742,58.8387097 C35.0967742,60.5460645 33.7073548,61.9354839 32,61.9354839 Z M35.0967742,53.6774194 L2.06451613,53.6774194 L2.06451613,8.25806452 L35.0967742,8.25806452 L35.0967742,12.3870968 L16.516129,12.3870968 L16.516129,49.5483871 L35.0967742,49.5483871 L35.0967742,53.6774194 Z M30.9677419,20.6451613 L30.9677419,18.5806452 L37.1612903,18.5806452 L37.1612903,28.9032258 L35.0967742,28.9032258 L35.0967742,20.6451613 L30.9677419,20.6451613 Z M28.9032258,47.483871 L18.5806452,47.483871 L18.5806452,37.1612903 L28.9032258,37.1612903 L28.9032258,47.483871 Z M28.9032258,14.4516129 L28.9032258,24.7741935 L18.5806452,24.7741935 L18.5806452,14.4516129 L28.9032258,14.4516129 Z M30.9677419,47.483871 L30.9677419,35.0967742 L18.5806452,35.0967742 L18.5806452,26.8387097 L30.9677419,26.8387097 L30.9677419,22.7096774 L33.0322581,22.7096774 L33.0322581,30.9677419 L39.2258065,30.9677419 L39.2258065,16.516129 L30.9677419,16.516129 L30.9677419,14.4516129 L49.5483871,14.4516129 L49.5483871,16.516129 L41.2903226,16.516129 L41.2903226,22.7096774 L49.5483871,22.7096774 L49.5483871,26.8387097 L61.9354839,26.8387097 L61.9354839,47.483871 L30.9677419,47.483871 Z" id="Shape"></path>
                            <path d="M45.9361049,37.1612903 L53.6774194,37.1612903 L53.6774194,45.4193548 L59.8709677,45.4193548 L59.8709677,30.9677419 L45.9361049,30.9677419 L45.9361049,37.1612903 Z M48.0316685,33.0322581 L57.8064516,33.0322581 L57.8064516,43.3548387 L55.7419355,43.3548387 L55.7419355,35.0967742 L48.0316685,35.0967742 L48.0316685,33.0322581 Z" id="Shape"></path>
                            <path d="M37.1612903,39.2258065 L33.0322581,39.2258065 L33.0322581,45.4193548 L43.3548387,45.4193548 L43.3548387,33.0322581 L37.1612903,33.0322581 L37.1612903,39.2258065 Z M39.2258065,35.0967742 L41.2903226,35.0967742 L41.2903226,43.3548387 L35.0967742,43.3548387 L35.0967742,41.2903226 L39.2258065,41.2903226 L39.2258065,35.0967742 Z" id="Shape"></path>
                            <rect id="Rectangle-path" x="4.12903226" y="12.3870968" width="2.06451613" height="33.0322581"></rect>
                            <rect id="Rectangle-path" x="4.12903226" y="47.483871" width="2.06451613" height="2.06451613"></rect>
                        </g>
                    </g>
                </g>
            </g>
        </g>
    </g>
</svg>