<?xml version="1.0" encoding="UTF-8" standalone="no"?>
<svg width="124px" height="124px" viewBox="0 0 124 124" version="1.1" xmlns="http://www.w3.org/2000/svg" xmlns:xlink="http://www.w3.org/1999/xlink">
    <!-- Generator: Sketch 48.2 (47327) - http://www.bohemiancoding.com/sketch -->
    <title>travel</title>
    <desc>Created with Sketch.</desc>
    <defs></defs>
    <g id="Visual---123Credit---Homepage3" stroke="none" stroke-width="1" fill="none" fill-rule="evenodd" transform="translate(-584.000000, -1025.000000)">
        <g id="Group-11" transform="translate(279.000000, 1025.000000)">
            <g id="travel" transform="translate(305.000000, 0.000000)">
                <circle id="Oval-6" fill="#339676" cx="62" cy="62" r="62"></circle>
                <g id="ic---airplane" transform="translate(30.000000, 30.000000)">
                    <g id="airplane">
                        <path d="M56.6281081,21.0296082 L39.124973,21.0296082 C35.1517838,21.0296082 31.9178378,17.7400962 31.9178378,13.6986392 C31.9178378,9.65718213 35.1517838,6.3676701 39.124973,6.3676701 C39.5193514,6.3676701 39.9115676,6.40021993 40.2988108,6.46509966 C41.7340541,2.66248797 45.3541622,0.0840137457 49.420973,0.0840137457 C53.5321081,0.0840137457 57.2294054,2.75573883 58.6164324,6.65270103 C61.6743784,7.54298282 63.8354595,10.4113265 63.8354595,13.6988591 C63.8352432,17.7400962 60.6012973,21.0296082 56.6281081,21.0296082 Z" id="Shape" fill="#E4AE55" fill-rule="nonzero"></path>
                        <path d="M62.3753514,34.3020206 C58.7749189,32.4702131 54.7429189,31.5025155 50.7171892,31.5025155 L37.7349189,31.5025155 L26.0663784,23.1242337 L16.0473514,23.1242337 L24.2841081,31.5025155 L15.8352432,31.5025155 L6.56886486,23.1242337 L0.474594595,23.1242337 L4.55394595,32.4618557 L3.08886486,32.7101581 L3.08886486,36.2301581 L3.74681081,36.7087285 C8.48908108,40.1543918 14.0767568,41.9756426 19.9044324,41.9756426 L22.2250811,41.9756426 L14.6914595,49.638488 L15.7437838,50.3453471 C16.0722162,50.566378 16.3820541,50.8208385 16.6642162,51.1014708 L16.9647568,51.4010172 L22.9785946,51.4010172 L36.1059459,41.9754227 L50.4585946,41.9754227 C54.0097297,41.9754227 57.4650811,41.2538282 60.7277838,39.8315326 L62.235027,39.1748179 C63.2069189,38.7496907 63.835027,37.7808935 63.835027,36.7052096 C63.8352432,35.6812096 63.2761081,34.7605773 62.3753514,34.3020206 Z M21.0181622,25.2188591 L25.4136216,25.2188591 L34.1651892,31.5025155 L27.1958919,31.5025155 L21.0181622,25.2188591 Z M3.64367568,25.2188591 L5.78637838,25.2188591 L12.7362162,31.5025155 L11.3184865,31.5025155 C10.5833514,31.5025155 9.84302703,31.5654158 9.11827027,31.6879175 L6.65232432,32.1057869 L3.64367568,25.2188591 Z M61.424,37.2490997 L59.9167568,37.9058144 C56.9102703,39.2170447 53.7299459,39.8810172 50.4588108,39.8810172 L39.0231351,39.8810172 L40.7487568,38.6421443 L39.5606486,36.9308591 L22.3251892,49.3066117 L17.9295135,49.3066117 L28.5271351,38.5269003 L27.0713514,37.0461031 L24.2843243,39.8810172 L19.9042162,39.8810172 C14.5924324,39.8810172 9.496,38.246268 5.14789189,35.1513952 L5.14789189,34.4843436 L9.45686486,33.7532921 C10.0704865,33.6497045 10.6975135,33.5971409 11.3184865,33.5971409 L50.7171892,33.5971409 C54.4257297,33.5971409 58.1385946,34.4883024 61.4538378,36.1745155 C61.6525405,36.2761237 61.776,36.4793402 61.776,36.7054296 C61.776,36.9420756 61.636973,37.1558488 61.424,37.2490997 Z" id="Shape" fill="#EEEEEE" fill-rule="nonzero"></path>
                        <path d="M18.5327568,63.9685498 L6.17751351,63.9685498 C2.77059459,63.9685498 0,61.1503505 0,57.6848935 C0,54.608055 2.22702703,52.0023093 5.16972973,51.5090034 C6.6172973,48.8803849 9.37556757,47.2119863 12.3552432,47.2119863 C16.2698378,47.2119863 19.6222703,50.0282062 20.4108108,53.8664467 C22.3671351,54.6425842 23.6808649,56.5526873 23.6808649,58.7322062 C23.6808649,61.6194639 21.3714595,63.9685498 18.5327568,63.9685498 Z" id="Shape" fill="#E4AE55" fill-rule="nonzero"></path>
                        <rect id="Rectangle-path" fill="#EEEEEE" fill-rule="nonzero" x="35.0064865" y="53.4956426" width="20.592" height="2.09462543"></rect>
                        <rect id="Rectangle-path" fill="#EEEEEE" fill-rule="nonzero" x="30.888" y="53.4956426" width="2.05924324" height="2.09462543"></rect>
                        <rect id="Rectangle-path" fill="#EEEEEE" fill-rule="nonzero" x="9.26637838" y="7.41476289" width="16.4735135" height="2.09462543"></rect>
                        <rect id="Rectangle-path" fill="#EEEEEE" fill-rule="nonzero" x="5.14810811" y="7.41476289" width="2.05924324" height="2.09462543"></rect>
                        <rect id="Rectangle-path" fill="#EEEEEE" fill-rule="nonzero" x="5.14810811" y="12.6513265" width="15.4441081" height="2.09462543"></rect>
                        <rect id="Rectangle-path" fill="#EEEEEE" fill-rule="nonzero" x="1.02962162" y="12.6513265" width="2.05924324" height="2.09462543"></rect>
                    </g>
                </g>
            </g>
        </g>
    </g>
</svg>