<?xml version="1.0" encoding="UTF-8" standalone="no"?>
<svg width="1600px" height="574px" viewBox="0 0 1600 574" version="1.1" xmlns="http://www.w3.org/2000/svg" xmlns:xlink="http://www.w3.org/1999/xlink">
    <!-- Generator: Sketch 49 (51002) - http://www.bohemiancoding.com/sketch -->
    <title>Group 15</title>
    <desc>Created with Sketch.</desc>
    <defs></defs>
    <g id="Homepage" stroke="none" stroke-width="1" fill="none" fill-rule="evenodd">
        <g id="Visual---123Credit---Homepage3" transform="translate(0.000000, -1767.000000)">
            <g id="Section" transform="translate(0.000000, 1590.000000)">
                <g id="Group-15" transform="translate(0.000000, 177.000000)">
                    <path d="M0,180 C236.692708,60.3802083 503.359375,0.5703125 800,0.5703125 C1096.64062,0.5703125 1363.30729,60.3802083 1600,180 L1600,574 L0,574 L0,180 Z" id="Rectangle-7" fill="#DBF6FF" opacity="0.349411232"></path>
                    <path d="M0,180 C236.692708,114.083333 503.359375,81.125 800,81.125 C1096.64062,81.125 1363.30729,101.648438 1600,142.695312 L1600,574 L0,574 L0,180 Z" id="Rectangle-7-Copy-2" fill="#DBF6FF" opacity="0.349411232"></path>
                    <path d="M0,102 C236.692708,174.658101 503.359375,210.987151 800,210.987151 C1096.64062,210.987151 1363.30729,174.658101 1600,102 L1600,574 L0,574 L0,102 Z" id="Rectangle-7-Copy" fill="#A6DDEF" opacity="0.252887228"></path>
                </g>
            </g>
        </g>
    </g>
</svg>