<?xml version="1.0" encoding="UTF-8" standalone="no"?>
<svg width="64px" height="9px" viewBox="0 0 64 9" version="1.1" xmlns="http://www.w3.org/2000/svg" xmlns:xlink="http://www.w3.org/1999/xlink">
    <!-- Generator: Sketch 49 (51002) - http://www.bohemiancoding.com/sketch -->
    <title>Zara_Logo</title>
    <desc>Created with Sketch.</desc>
    <defs></defs>
    <g id="Homepage" stroke="none" stroke-width="1" fill="none" fill-rule="evenodd">
        <g id="Visual---123Credit---BrandPopup" transform="translate(-617.000000, -615.000000)" fill="#000000" fill-rule="nonzero">
            <g id="Popup" transform="translate(458.000000, 195.000000)">
                <g id="Group-22-Copy-25" transform="translate(149.000000, 383.000000)">
                    <g id="Zara_Logo" transform="translate(10.000000, 37.000000)">
                        <path d="M10.368,8.42043077 L0,8.42043077 L0,8.10889846 L7.76585846,0.506289231 L4.57767385,0.506289231 L1.33454769,0.506289231 L1.14944,2.40147692 L0.675052308,2.40147692 L0.888123077,0.192 L10.5883569,0.192 L10.5883569,0.414916923 L2.70178462,8.10870154 L9.86230154,8.10968615 L10.05824,5.72061538 L10.5885538,5.72061538 L10.368,8.42043077 Z M58.4081723,5.85472 L54.1120985,5.85472 L52.7279262,8.10870154 L55.2306215,8.10870154 L55.2306215,8.42023385 L50.3286154,8.42023385 L50.3286154,8.10870154 L52.1940677,8.10870154 L57.1273846,0.00137846154 L57.4367508,0.00137846154 L62.16704,8.10870154 L63.98464,8.10870154 L63.98464,8.42023385 L57.5401354,8.42023385 L57.5401354,8.10870154 L59.7261785,8.10870154 L58.4081723,5.85472 Z M54.3009477,5.54299077 L58.2256246,5.54299077 L56.3184246,2.24866462 L56.2798277,2.24866462 L54.3009477,5.54299077 Z M22.5827446,5.85373538 L18.2872615,5.85373538 L16.9028923,8.10673231 L19.4055877,8.10673231 L19.4055877,8.41944615 L14.5035815,8.41944615 L14.5035815,8.10673231 L16.3700185,8.10673231 L21.3023508,0 L21.6119138,0 L26.3418092,8.10673231 L28.16,8.10673231 L28.16,8.41944615 L21.7160862,8.41944615 L21.7160862,8.10673231 L23.9015385,8.10673231 L22.5827446,5.85373538 Z M18.4105354,5.54220308 L22.3350154,5.54220308 L20.4280123,2.24787692 L20.3904,2.24787692 L18.4105354,5.54220308 Z M34.7947323,8.10889846 L34.7947323,0.506289231 L32.6665846,0.506289231 L32.6665846,0.192196923 L40.0781785,0.192196923 L42.7423508,0.208541538 C44.1692554,0.217206154 44.5335631,1.33612308 44.5335631,2.08915692 C44.5335631,3.10862769 44.2838646,3.93787077 42.7504246,4.22025846 C42.7228554,4.22577231 42.5210092,4.23502769 42.2358646,4.24566154 L44.4839385,8.10889846 L46.3013415,8.10889846 L46.3013415,8.42043077 L42.2214892,8.42043077 L39.7625108,4.23975385 L37.1938462,4.23857231 L37.1938462,8.10889846 L39.3212062,8.10889846 L39.3212062,8.42043077 L32.6665846,8.42043077 L32.6665846,8.10889846 L34.7947323,8.10889846 Z M37.1940431,0.506289231 L37.1940431,3.92428308 L39.5831138,3.91620923 C40.0945231,3.91463385 40.4925046,3.86284308 40.7947815,3.81558154 C41.2028062,3.75020308 41.5304862,3.58734769 41.7752615,3.31835077 C42.0229908,3.05112615 42.1446892,2.62380308 42.1446892,2.03972923 C42.1446892,1.5616 42.01984,1.21166769 41.7721108,0.989932308 C41.5243815,0.770166154 41.2209231,0.634092308 40.8698092,0.581907692 C40.5147569,0.531101538 40.0539569,0.506289231 39.4836677,0.506289231 L37.1940431,0.506289231 Z" id="path11061"></path>
                    </g>
                </g>
            </g>
        </g>
    </g>
</svg>