<?xml version="1.0" encoding="UTF-8" standalone="no"?>
<svg width="64px" height="19px" viewBox="0 0 64 19" version="1.1" xmlns="http://www.w3.org/2000/svg" xmlns:xlink="http://www.w3.org/1999/xlink">
    <!-- Generator: Sketch 49 (51002) - http://www.bohemiancoding.com/sketch -->
    <title>shopify</title>
    <desc>Created with Sketch.</desc>
    <defs></defs>
    <g id="Homepage" stroke="none" stroke-width="1" fill="none" fill-rule="evenodd">
        <g id="Visual---123Credit---BrandPopup" transform="translate(-818.000000, -610.000000)" fill-rule="nonzero">
            <g id="Popup" transform="translate(458.000000, 195.000000)">
                <g id="Group-22-Copy-23" transform="translate(350.000000, 383.000000)">
                    <g id="shopify" transform="translate(10.000000, 32.000000)">
                        <path d="M13.7263535,3.47060403 C13.7134303,3.39267799 13.6490393,3.33360375 13.5702908,3.32742729 L12.1385235,3.22004474 L11.083311,2.17055928 C10.9787919,2.06604027 10.775481,2.09753915 10.695302,2.12044743 L10.1655481,2.29082774 C9.84340045,1.37020134 9.28214765,0.529753915 8.29565996,0.529753915 L8.21261745,0.529753915 C7.93055928,0.161789709 7.58836689,0 7.28340045,0 C4.98541387,0 3.88724832,2.87355705 3.54219239,4.33395973 L1.93431767,4.83221477 C1.43606264,4.9882774 1.4203132,5.00402685 1.36161074,5.47364653 C1.30434004,5.8301566 0,15.9183893 0,15.9183893 L10.1655481,17.8226398 L15.673557,16.6314094 C15.673557,16.6314094 13.7449664,3.5593736 13.7263535,3.47060403 Z M9.59284116,2.45834452 L8.73378076,2.72035794 C8.73378076,2.66022371 8.73378076,2.60008949 8.73378076,2.53422819 C8.74500398,2.06334382 8.6772502,1.59390689 8.53333333,1.14541387 C9.04161074,1.2141387 9.3809396,1.79257271 9.59284116,2.45834452 Z M7.9033557,1.26281879 C8.07609948,1.76037871 8.15522578,2.28562204 8.13673378,2.81199105 C8.13673378,2.84635347 8.13673378,2.87928412 8.13673378,2.91221477 L6.35991051,3.46058166 C6.70210291,2.14765101 7.34210291,1.5033557 7.9033557,1.26281879 Z M7.22040268,0.617091723 C7.32649731,0.619140604 7.42942264,0.653615594 7.51534676,0.715883669 C6.77798658,1.06237136 5.98908277,1.93574944 5.65404922,3.67964206 L4.24948546,4.10917226 C4.64178971,2.78478747 5.56957494,0.617091723 7.22040268,0.617091723 Z" id="Shape" fill="#95BF47"></path>
                        <path d="M13.5717226,3.32599553 L12.1399553,3.21861298 L11.0847427,2.16912752 C11.045144,2.13240106 10.995112,2.10888602 10.941566,2.10183445 L10.1655481,17.8226398 L15.6721253,16.6314094 C15.6721253,16.6314094 13.7449664,3.5593736 13.7263535,3.47060403 C13.7141588,3.39259779 13.65037,3.33294345 13.5717226,3.32599553 Z" id="Shape" fill="#5E8E3E"></path>
                        <path d="M8.29565996,6.36850112 L7.61557047,8.38872483 C7.20285763,8.18666231 6.75065107,8.07813274 6.29118568,8.07087248 C5.22165548,8.07087248 5.16868009,8.74237136 5.16868009,8.91131991 C5.16868009,9.83337808 7.57404922,10.1870246 7.57404922,12.3475615 C7.57404922,14.0485011 6.49592841,15.1423714 5.0412528,15.1423714 C3.29592841,15.1423714 2.40393736,14.0570917 2.40393736,14.0570917 L2.87069351,12.5136465 C2.87069351,12.5136465 3.78845638,13.3011186 4.56161074,13.3011186 C4.74937545,13.3101914 4.93257756,13.2414687 5.06805125,13.1111431 C5.20352493,12.9808174 5.27928986,12.8004137 5.27749441,12.6124385 C5.27749441,11.4083221 3.30451902,11.3553468 3.30451902,9.37807606 C3.30451902,7.71293065 4.49861298,6.10219239 6.91114094,6.10219239 C7.83606264,6.10219239 8.29565996,6.36850112 8.29565996,6.36850112 Z" id="Shape" fill="#FFFFFF"></path>
                        <path d="M22.0936018,10.1555257 C21.5438031,9.85771812 21.261745,9.60572707 21.261745,9.26067114 C21.261745,8.82111857 21.6540492,8.54478747 22.2639821,8.54478747 C22.7290854,8.55558586 23.1876498,8.65673261 23.6141387,8.84259508 L24.1181208,7.30201342 C24.1181208,7.30201342 23.65566,6.94120805 22.2983445,6.94120805 C20.4069799,6.94120805 19.0969128,8.02362416 19.0969128,9.54702461 C19.0969128,10.406085 19.7082774,11.0689933 20.5286801,11.5400447 C21.1872931,11.9165996 21.4235347,12.1829083 21.4235347,12.5752125 C21.4235347,12.9675168 21.0885011,13.3154362 20.4742729,13.3154362 C19.8556081,13.2901191 19.2500403,13.1293186 18.7003132,12.8443848 L18.166264,14.3821029 C18.166264,14.3821029 18.9623266,14.9161521 20.3010291,14.9161521 C22.2468009,14.9161521 23.6442058,13.9582998 23.6442058,12.2330201 C23.6470694,11.3009396 22.9412081,10.6423266 22.0936018,10.1555257 Z" id="s" fill="#231F20"></path>
                        <path d="M29.8451902,6.92259508 C28.8873378,6.92259508 28.1342282,7.37789709 27.5543624,8.06800895 L27.5228635,8.05225951 L28.3489933,3.70541387 L26.1898881,3.70541387 L24.0866219,14.7701119 L26.2528859,14.7701119 L26.9687696,10.9873826 C27.255123,9.55561521 27.9881879,8.68080537 28.6797315,8.68080537 C29.1665324,8.68080537 29.354094,9.01011186 29.354094,9.48116331 C29.3537876,9.80275915 29.3221391,10.1235596 29.2595973,10.4390157 L28.4434899,14.7701119 L30.6097539,14.7701119 L31.4573602,10.2972707 C31.5512283,9.83175401 31.6039298,9.35887696 31.6148546,8.88411633 C31.6191499,7.65995526 30.9762864,6.92259508 29.8451902,6.92259508 Z" id="h" fill="#231F20"></path>
                        <path d="M36.5100671,6.92259508 C33.9042506,6.92259508 32.1789709,9.27642058 32.1789709,11.8979866 C32.1789709,13.5774497 33.2141387,14.9261745 35.1613423,14.9261745 C37.7199105,14.9261745 39.4451902,12.6353468 39.4451902,9.950783 C39.4509172,8.3987472 38.5403132,6.92259508 36.5100671,6.92259508 Z M35.4434004,13.2624609 C34.7060403,13.2624609 34.3924832,12.6353468 34.3924832,11.8507383 C34.3924832,10.6108277 35.0353468,8.58630872 36.2122595,8.58630872 C36.9811186,8.58630872 37.2316779,9.2449217 37.2316779,9.889217 C37.2374049,11.2236242 36.5945414,13.2638926 35.4491275,13.2638926 L35.4434004,13.2624609 Z" id="o" fill="#231F20"></path>
                        <path d="M44.9904251,6.92259508 C43.5285906,6.92259508 42.6995973,8.21118568 42.6995973,8.21118568 L42.6666667,8.21118568 L42.7926622,7.05002237 L40.8783893,7.05002237 C40.7838926,7.83463087 40.6120805,9.02729306 40.4388367,9.92214765 L38.9326174,17.8469799 L41.0917226,17.8469799 L41.6873378,14.6455481 L41.7345861,14.6455481 C41.7345861,14.6455481 42.1798658,14.9319016 43.0059955,14.9319016 C45.5488143,14.9319016 47.212528,12.326085 47.212528,9.69020134 C47.2196868,8.22550336 46.5753915,6.92259508 44.9904251,6.92259508 Z M42.9186577,13.2939597 C42.5926229,13.2988927 42.2754527,13.1877563 42.0238031,12.9804027 L42.3803132,10.9558837 C42.6308725,9.60572707 43.3381655,8.71230425 44.0912752,8.71230425 C44.7498881,8.71230425 44.9503356,9.3236689 44.9503356,9.90496644 C44.9574944,11.3009396 44.1270694,13.2939597 42.9186577,13.2939597 Z" id="p" fill="#231F20"></path>
                        <path d="M50.3108725,3.81565996 C49.9789201,3.81446228 49.6604474,3.94688251 49.4272061,4.18308648 C49.1939648,4.41929045 49.0655747,4.73940907 49.070962,5.07131991 C49.070962,5.71418345 49.4790157,6.15373602 50.0903803,6.15373602 L50.1218792,6.15373602 C50.4615281,6.16939664 50.7923603,6.04292469 51.0349469,5.80468452 C51.2775335,5.56644436 51.4099654,5.23795259 51.4004474,4.89807606 C51.4160643,4.60522824 51.30604,4.31962085 51.0979887,4.11293654 C50.8899375,3.90625222 50.603611,3.79811299 50.3108725,3.81565996 Z" id="dot" fill="#231F20"></path>
                        <polygon id="i" fill="#231F20" points="47.2826846 14.7701119 49.4475168 14.7701119 50.9236689 7.09583893 48.7416555 7.09583893"></polygon>
                        <path d="M56.4316779,7.08008949 L54.9254586,7.08008949 L55.0042058,6.71928412 C55.1302013,5.98192394 55.5697539,5.32187919 56.2927964,5.32187919 C56.5271631,5.32256566 56.7599923,5.35976036 56.9829083,5.43212528 L57.4124385,3.73691275 C57.4124385,3.73691275 57.0358837,3.54791946 56.2355257,3.54791946 C55.4662813,3.52530384 54.7144329,3.77930667 54.1165101,4.26380313 C53.3791499,4.89091723 53.034094,5.80152125 52.8608501,6.71212528 L52.7978523,7.07293065 L51.7956152,7.07293065 L51.4820582,8.70514541 L52.4842953,8.70514541 L51.3388814,14.762953 L53.5051454,14.762953 L54.6505593,8.70514541 L56.1410291,8.70514541 L56.4316779,7.08008949 Z" id="f" fill="#231F20"></path>
                        <path d="M61.6418792,7.09583893 C61.6418792,7.09583893 60.2874273,10.5063087 59.6803579,12.369038 L59.6488591,12.369038 C59.6073378,11.7691275 59.1148098,7.09583893 59.1148098,7.09583893 L56.8411633,7.09583893 L58.1440716,14.1429978 C58.1784594,14.2646572 58.1613776,14.3951004 58.0968233,14.5038031 C57.8145643,15.0261204 57.4109297,15.4729665 56.9199105,15.8067114 C56.5440644,16.0698172 56.131608,16.2762866 55.6957494,16.4195078 L56.2913647,18.2564653 C57.084375,18.0459627 57.8125738,17.6415171 58.4103803,17.0795526 C59.3997315,16.1531991 60.3089038,14.7257271 61.2510067,12.7842506 L63.9026398,7.10299776 L61.6418792,7.09583893 Z" id="y" fill="#231F20"></path>
                    </g>
                </g>
            </g>
        </g>
    </g>
</svg>