<?xml version="1.0" encoding="UTF-8" standalone="no"?>
<svg width="64px" height="30px" viewBox="0 0 64 30" version="1.1" xmlns="http://www.w3.org/2000/svg" xmlns:xlink="http://www.w3.org/1999/xlink">
    <!-- Generator: Sketch 49 (51002) - http://www.bohemiancoding.com/sketch -->
    <title>prudential-seeklogo.com</title>
    <desc>Created with Sketch.</desc>
    <defs></defs>
    <g id="Homepage" stroke="none" stroke-width="1" fill="none" fill-rule="evenodd">
        <g id="Visual---123Credit---BrandPopup" transform="translate(-919.000000, -506.000000)">
            <g id="Popup" transform="translate(458.000000, 195.000000)">
                <g id="Group-22-Copy-8" transform="translate(451.000000, 285.000000)">
                    <g id="prudential-seeklogo.com" transform="translate(10.000000, 26.000000)">
                        <path d="M15.1851629,27.8784962 C15.9350376,28.7542857 17.7515789,28.6500251 18.4140351,28.007619 C18.9008521,27.5336341 19.0981454,26.9393484 19.1879699,26.2977444 C19.2566166,25.7101137 19.2834176,25.1183475 19.2681704,24.5269173 C19.2681704,23.2765915 19.2681704,22.0262657 19.2681704,20.7759398 C19.2681704,20.6259649 19.2513283,20.4992481 19.4774937,20.5000501 C20.8320802,20.5048622 22.1874687,20.4198496 23.5396491,20.5682206 C24.6071178,20.6885213 25.598396,20.9868672 26.3282206,21.8434085 C26.6490226,22.2163409 26.8567419,22.6566416 27.0740852,23.0913283 C27.0973434,23.1378446 27.1013534,23.206817 27.2240602,23.2180451 C27.2240602,23.0897243 27.2240602,22.9630075 27.2240602,22.8362907 C27.2240602,22.1209023 27.2288722,21.4047118 27.2192481,20.6893233 C27.2192481,20.4968421 27.2617544,20.4230576 27.4710777,20.4238596 C29.1125146,20.4318797 30.7539515,20.4318797 32.3953885,20.4238596 C32.5790476,20.4238596 32.642406,20.4711779 32.645614,20.6644612 C32.6584461,21.3694236 32.6656642,21.3694236 31.9534837,21.3694236 C30.9990977,21.3694236 30.0447118,21.3758396 29.0903258,21.3694236 C28.8753885,21.3694236 28.8120301,21.4319799 28.8136341,21.6453133 C28.8200501,22.4088221 28.8136341,23.1691228 28.796792,23.9350376 C28.7903759,24.1796491 28.8489223,24.2630576 29.1095739,24.2558396 C30.1209023,24.2389975 31.1330326,24.2558396 32.1443609,24.2414035 C32.4138346,24.2373935 32.478797,24.321604 32.4715789,24.5790476 C32.4531328,25.1973935 32.4659649,25.1989975 31.8564411,25.1997995 C30.9309273,25.1997995 30.0046115,25.2054135 29.0790977,25.1997995 C28.8802005,25.1997995 28.7903759,25.2342857 28.793584,25.4628571 C28.806416,26.3410526 28.803208,27.2192481 28.793584,28.0966416 C28.793584,28.2803008 28.8392982,28.3372431 29.0341855,28.3372431 C30.3222055,28.3292231 31.6110276,28.326015 32.8990476,28.3372431 C33.1500752,28.3372431 33.1444612,28.2177444 33.1436591,28.0413033 C33.1436591,25.6176441 33.1436591,23.193183 33.1356391,20.7695238 C33.1356391,20.4960401 33.2110276,20.4559398 33.4756892,20.4142356 C34.1678195,20.3059649 34.56,20.645213 34.9658145,21.1432581 C36.4591479,22.9742356 37.9933835,24.7731328 39.513183,26.5832581 C39.5548872,26.6329825 39.6030075,26.6778947 39.6615539,26.7396491 C39.7305263,26.6193484 39.7048622,26.5046617 39.7048622,26.396391 C39.7048622,24.5068672 39.7096742,22.6173434 39.7008521,20.7278195 C39.7008521,20.4960401 39.7521805,20.4222556 39.997594,20.4230576 C42.6982122,20.432147 45.3982957,20.432147 48.0978446,20.4230576 C48.3609023,20.4230576 48.4122306,20.5032581 48.4066165,20.7438596 C48.3913784,21.3998997 48.4026065,21.4007018 47.7545865,21.3998997 C47.1723308,21.3998997 46.5900752,21.4151378 46.0086216,21.3926817 C45.7431579,21.3822556 45.6990476,21.4728822 45.6998496,21.7134837 C45.7086717,24.1283208 45.6998496,26.5423559 45.7118797,28.957193 C45.7118797,29.2074185 45.6581454,29.286817 45.4007018,29.2699749 C45.0098733,29.2489448 44.6181968,29.2489448 44.2273684,29.2699749 C44.0092231,29.279599 43.9578947,29.2082206 43.9586967,28.9964912 C43.9667168,26.5904762 43.9680535,24.1844612 43.9627068,21.7784461 C43.9627068,21.3036591 44.004411,21.3670175 43.5512782,21.3646115 C42.8070175,21.3606015 42.0619549,21.3710276 41.3184962,21.3589975 C41.0778947,21.3589975 41.0113283,21.434386 41.0121303,21.6709774 C41.0193484,24.0946366 41.0121303,26.5190977 41.0225564,28.9427569 C41.0225564,29.2146366 40.9343358,29.2403008 40.6913283,29.273183 C39.9767419,29.3686216 39.516391,29.0951378 39.0648622,28.5305263 C37.606015,26.7075689 36.0814035,24.9383459 34.5816541,23.1482707 C34.5231078,23.0784962 34.4814035,22.9878697 34.3763409,22.9630075 C34.3105764,23.0616541 34.3378446,23.1683208 34.3378446,23.2677694 C34.3378446,25.1861654 34.3330326,27.1045614 34.3434586,29.0221554 C34.3434586,29.2531328 34.2977444,29.3301253 34.0507268,29.3261153 C31.9034921,29.2967084 29.7562573,29.277193 27.6090226,29.2675689 C27.3900752,29.2675689 27.3411529,29.1969925 27.3443609,28.9884712 C27.356391,28.0733835 27.3491729,27.1574937 27.3491729,26.239198 C27.202406,26.239198 27.2192481,26.3498747 27.1887719,26.4172431 C26.9401504,27.0083208 26.6690727,27.5817544 26.1998997,28.0405013 C25.5895739,28.637193 24.8364912,28.9347368 24.0216541,29.1063659 C22.5884712,29.4095238 21.1408521,29.3982957 19.6908271,29.273183 C19.6550628,29.2640895 19.6203779,29.2511835 19.5873684,29.2346867 C19.9081704,29.0349875 20.2033083,28.8288722 20.3941855,28.5128822 C20.4655639,28.3949875 20.5818546,28.4382957 20.6796992,28.4398997 C21.4720802,28.4519298 22.2612531,28.4398997 23.042406,28.2730827 C24.5469674,27.9522807 25.3385464,26.9738346 25.5879699,25.5061654 C25.6986466,24.8533333 25.7299248,24.1940852 25.5751378,23.5428571 C25.280802,22.2989474 24.4010025,21.7078697 23.2196491,21.4624561 C22.5026566,21.3140852 21.7760401,21.3365414 21.0542356,21.3461654 C20.8336842,21.3461654 20.8136341,21.4632581 20.8136341,21.6388972 C20.8232581,23.0023058 20.8818045,24.3657143 20.800802,25.7291228 C20.7767419,26.1301253 20.7206015,26.5263158 20.6788972,26.9241103 C20.5802506,27.8704762 20.0717794,28.5104762 19.2288722,28.9291228 C17.6537343,29.7142857 16.0882206,29.6926316 14.5355388,28.8930326 C14.0679422,28.6662685 13.691876,28.2865236 13.4696742,27.8167419 C13.4431344,27.6436362 13.3677326,27.4817033 13.2523308,27.3499749 L13.2523308,27.3371429 C13.2026065,27.2120301 13.3453634,27.0307769 13.1400501,26.9505764 L13.1328321,26.8888221 C13.1328321,24.8677694 13.1328321,22.8475188 13.127218,20.8264662 C13.127218,20.6067168 13.1793484,20.5128822 13.4135338,20.5337343 C13.6308772,20.5529825 13.8514286,20.5337343 14.0711779,20.5377444 C14.4513283,20.5377444 14.5050627,20.5906767 14.5050627,20.963609 C14.5050627,22.5170927 14.5106767,24.0713784 14.5050627,25.6248622 C14.5050627,26.0066165 14.6911278,26.3619048 14.6301754,26.7476692 C14.6221554,26.7989975 14.6766917,26.8278697 14.726416,26.8358897 L14.7360401,26.9016541 C14.7221557,27.2801088 14.888847,27.6426624 15.1851629,27.8784962 Z" id="Shape" fill="#D72D21"></path>
                        <path d="M6.49704261,24.966416 C6.49704261,23.5923141 6.49704261,22.2179449 6.49704261,20.8433083 C6.49704261,20.6925313 6.48260652,20.5666165 6.71037594,20.5722306 C7.93102757,20.6003008 9.15328321,20.5353383 10.3739348,20.6123308 C10.5931153,20.6244739 10.811379,20.6496478 11.0275689,20.6877193 C11.9402506,20.8553383 12.4968421,21.3990977 12.7117794,22.3021554 C13.0157393,23.6038095 12.6772932,24.5172932 11.5801504,25.279198 C11.4037093,25.4019048 11.4542356,25.4861153 11.5376441,25.6192481 C12.2327151,26.7340351 12.9277861,27.8506934 13.6228571,28.9692231 C13.8113283,29.273183 13.8089223,29.278797 13.4672682,29.3004511 C13.0574436,29.3261153 12.647619,29.3389474 12.2385965,29.3718296 C12.0701754,29.3854637 11.9851629,29.3172932 11.9033584,29.1809524 C11.2777945,28.1335338 10.6402005,27.0957393 10.0178446,26.0435088 C9.90636591,25.8558396 9.78285714,25.7812531 9.56230576,25.7940852 C9.19097744,25.8149373 8.81804511,25.8101253 8.44591479,25.7940852 C8.25423559,25.7868672 8.20531328,25.8542356 8.20531328,26.0346867 C8.21333333,27.0556391 8.20050125,28.0773935 8.21493734,29.0983459 C8.21493734,29.3333333 8.14275689,29.3838596 7.92781955,29.3758396 C7.53724311,29.3606015 7.14426065,29.3581955 6.75448622,29.3758396 C6.51869674,29.3878697 6.47619048,29.3012531 6.47779449,29.0847118 C6.48741855,27.7108772 6.48260652,26.3362406 6.48260652,24.961604 L6.49704261,24.966416 Z M8.2077193,23.0303759 C8.2077193,23.526817 8.2077193,24.0224561 8.2077193,24.5188972 C8.2077193,24.6095238 8.18045113,24.7234085 8.33283208,24.7218045 C8.96,24.7161905 9.59037594,24.8284712 10.2135338,24.6688722 C10.515309,24.6004729 10.7738732,24.4072057 10.9249123,24.1371429 C11.3122807,23.4546366 11.2160401,22.2756892 10.716391,21.6693734 C10.5752381,21.4977444 10.4108271,21.3597995 10.1630075,21.3622055 C9.58075188,21.3678195 8.99849624,21.3686216 8.41704261,21.3622055 C8.2566416,21.3622055 8.20050125,21.4071178 8.20370927,21.5715288 C8.21493734,22.0567419 8.2077193,22.5435589 8.2077193,23.0303759 Z" id="Shape" fill="#D82C21"></path>
                        <path d="M14.724812,26.8455138 C14.6750877,26.8342857 14.6205514,26.8094236 14.6285714,26.7572932 C14.6895238,26.3707268 14.5010526,26.0154386 14.5034586,25.6344862 C14.5122807,24.0810025 14.5034586,22.5275188 14.5034586,20.9732331 C14.5034586,20.5994987 14.4497243,20.5481704 14.0695739,20.5473684 C13.8506266,20.5473684 13.6300752,20.5626065 13.4119298,20.5433584 C13.1777444,20.5225063 13.124812,20.6163409 13.125614,20.8360902 C13.1336341,22.8571429 13.1304261,24.8773935 13.1312281,26.8984461 C13.0197494,26.6257644 13.0406015,26.3370426 13.0397995,26.0523308 C13.0325815,24.2879198 13.0397995,22.5235088 13.0317794,20.7590977 C13.0317794,20.5449624 13.0871178,20.475188 13.3036591,20.487218 C13.6274633,20.5035528 13.9518851,20.5035528 14.2756892,20.487218 C14.4842105,20.478396 14.557193,20.5417544 14.557995,20.7598997 C14.563609,22.1898747 14.5876692,23.6198496 14.5948872,25.0498246 C14.5946353,25.6507448 14.638058,26.2508888 14.724812,26.8455138 Z" id="Shape" fill="#D53025"></path>
                        <path d="M50.5896742,28.6981454 C50.5832581,28.803208 50.5896742,28.9451629 50.4421053,28.9203008 C50.2945363,28.8954386 50.3570927,28.7486717 50.3570927,28.6524311 C50.3570927,26.0667669 50.3514787,23.4803008 50.3570927,20.8946366 C50.3570927,20.6267669 50.2985464,20.5104762 50.0138346,20.5417544 C49.8056344,20.5575985 49.5963834,20.5530321 49.3890727,20.5281203 C49.7034586,20.4374937 50.0306767,20.5537845 50.3458647,20.4431078 C50.5182957,20.4888221 50.4372932,20.6291729 50.4372932,20.7230075 C50.4426399,23.3134837 50.4442439,25.9042272 50.4421053,28.4952381 C50.4317894,28.5707964 50.434502,28.6475638 50.4501253,28.7222055 C50.5223058,28.8986466 50.5439599,28.7101754 50.5896742,28.6981454 Z" id="Shape" fill="#D53025"></path>
                        <path d="M63.9783459,28.3965915 C63.992782,28.1952882 63.9197995,28.1343358 63.7209023,28.1367419 C62.8338847,28.1455639 61.9460652,28.1439599 61.0590476,28.1367419 C60.6035088,28.1367419 60.6532331,28.2049123 60.6524311,27.7229073 C60.6524311,25.3666165 60.646817,23.0095238 60.6580451,20.6532331 C60.6580451,20.3941855 60.5842607,20.323609 60.3372431,20.3396491 C60.0135549,20.3600715 59.6889013,20.3600715 59.365213,20.3396491 C59.1181955,20.323609 59.044411,20.3933835 59.044411,20.6516291 C59.044411,23.2276692 59.0299749,25.8037093 59.0179449,28.3789474 C59.0179449,28.4687719 59.042005,28.5642105 58.9682206,28.6821053 C58.9209023,28.5914787 58.879198,28.5217043 58.8479198,28.4479198 C57.8069173,26.0130326 56.7669841,23.577878 55.7281203,21.1424561 C55.3832581,20.3324311 55.3904762,20.3348371 54.4858145,20.3404511 C54.2957393,20.3404511 54.2027068,20.3981955 54.1257143,20.5810526 C53.5298246,21.9629073 52.9186967,23.3383459 52.316391,24.7177945 C51.7373434,26.0443108 51.1615038,27.3718964 50.5888722,28.7005514 C50.5824561,28.805614 50.5888722,28.9475689 50.4413033,28.9227068 C50.2937343,28.8978446 50.3562907,28.7510777 50.3562907,28.6548371 C50.3562907,26.0691729 50.3506767,23.4827068 50.3562907,20.8970426 C50.3562907,20.6291729 50.2977444,20.5128822 50.0130326,20.5441604 C49.8048324,20.5600045 49.5955814,20.5554381 49.3882707,20.5305263 C49.7026566,20.4398997 50.0298747,20.5561905 50.3450627,20.4455138 C49.8975439,20.4407018 49.4492231,20.4455138 49.0017043,20.4262657 C48.7907769,20.4174436 48.7266165,20.476792 48.7274185,20.6957393 C48.7359733,23.471746 48.7359733,26.2480201 48.7274185,29.0245614 C48.7274185,29.2394987 48.800401,29.272381 48.9880702,29.2707769 C49.8181454,29.2619549 50.6482206,29.2595489 51.4742857,29.2707769 C51.673985,29.2707769 51.7557895,29.1905764 51.8287719,29.0261654 C52.1142857,28.3717293 52.4174436,27.7245113 52.7053634,27.0708772 C52.7432567,26.9511682 52.8604709,26.8749286 52.9852632,26.8888221 C54.082406,26.8936341 55.1784795,26.8936341 56.2734837,26.8888221 C56.4024109,26.86799 56.5274162,26.9437405 56.5686216,27.0676692 C56.8573434,27.7092732 57.1653133,28.3452632 57.4508271,28.9924812 C57.5390476,29.1945865 57.6449123,29.2699749 57.8742857,29.2683709 C59.6298747,29.2571429 61.3854637,29.2683709 63.1402506,29.2587469 C63.4121303,29.2587469 63.7818546,29.3862657 63.9294236,29.1977945 C64.0625564,29.0245614 63.9582957,28.6716792 63.9783459,28.3965915 Z M55.8837093,25.8229574 C55.0640602,25.8125313 54.244411,25.8229574 53.4247619,25.8181454 C53.3124812,25.8181454 53.1729323,25.8454135 53.2531328,25.6449123 C53.6830075,24.5670175 54.1096742,23.4875188 54.5700251,22.3270175 C54.7424561,22.6991479 54.8908271,23.0055138 55.0271679,23.3158897 C55.362406,24.0625564 55.6904261,24.8124311 56.0304762,25.5615038 C56.1106767,25.7347368 56.1395489,25.8261654 55.8837093,25.8229574 Z" id="Shape" fill="#D82C21"></path>
                        <path d="M8.2077193,23.0303759 C8.2077193,22.5435589 8.21413534,22.0567419 8.2077193,21.5707268 C8.2077193,21.4063158 8.26065163,21.3589975 8.42105263,21.3614035 C9.00330827,21.3694236 9.58556391,21.3686216 10.1670175,21.3614035 C10.4148371,21.3614035 10.5784461,21.4961404 10.720401,21.6685714 C11.2200501,22.2748872 11.3154887,23.4546366 10.9289223,24.1363409 C10.7778832,24.4064037 10.519319,24.5996709 10.2175439,24.6680702 C9.59518797,24.8284712 8.96401003,24.7153885 8.33684211,24.7210025 C8.18446115,24.7210025 8.21253133,24.6079198 8.21172932,24.5180952 C8.2077193,24.0200501 8.2077193,23.526015 8.2077193,23.0303759 Z" id="Shape" fill="#FDFAF9"></path>
                        <path d="M5.99418546,22.083208 C5.74556391,21.3790476 5.29162907,20.8593484 4.52892231,20.6925313 C4.21187216,20.6241576 3.89018803,20.5793899 3.56651629,20.5585965 C2.49824561,20.486416 1.42997494,20.5778446 0.358496241,20.5674185 C0.128320802,20.5674185 0.0745864662,20.647619 0.0761904762,20.8625564 C0.0850125313,22.2259649 0.0810025063,23.5893734 0.0810025063,24.952782 C0.0810025063,26.3362406 0.0858145363,27.7196992 0.0761904762,29.1031579 C0.0761904762,29.3148872 0.126716792,29.3886717 0.344862155,29.3758396 C0.659241779,29.3572802 0.974442432,29.3572802 1.28882206,29.3758396 C1.50616541,29.3886717 1.56230576,29.3180952 1.55989975,29.1047619 C1.54867168,28.16 1.56471178,27.2152381 1.54947368,26.2712782 C1.54546366,26.0090226 1.6160401,25.927218 1.88150376,25.9360401 C2.50065163,25.9568922 3.12140351,26.0010025 3.74055138,25.9416541 C4.57062657,25.8614536 5.32050125,25.604812 5.76561404,24.8396992 C6.28290727,23.9663158 6.32862155,23.0303759 5.99418546,22.083208 Z M4.51849624,24.2606516 C4.34285714,24.6921303 3.98997494,24.9022556 3.56090226,24.9888722 C2.95859649,25.1115789 2.34907268,25.0803008 1.73954887,25.0402005 C1.59037594,25.0305764 1.5526817,24.96 1.55428571,24.8228571 C1.56070175,24.2991479 1.55428571,23.7754386 1.55428571,23.2517293 C1.55428571,22.7472682 1.56471178,22.242005 1.55428571,21.7375439 C1.54786967,21.5210025 1.6,21.437594 1.83498747,21.445614 C2.33864662,21.4640602 2.84390977,21.4504261 3.34917293,21.4504261 C4.05413534,21.4504261 4.43829574,21.7166917 4.63238095,22.3855639 C4.81089745,23.005123 4.77068263,23.6672515 4.51849624,24.2606516 Z" id="Shape" fill="#D72D21"></path>
                        <path d="M18.4854135,5.03097744 C18.4854135,5.03097744 18.6971429,4.07578947 19.1149875,3.80952381 C19.5328321,3.54325815 19.526416,3.97954887 19.6571429,4.18807018 C19.7878697,4.39659148 20.1014536,4.73263158 21.286015,4.50085213 C22.4705764,4.26907268 23.68,3.29784461 24.8364912,4.21854637 C25.9929825,5.13924812 26.401203,5.48170426 26.401203,5.48170426 C26.401203,5.48170426 27.3419549,5.90596491 26.0451128,6.68471178 L24.7474687,7.46426065 C24.7474687,7.46426065 24.9399499,7.71528822 22.077594,6.82265664 C22.077594,6.82265664 20.7326316,7.27338346 20.4888221,7.68641604 C20.2450125,8.09944862 20.2369925,7.63588972 20.2875188,7.38406015 C20.3380451,7.13223058 20.3821554,6.24842105 21.1817544,6.0006015 C21.9813534,5.75278195 23.4610526,5.75358396 24.3488722,6.11368421 C25.2366917,6.47378446 25.0498246,5.86025063 24.9696241,5.81453634 C24.8894236,5.76882206 24.0553383,5.30125313 23.9783459,4.98766917 C23.9013534,4.67408521 22.5307268,4.80160401 22.1168922,4.97002506 C21.7030576,5.13844612 20.5377444,5.4720802 20.5377444,5.4720802 C20.5377444,5.4720802 19.1149875,6.18666667 18.4854135,5.03097744 Z" id="Shape" fill="#EC2227" fill-rule="nonzero"></path>
                        <path d="M27.3251128,3.70125313 C27.3251128,3.70125313 26.2191479,3.01233083 26.4934336,4.13032581 C26.4934336,4.13032581 26.243208,5.71027569 27.8007018,5.44802005 C29.3581955,5.18576441 35.2352882,4.82807018 36.0084211,6.0647619 L36.7302256,6.89884712 L37.2114286,5.25954887 C37.2114286,5.25954887 37.1055639,4.63398496 36.5393484,4.41503759 C35.9731328,4.19609023 31.6968421,3.57774436 29.8714787,4.34045113 C28.0461153,5.10315789 27.7493734,4.39578947 27.3251128,3.70125313 Z" id="Shape" fill="#EC2227" fill-rule="nonzero"></path>
                        <path d="M42.1830576,8.46115288 C42.1830576,8.46115288 42.4629574,8.49483709 42.3434586,7.91498747 C42.2239599,7.33513784 41.6216541,6.25964912 40.7899749,7.34636591 C39.9582957,8.43308271 39.1105764,12.0372932 39.1105764,12.0372932 C39.1105764,12.0372932 38.7392481,13.4560401 39.2236591,14.2772932 C39.2236591,14.2772932 40.2598496,8.64481203 41.6553383,8.35448622 C41.6569424,8.35288221 42.0026065,8.33443609 42.1830576,8.46115288 Z" id="Shape" fill="#4B4B4D" fill-rule="nonzero"></path>
                        <path d="M32.794787,7.0873183 C32.794787,7.0873183 31.1570927,7.1354386 30.723208,7.61343358 C30.2893233,8.09142857 29.279599,7.33192982 30.2772932,6.9116792 C31.2749875,6.49142857 32.2526316,6.71197995 32.5421554,6.79619048 C32.8316792,6.880401 33.1653133,6.98065163 33.1653133,6.98065163 C33.1653133,6.98065163 33.3024561,7.04962406 32.794787,7.0873183 Z" id="Shape" fill="#4B4B4D" fill-rule="nonzero"></path>
                        <path d="M34.2728822,13.6332832 C34.2728822,13.6332832 34.6899248,13.3710276 34.404411,13.1897744 C34.1188972,13.0085213 34.0330827,13.2699749 33.923208,13.2539348 C33.7748371,13.2346867 33.6745865,13.1921805 33.6184461,13.0542356 C33.5623058,12.9162907 33.3176942,12.9251128 33.2334837,13.0406015 C33.1492732,13.1560902 32.5469674,13.3670175 32.4314787,13.3614035 C32.31599,13.3557895 31.9117794,13.3285213 31.9117794,13.3285213 C31.9964016,13.4982672 32.1631397,13.6118556 32.3520802,13.6284712 C32.6640602,13.6477193 33.0947368,13.3878697 33.286416,13.4784962 C33.5937422,13.6231304 33.9360272,13.6768386 34.2728822,13.6332832 Z" id="Shape" fill="#4B4B4D" fill-rule="nonzero"></path>
                        <path d="M34.1926817,14.0527318 C34.1926817,14.0527318 33.5799499,14.241203 33.1027569,14.0527318 C32.6255639,13.8642607 32.7121805,14.0711779 32.7675188,14.2131328 C32.8228571,14.3550877 33.6497243,14.6678697 33.8831078,14.5427569 C34.1164912,14.4176441 34.5030576,14.1618045 34.1926817,14.0527318 Z" id="Shape" fill="#4B4B4D" fill-rule="nonzero"></path>
                        <path d="M36.7518797,10.0138346 C36.8753885,9.55588972 37.4175439,9.40110276 37.1761404,10.3001504 C36.9347368,11.199198 36.7687218,12.8216541 34.7083709,15.6062155 C34.7083709,15.6062155 33.8847118,16.9134837 33.0305764,16.6857143 C32.1764411,16.4579449 29.5121805,15.9093734 29.2435088,14.8362907 C29.2435088,14.8362907 29.0141353,14.2837093 29.6797995,14.8202506 C30.3454637,15.356792 32.1980952,16.2446115 32.9495739,16.0304762 C33.7010526,15.8163409 34.4645614,16.0184461 35.4117293,13.8017043 C36.3588972,11.5849624 36.5000501,10.9425564 36.7518797,10.0138346 Z" id="Shape" fill="#4B4B4D" fill-rule="nonzero"></path>
                        <path d="M27.0243609,11.3427569 C27.0243609,11.3427569 26.9505764,12.002807 26.717193,11.3980952 C26.717193,11.3980952 26.23599,10.0050125 26.2271679,9.45243108 C26.2183459,8.89984962 26.0122306,7.72170426 26.5736341,8.27588972 C27.1350376,8.83007519 26.7949875,9.4083208 26.7949875,10.0635589 C26.8062259,10.4991134 26.883566,10.9304332 27.0243609,11.3427569 Z" id="Shape" fill="#4B4B4D" fill-rule="nonzero"></path>
                        <path d="M26.8246617,13.4897243 C26.7035589,13.1576942 26.3530827,12.7735338 25.8815038,12.4559398 C25.921604,11.997995 25.9280201,11.6483208 25.8815038,11.4935338 C25.6954386,10.8326817 25.5358396,10.5503759 25.5358396,10.5503759 C25.5358396,10.5503759 25.3104762,11.0516291 25.0682707,12.0429073 C24.8593155,11.9609072 24.6428011,11.8996599 24.4218546,11.8600501 C23.2677694,11.6619549 24.1379449,12.8224561 24.1379449,12.8224561 C24.3914146,12.7797202 24.6491021,12.7676033 24.9054637,12.7863659 C24.744229,13.6236438 24.6317589,14.4695795 24.5686216,15.3198997 C24.4082206,15.3896742 24.2414035,15.4658647 24.0593484,15.5556892 C22.2708772,16.4322807 23.3279198,17.6176441 23.3976942,17.9296241 C23.4674687,18.241604 23.8564411,18.2833083 23.9334336,18.0900251 C24.0104261,17.8967419 23.8532331,17.3882707 23.9045614,16.6504261 C23.9254135,16.3472682 24.1796491,16.1178947 24.5301253,15.9149875 C24.4948371,16.5461654 24.475589,17.2230576 24.486817,17.9625063 C24.486817,17.9625063 24.6720802,19.3026566 25.0225564,17.7090727 C25.1428571,17.1653133 25.3024561,16.3456642 25.4548371,15.4746867 C25.7227905,15.3613845 25.9834137,15.2314747 26.235188,15.0857143 C27.0885213,14.562807 27.0548371,14.1152882 26.8246617,13.4897243 Z M25.5414536,14.9164912 C25.6473183,14.2796992 25.7427569,13.6453133 25.8101253,13.0903258 C26.0004264,13.2397315 26.1316894,13.4516844 26.1806516,13.6886216 C26.3578947,14.4649624 26.1726316,14.6542356 25.5446617,14.9164912 L25.5414536,14.9164912 Z" id="Shape" fill="#4B4B4D" fill-rule="nonzero"></path>
                        <path d="M25.6601504,9.0722807 C25.6601504,9.0722807 25.4740852,10.1100752 24.5774436,10.7645113 C24.5774436,10.7645113 23.7425564,11.0933333 24.4234586,10.0362907 C24.8557393,9.65854637 25.1396491,9.68180451 25.4011028,9.20701754 C25.6625564,8.73223058 25.6601504,9.0722807 25.6601504,9.0722807 Z" id="Shape" fill="#4B4B4D" fill-rule="nonzero"></path>
                        <path d="M32.5742356,8.12030075 C32.7337533,8.13087346 32.8917699,8.15774702 33.0458145,8.20050125 C33.0458145,7.95989975 33.1588972,8.0641604 32.5132832,7.8724812 C31.8676692,7.68080201 31.0696742,7.6639599 30.8226566,8.25503759 C30.5756391,8.84611529 31.1851629,8.66726817 31.1851629,8.66726817 C31.289808,8.51419715 31.4284203,8.38738745 31.5901754,8.29674185 C31.6479198,8.26466165 31.678396,8.30075188 31.6415038,8.35528822 C31.4578446,8.62636591 31.5524812,8.83649123 31.7602005,8.9752381 C31.9679198,9.11398496 32.2061153,9.13162907 32.3897744,8.85974937 C32.5148417,8.6910968 32.5473451,8.47109705 32.476391,8.27348371 C32.4491228,8.21413534 32.4980451,8.11388471 32.5742356,8.12030075 Z" id="Shape" fill="#4B4B4D" fill-rule="nonzero"></path>
                        <path d="M36.6203509,8.00320802 C36.8224561,7.94385965 36.9411529,7.82917293 36.4936341,7.69764411 C36.0461153,7.56611529 34.7460652,8.02887218 34.8342857,10.3570927 C34.9225063,12.6853133 34.1974937,12.1808521 33.5326316,12.1303258 C33.1556892,12.0918296 32.6616541,11.7998997 32.8741855,12.2265664 C33.0867168,12.6532331 33.4989474,12.4118296 33.4989474,12.4118296 C33.4989474,12.4118296 33.9480702,12.4479198 34.4878195,12.4615539 C35.0275689,12.475188 35.2641604,11.1157895 35.3259148,10.0908271 C35.3307268,9.71789474 35.3379449,9.26556391 35.4197494,9.01293233 C35.4675732,9.12849524 35.560882,9.21925989 35.6777224,9.2638717 C35.7945629,9.30848352 35.9246195,9.30300381 36.0372932,9.2487218 C36.2642607,9.14847118 36.3580952,8.91428571 36.2273684,8.61513784 C36.1471679,8.43629073 36.1383459,8.38255639 35.994787,8.32802005 C36.3356391,7.9847619 36.6203509,8.00320802 36.6203509,8.00320802 Z" id="Shape" fill="#4B4B4D" fill-rule="nonzero"></path>
                        <path d="M37.3638095,16.2943358 C37.3638095,16.2943358 37.5242105,14.4497243 38.4697744,15.5067669 C38.4697744,15.5067669 38.8435088,15.9639098 38.566015,16 C38.2885213,16.0360902 38.0543358,15.9197995 37.8201504,16.6720802 C37.5859649,17.4243609 37.3782456,18.2111278 36.9283208,18.8310777 C36.6400362,19.2353823 36.3887934,19.664857 36.1776441,20.1142857 C36.1776441,20.1142857 35.6916291,20.5521805 35.84,19.7237093 C35.9883709,18.8952381 36.321203,18.0258647 37.0365915,17.7275188 C37.7519799,17.4291729 37.3638095,16.2943358 37.3638095,16.2943358 Z" id="Shape" fill="#4B4B4D" fill-rule="nonzero"></path>
                        <path d="M39.3503759,17.8526316 C39.3503759,17.8526316 38.2612531,18.6666667 38.3767419,19.2593484 C38.4922306,19.8520301 37.5177945,18.885614 37.7904762,18.4573434 C38.0631579,18.0290727 39.1330326,17.5238095 39.3503759,17.8526316 Z" id="Shape" fill="#4B4B4D" fill-rule="nonzero"></path>
                        <path d="M39.3864662,16.7482707 C39.3864662,16.7482707 38.9742356,17.280802 38.8250627,17.2623559 C38.6758897,17.2439098 38.4938346,16.9704261 38.6815038,16.6616541 C38.8691729,16.3528822 39.2765915,16.4491228 39.363208,16.4026065 C39.4498246,16.3560902 39.4289724,16.5918797 39.4289724,16.5918797 L39.3864662,16.7482707 Z" id="Shape" fill="#4B4B4D" fill-rule="nonzero"></path>
                        <path d="M37.1103759,2.56962406 C37.1103759,2.56962406 37.121604,3.71328321 36.2859148,2.95619048 L36.0910276,2.00100251 C36.0910276,2.00100251 36.0717794,1.38987469 36.3853634,1.77243108 C36.6989474,2.15498747 37.1103759,2.56962406 37.1103759,2.56962406 Z" id="Shape" fill="#4B4B4D" fill-rule="nonzero"></path>
                        <path d="M34.727619,2.51989975 C34.727619,2.51989975 35.2890226,3.10055138 35.2489223,2.06917293 C35.2088221,1.03779449 34.5840602,1.19258145 34.1004511,0.903859649 C33.8065825,0.72803682 33.5302326,0.524467093 33.275188,0.29593985 C33.275188,0.29593985 32.159599,-0.216541353 32.963208,0.682506266 C33.766817,1.58155388 34.6875188,1.85263158 34.727619,2.51989975 Z" id="Shape" fill="#4B4B4D" fill-rule="nonzero"></path>
                        <path d="M33.2551378,2.78616541 C33.2551378,2.78616541 33.2551378,3.39087719 32.6552381,2.99629073 C32.0553383,2.60170426 31.203609,1.71869674 30.9589975,1.64411028 C30.714386,1.56952381 29.1103759,1.09233083 28.9235088,0.905463659 C28.7366416,0.718596491 27.9611028,-0.259047619 28.9387469,0.198095238 C29.1390754,0.284538672 29.3518414,0.338677582 29.5691228,0.358496241 C29.8682707,0.251829574 30.0503258,0.135538847 30.7897744,0.98566416 C31.1787469,1.3914787 31.4466165,1.46686717 31.8532331,1.32491228 C32.2598496,1.18295739 32.641604,1.33132832 32.9928822,2.16701754 C33.3441604,3.00270677 33.2551378,2.78616541 33.2551378,2.78616541 Z" id="Shape" fill="#4B4B4D" fill-rule="nonzero"></path>
                    </g>
                </g>
            </g>
        </g>
    </g>
</svg>