<?xml version="1.0" encoding="UTF-8" standalone="no"?>
<svg width="64px" height="14px" viewBox="0 0 64 14" version="1.1" xmlns="http://www.w3.org/2000/svg" xmlns:xlink="http://www.w3.org/1999/xlink">
    <!-- Generator: Sketch 49 (51002) - http://www.bohemiancoding.com/sketch -->
    <title>lazada-seeklogo.com 2</title>
    <desc>Created with Sketch.</desc>
    <defs></defs>
    <g id="Homepage" stroke="none" stroke-width="1" fill="none" fill-rule="evenodd">
        <g id="Visual---123Credit---BrandPopup" transform="translate(-517.000000, -318.000000)" fill="#01192B">
            <g id="Popup" transform="translate(458.000000, 195.000000)">
                <g id="Group-21" transform="translate(48.000000, 89.000000)">
                    <g id="lazada-seeklogo.com-2" transform="translate(11.000000, 34.000000)">
                        <path d="M0,0.06402688 L1.01544698,0.06402688 L1.01544698,12.0861069 L6.49334912,12.0861069 L6.01405741,13.1015501 C4.00945101,13.1015501 2.00468582,13.1015501 0,13.1015501 L0,0.06402688 Z" id="path4728"></path>
                        <path d="M13.7304538,0.06402688 L12.7150067,0.06402688 L7.03974976,13.1015501 L8.0551968,13.1015501 L9.53214464,9.70854912 C9.70789888,9.37348224 10.1150784,9.07042048 10.6606048,8.80635392 C11.5248384,8.38789696 12.7316058,8.12899136 14.0755277,8.12899136 C15.264743,8.12899136 16.9359501,8.3615296 18.0136608,9.10750912 L18.6437683,8.31133696 C18.4324358,8.15877376 18.1939411,8.01812352 17.9319392,7.89137152 C17.6424582,7.75119744 17.3219245,7.6266688 16.9761357,7.5204064 L13.7304538,0.06402688 Z M10.34976,7.83006016 L13.2225715,1.23044864 L15.8452141,7.25530752 C15.288807,7.16143424 14.6933254,7.11052672 14.075369,7.11052672 C12.6443238,7.11052672 11.3332813,7.38388608 10.34976,7.83006016 Z M16.6213722,9.03801792 C16.8514483,9.11306816 17.0641312,9.19764928 17.2565626,9.29072832 C17.3515475,9.33671168 17.433031,9.37935936 17.5001402,9.41787712 C17.5693133,9.45766592 17.6390432,9.50190208 17.7082957,9.54979136 L17.9249504,9.6996544 L19.4057907,13.1014733 L18.3903437,13.1014733 L16.6213722,9.03801792 Z" id="path4730"></path>
                        <path d="M35.3294694,0.06402688 L34.314023,0.06402688 L28.6387654,13.1015501 L29.6542125,13.1015501 L31.131241,9.70854912 C31.3069946,9.37348224 31.7140941,9.07042048 32.2597011,8.80635392 C33.1239341,8.38789696 34.3307014,8.12899136 35.674544,8.12899136 C36.8637587,8.12899136 38.5349664,8.3615296 39.6127565,9.10750912 L40.242864,8.31133696 C40.0315315,8.15877376 39.7931162,8.01812352 39.5310349,7.89137152 C39.2414746,7.75119744 38.9210195,7.6266688 38.5752314,7.5204064 L35.3294694,0.06402688 Z M31.9488563,7.83006016 L34.8217459,1.23044864 L37.4443891,7.25530752 C36.8879021,7.16143424 36.2924211,7.11052672 35.674544,7.11052672 C34.2433402,7.11052672 32.9322976,7.38388608 31.9488563,7.83006016 Z M38.2204678,9.03801792 C38.450464,9.11306816 38.6631475,9.19764928 38.8555789,9.29072832 C38.9505632,9.33671168 39.0321267,9.37935936 39.0991565,9.41787712 C39.1682502,9.45766592 39.2380595,9.50190208 39.307312,9.54979136 L39.5239667,9.6996544 L41.0048064,13.1014733 L39.9893594,13.1014733 L38.2204678,9.03801792 Z" id="path4732"></path>
                        <path d="M58.3247424,0.06402688 L57.3092954,0.06402688 L51.6340384,13.1015501 L52.6494854,13.1015501 L54.1265133,9.70854912 C54.3022669,9.37348224 54.7094464,9.07042048 55.2549728,8.80635392 C56.119207,8.38789696 57.3259738,8.12899136 58.669817,8.12899136 C59.859111,8.12899136 61.5303174,8.3615296 62.6080288,9.10750912 L63.238137,8.31133696 C63.0268038,8.15877376 62.7883891,8.01812352 62.5263072,7.89137152 C62.2368262,7.75119744 61.9162925,7.6266688 61.570583,7.5204064 L58.3247424,0.06402688 Z M54.944128,7.83006016 L57.8170189,1.23044864 L60.4396614,7.25530752 C59.8832544,7.16143424 59.2876941,7.11052672 58.669817,7.11052672 C57.2386131,7.11052672 55.9275693,7.38388608 54.944128,7.83006016 Z M61.2156614,9.03801792 C61.4456576,9.11306816 61.6584198,9.19764928 61.8508518,9.29072832 C61.9458362,9.33671168 62.0273197,9.37935936 62.0943488,9.41787712 C62.1635226,9.45766592 62.2332525,9.50190208 62.3025056,9.54979136 L62.5191597,9.6996544 L64,13.1014733 L62.984553,13.1014733 L61.2156614,9.03801792 Z" id="path4734"></path>
                        <polygon id="polygon4736" points="20.698646 1.07947407 20.2193544 0.0640271341 28.5027996 0.0640271341 28.5027996 1.07947407 21.5648652 12.0861056 28.0939524 12.0861056 27.6147402 13.1015525 20.5128857 13.1015525 20.2732796 12.5242583 27.2476672 1.07947407"></polygon>
                        <path d="M42.0876806,6.58286912 L42.0876806,0.06410624 L44.7363718,0.06410624 C46.6443258,0.06410624 48.0308928,0.22143488 48.8931418,0.53315328 C50.1315962,0.97797696 51.1004243,1.74365248 51.7967667,2.83915328 C52.4678547,3.89208576 52.8166611,5.13911808 52.8410426,6.58286912 C52.8165818,8.02654144 52.4678547,9.27357376 51.7967667,10.3265869 C51.1004243,11.4220045 50.1315962,12.1878413 48.8931418,12.6325837 C48.0309722,12.9443853 46.6444051,13.1016333 44.7363718,13.1016333 L42.0876806,13.1016333 L42.0876806,6.58286912 Z M43.0870842,12.1452749 L44.6424192,12.1452749 C46.5009754,12.1452749 47.7872371,12.0232845 48.5066899,11.7795469 C49.5175309,11.4302669 50.3161645,10.8081037 50.8944122,9.90479488 C51.4739302,8.99918208 51.8826189,7.89486592 51.8826189,6.59001664 C51.8826189,5.285248 51.4739302,4.18085248 50.8944122,3.27532032 C50.3161645,2.37201216 49.5174515,1.74984704 48.5066899,1.4005632 C47.7871571,1.15674816 46.5009754,1.0347616 44.6424192,1.0347616 L43.0870842,1.0347616 L43.0870842,12.1452749 Z" id="path4738"></path>
                    </g>
                </g>
            </g>
        </g>
    </g>
</svg>