<?xml version="1.0" encoding="UTF-8" standalone="no"?>
<svg width="64px" height="29px" viewBox="0 0 64 29" version="1.1" xmlns="http://www.w3.org/2000/svg" xmlns:xlink="http://www.w3.org/1999/xlink">
    <!-- Generator: Sketch 49 (51002) - http://www.bohemiancoding.com/sketch -->
    <title>alibaba-com</title>
    <desc>Created with Sketch.</desc>
    <defs></defs>
    <g id="Homepage" stroke="none" stroke-width="1" fill="none" fill-rule="evenodd">
        <g id="Visual---123Credit---BrandPopup" transform="translate(-818.000000, -409.000000)" fill-rule="nonzero">
            <g id="Popup" transform="translate(458.000000, 195.000000)">
                <g id="Group-22-Copy-4" transform="translate(350.000000, 187.000000)">
                    <g id="alibaba-com" transform="translate(10.000000, 27.000000)">
                        <path d="M19.7707608,15.1111111 C19.6163714,15.0776821 19.3934907,14.9628608 19.222073,14.8309616 C17.6619077,13.398965 19.6504279,11.7198845 21.9477269,10.7489901 L21.9477269,7.98346718 C22.4964147,8.29631901 22.7703802,8.32902129 22.8048151,8.37843807 L24.5534264,6.69935759 L23.9703037,5.28371216 C29.1132111,3.57192941 31.187251,2.91352347 35.3697656,2.23840304 L34.6159821,1.5799971 L35.8503404,0.888888889 C38.6618923,1.79437873 41.28462,2.02474813 40.8392369,4.28011548 C40.958813,2.76563649 38.9869426,2.17299848 35.9362384,1.34999106 L35.370144,1.69554517 L36.4845478,2.58432051 C31.4790015,3.42404242 28.3934841,4.3458834 24.7418722,5.56386171 L25.2220686,6.8145423 L23.4045876,8.54303955 C23.7133664,8.62552197 26.9018101,9.66254766 30.2446432,7.42389481 C30.2616714,7.40754367 30.3131346,7.39082917 30.3131346,7.35776353 C30.1931801,7.19316204 29.9873275,7.0449117 29.713362,6.7978278 C30.6733765,6.86395908 31.3075839,7.68660314 31.1876294,8.54267619 L30.7418678,8.54267619 C30.793331,8.27924115 30.7248396,7.96675268 30.6048851,7.76908556 C28.0506488,9.57970188 25.050651,9.84313692 22.4964147,8.98742722 L22.4964147,11.1272465 C21.2446498,11.5385685 19.0336272,12.8557438 19.0506554,14.1231389 C19.136175,14.732128 19.461982,14.9465096 19.7707608,15.1111111 Z" id="Shape" fill="#000000"></path>
                        <path d="M29.6906793,15.2108594 C26.966846,16.6372926 24.3613915,17.7545389 20.3014085,17.9093221 C15.073695,17.8057539 14.2618478,14.265468 16.74855,10.5703988 C19.0828909,6.84118635 22.8052888,3.45530421 28.7429018,1.34145152 C30.4345614,0.739769834 32.9896022,0.0182070526 35.4087127,0.000756007399 C38.9104107,-0.0333873419 42.3105344,1.08347955 42.0913281,4.46936169 C41.9725759,7.08170728 38.2681028,10.7767764 36.3221342,13.4236447 C35.475931,14.5754137 35.341121,15.3140482 36.7620404,15.2620744 C41.9221622,14.9191234 46.6420044,13.0970067 50.973101,11.2066032 C48.0629238,13.2172671 32.8040051,20.8991414 32.7192354,15.6577579 C32.73604,15.0048612 33.0575673,14.2999907 33.5478872,13.5609769 C34.0385805,12.821963 34.7156177,12.0313548 35.4090861,11.2236749 C36.4412599,10.0206909 39.0119849,7.13330167 39.8749927,5.39768142 C41.3298946,2.13243911 38.0645809,1.96020489 35.2567247,0.946526782 L34.0385805,1.66808956 L34.765658,2.355509 C30.6548879,3.0600001 28.6077184,3.74741953 23.5323663,5.53501355 L24.1078293,7.01304121 L22.3821872,8.76611251 C22.3482046,8.71451811 22.0778378,8.68037476 21.5363574,8.35373672 L21.5363574,11.241126 C19.2696082,12.2548041 17.306835,14.0078754 18.8465066,15.5029747 C19.0156726,15.6406862 19.2356257,15.7609467 19.3879871,15.7954694 L19.3708091,15.7954694 C22.1626075,17.3937575 29.7074839,15.2108594 29.6906793,15.2108594 Z M12.299448,22.8073752 L12.299448,21.4670591 L14.2282387,21.4670591 L14.2282387,22.8073752 L12.299448,22.8073752 Z M12.3842177,28.3238023 L12.3842177,23.5467684 L14.1774515,23.5467684 L14.1774515,28.3238023 L12.3842177,28.3238023 Z M52.6987432,24.113548 C53.6461472,24.113548 54.4243853,24.9041562 54.4243853,25.8666193 C54.4252798,26.3318407 54.2437589,26.7782694 53.9199441,27.1072313 C53.5961293,27.4361931 53.1566855,27.6205993 52.6987432,27.6196906 C52.2399139,27.6235718 51.7987668,27.4401203 51.4743143,27.1105105 C51.1498617,26.7809008 50.9692806,26.3327417 50.973101,25.8666193 C50.9722065,25.4013979 51.1537274,24.9549692 51.4775422,24.6260073 C51.801357,24.2970455 52.2408008,24.1126393 52.6987432,24.113548 Z M52.6987432,28.4444422 C54.0860534,28.4444422 55.2194279,27.2930526 55.2194279,25.8666193 C55.2194279,24.4572577 54.0860534,23.3058681 52.6987432,23.3058681 C51.2946284,23.3058681 50.1612538,24.4572577 50.1612538,25.8666193 C50.1603603,26.5505783 50.4274152,27.2067852 50.9034806,27.6904176 C51.379546,28.1740501 52.0254856,28.4453499 52.6987432,28.4444422 Z M43.4790118,28.3238023 L44.2740545,28.3238023 L44.2740545,27.5851679 L43.4790118,27.5851679 L43.4790118,28.3238023 Z M49.5181991,27.7058077 C49.2642635,27.9288776 48.739961,28.4444422 47.7589478,28.4444422 C46.4732119,28.4444422 45.2382631,27.4129337 45.2382631,25.8666193 C45.2382631,24.3373766 46.4732119,23.3058681 47.7589478,23.3058681 C48.6895473,23.3058681 49.2642635,23.8214327 49.5181991,24.0445026 C49.3658377,24.2505008 49.2306543,24.6803276 49.1630626,24.8692541 C48.6895473,24.2163574 48.1140843,24.113548 47.7589478,24.113548 C46.8115438,24.113548 46.0333057,24.9212279 46.0333057,25.8666193 C46.0333057,26.8290824 46.8115438,27.6367623 47.7589478,27.6367623 C48.2832503,27.6367623 48.7911216,27.395862 49.1798672,26.8802974 C49.2978726,27.3101242 49.4334294,27.5510245 49.5181991,27.7058077 Z M56.3528025,28.3238023 L56.3528025,23.5467684 L57.0630755,23.5467684 L57.0630755,24.2167368 C57.2120854,23.9816033 57.4154072,23.7870314 57.655343,23.6499572 C57.9133133,23.5015137 58.2050722,23.4243408 58.5015463,23.4261286 C58.8398782,23.4261286 59.1274229,23.5122457 59.3470026,23.6499572 C59.5673291,23.8039816 59.7364951,24.0107386 59.8212648,24.2687106 C60.1932058,23.7182439 60.6842726,23.4261286 61.2761667,23.4261286 C61.7328774,23.4261286 62.1048185,23.5638401 62.3419496,23.8218121 C62.5958852,24.0968557 62.7306952,24.4917804 62.7306952,25.0414884 L62.7306952,28.3238023 L61.9356525,28.3238023 L61.9356525,25.3169114 C61.9356525,24.9902733 61.9020434,24.749373 61.8508828,24.6124203 C61.8018463,24.4698447 61.7063214,24.3485741 61.5801426,24.2687106 C61.4325651,24.176878 61.2625019,24.1291503 61.0894493,24.130999 C60.7686688,24.130999 60.4979286,24.2508801 60.2776021,24.4747088 C60.0572756,24.6985374 59.9392702,25.0593188 59.9392702,25.5403606 L59.9392702,28.3241817 L59.1442275,28.3241817 L59.1442275,25.2137226 C59.1442275,24.8529412 59.0762624,24.5778976 58.958257,24.4060427 C58.8227002,24.2341878 58.6031205,24.130999 58.3148289,24.130999 C58.0952492,24.130999 57.8924741,24.2000445 57.689699,24.3199256 C57.5029816,24.4405654 57.3681717,24.6124203 57.283402,24.8354902 C57.1986323,25.0763905 57.1478452,25.4030285 57.1478452,25.849927 L57.1478452,28.3238023 L56.3528025,28.3238023 Z M62.4263458,22.4981882 L62.4263458,21.5869402 L62.0880139,21.5869402 L62.0880139,21.4670591 L62.8998611,21.4670591 L62.8998611,21.5869402 L62.5611558,21.5869402 L62.5611558,22.4981882 L62.4263458,22.4981882 Z M63.0186134,22.4981882 L63.0186134,21.4666797 L63.2213885,21.4666797 L63.4753241,22.2053142 C63.4921287,22.2743596 63.5089333,22.325954 63.5257378,22.3600973 C63.5257378,22.325954 63.5432893,22.2572879 63.5768984,22.1882425 L63.8140295,21.4666797 L64,21.4666797 L64,22.4981882 L63.8644432,22.4981882 L63.8644432,21.6385346 L63.5768984,22.4981882 L63.4420884,22.4981882 L63.1541702,21.6214629 L63.1541702,22.4981882 L63.0186134,22.4981882 Z M40.1121238,27.6196906 C39.9261533,27.8769038 39.6378616,28.0836608 39.2659206,28.2206136 C39.1840961,28.2572801 39.0990824,28.2861108 39.0119849,28.3067307 C38.6904576,28.3936065 38.3353211,28.4273705 37.9297709,28.4273705 C37.3375034,28.4273705 36.8807926,28.3067307 36.5592653,28.0495174 C36.2209334,27.8086171 36.068572,27.4478357 36.068572,26.9838656 C36.068572,26.6913709 36.1365371,26.4333989 36.2545425,26.210329 C36.3732947,25.9865004 36.5592653,25.7975739 36.7963964,25.6427907 C36.9823669,25.5229096 37.2531071,25.4367925 37.591439,25.3848187 C37.8954149,25.3506754 38.3696771,25.316532 39.0123584,25.316532 L40.0777678,25.316532 L40.0777678,25.2474866 L40.0777678,25.1784411 C40.0777678,24.9204692 40.0105495,24.7315426 39.8581881,24.5938311 C39.7058267,24.4568783 39.4862471,24.3878329 39.1979554,24.3878329 L39.0119849,24.3878329 C38.7748538,24.4049046 38.6056879,24.4568783 38.4708779,24.5255444 C38.3185165,24.6116615 38.2169423,24.765686 38.1833331,24.9553712 L36.3729213,24.9553712 C36.423335,24.4398067 36.6944487,24.0611949 37.1511594,23.8032229 C37.574261,23.580153 38.2001377,23.4595132 39.0116115,23.4424415 C39.0795766,23.4253698 39.1471683,23.4253698 39.231938,23.4253698 C40.1113769,23.4253698 40.7716096,23.580153 41.1771598,23.8722683 C41.6002614,24.1818347 41.8198411,24.6287332 41.8198411,25.2645582 L41.8198411,27.6875979 C41.8198411,27.8253094 41.8198411,27.9455699 41.8373925,28.0313076 C41.8541971,28.1348758 41.8710016,28.2380646 41.9053576,28.323423 L40.2301292,28.323423 C40.1917301,28.2293898 40.1633128,28.1314642 40.1453595,28.0313076 C40.1249836,27.9238605 40.1137392,27.8148326 40.1117504,27.7054283 L40.1117504,27.6196906 L40.1121238,27.6196906 Z M39.0123584,27.395862 C39.3170811,27.3617186 39.5710168,27.2759809 39.7569873,27.1037467 C39.9597624,26.9318918 40.0777678,26.6568482 40.0777678,26.2960668 L40.0777678,26.1932573 L39.9261533,26.1932573 C39.5710168,26.1932573 39.2659206,26.1932573 39.0123584,26.2274007 C38.7940172,26.2397121 38.5780812,26.2799912 38.3696771,26.3472818 C38.0817589,26.4500912 37.9465755,26.6223254 37.9465755,26.8628464 C37.9465755,27.0347012 38.0145406,27.1724127 38.1661551,27.2585298 C38.3185165,27.3438882 38.5388431,27.3954826 38.842819,27.3954826 L39.0123584,27.395862 Z M33.5990477,25.7979532 C33.5990477,25.3681264 33.4810423,25.0244167 33.2439113,24.7664447 C33.0067802,24.5084727 32.7028043,24.3885917 32.3133118,24.3885917 L32.2965072,24.3885917 C31.8734056,24.3885917 31.5518783,24.5084727 31.3319252,24.7664447 C31.1119721,25.007345 30.9935933,25.3851981 30.9935933,25.8666193 C30.9935933,26.3305895 31.1119721,26.6913709 31.3319252,26.9493428 C31.5683094,27.2073148 31.8734056,27.3271959 32.2797027,27.3271959 L32.2965072,27.3271959 C32.7028043,27.3271959 33.0235847,27.1902431 33.2439113,26.9322712 C33.4806689,26.6572275 33.5990477,26.2786157 33.5990477,25.7979532 Z M32.2961338,23.5118663 C32.5157134,23.4428209 32.7696491,23.4257492 33.0232113,23.4257492 C33.7678403,23.4257492 34.3601078,23.6495778 34.7824626,24.0964763 C35.2231156,24.5263032 35.4426953,25.1279848 35.4426953,25.9007627 C35.4426953,26.6913709 35.2231156,27.3101242 34.8168186,27.7570227 C34.393717,28.2039212 33.8014494,28.4277499 33.0575673,28.4277499 C32.7860802,28.4277499 32.532518,28.3936065 32.2961338,28.3241817 C32.1600496,28.2909519 32.0290264,28.2391389 31.9066413,28.1701573 C31.5515048,27.9983024 31.26396,27.7574021 31.0100244,27.4315228 L31.0100244,27.5684756 C31.0100244,27.7061871 31.0100244,27.8264476 30.9932198,27.9463286 C30.9932198,28.0669685 30.9764153,28.2043006 30.9596107,28.3241817 L29.1491989,28.3241817 C29.1660034,28.1181835 29.1831814,27.929257 29.199986,27.7574021 C29.2164171,27.5684756 29.2164171,27.3966207 29.2164171,27.2425963 L29.2164171,21.4674384 L31.009651,21.4674384 L31.009651,24.2341878 C31.2803912,23.9591442 31.5854874,23.753146 31.9230724,23.6325061 C32.0425716,23.5809118 32.160577,23.528938 32.2961338,23.5118663 Z M26.2901822,27.6196906 C26.0874071,27.8769038 25.8162934,28.0836608 25.4275478,28.2206136 C25.3477476,28.2623714 25.2621018,28.2914164 25.1736122,28.3067307 C24.8692628,28.3936065 24.4969483,28.4273705 24.1078293,28.4273705 C23.5155617,28.4273705 23.0420464,28.3067307 22.7205191,28.0495174 C22.3989917,27.8086171 22.2298258,27.4478357 22.2298258,26.9838656 C22.2298258,26.6913709 22.2974175,26.4333989 22.4329743,26.210329 C22.5513531,25.9865004 22.7373236,25.7975739 22.9740813,25.6427907 C23.1604252,25.5229096 23.4139875,25.4367925 23.7523194,25.3848187 C24.0738467,25.3506754 24.547362,25.316532 25.1736122,25.316532 L26.239395,25.316532 C26.239395,25.2987016 26.239395,25.2645582 26.256573,25.2474866 L26.256573,25.1784411 C26.256573,24.9204692 26.1718033,24.7315426 26.0366199,24.5938311 C25.8842586,24.4568783 25.6643055,24.3878329 25.3771341,24.3878329 L25.1739856,24.3878329 C24.9540325,24.4049046 24.768062,24.4568783 24.6496832,24.5255444 C24.4805172,24.6116615 24.3957475,24.765686 24.3617649,24.9553712 L22.5345486,24.9553712 C22.6025137,24.4398067 22.8560759,24.0611949 23.3295912,23.8032229 C23.7523194,23.580153 24.3613915,23.4595132 25.1736122,23.4424415 C25.2583819,23.4253698 25.3256001,23.4253698 25.3935653,23.4253698 C26.2901822,23.4253698 26.9328634,23.580153 27.355965,23.8722683 C27.7790666,24.1818347 27.9822152,24.6287332 27.9822152,25.2645582 L27.9822152,27.6875979 C27.9822152,27.8253094 27.9990197,27.9455699 27.9990197,28.0313076 C28.0158243,28.1348758 28.0498069,28.2380646 28.0837894,28.323423 L26.4089344,28.323423 C26.3585207,28.2380646 26.3413427,28.1352552 26.3245382,28.0313076 C26.3077336,27.9284982 26.2905556,27.8253094 26.2905556,27.7054283 L26.2905556,27.6196906 L26.2901822,27.6196906 Z M25.1739856,27.395862 C25.4951395,27.3617186 25.7490752,27.2759809 25.9186146,27.1037467 C26.1381942,26.9318918 26.2397685,26.6568482 26.2397685,26.2960668 L26.2397685,26.1932573 L26.1045851,26.1932573 C25.7490752,26.1932573 25.4279213,26.1932573 25.1739856,26.2274007 C24.9611034,26.2394357 24.7506891,26.2797387 24.5481089,26.3472818 C24.2605641,26.4500912 24.1082027,26.6223254 24.1082027,26.8628464 C24.1082027,27.0347012 24.1929724,27.1724127 24.3281558,27.2585298 C24.4805172,27.3438882 24.7004703,27.3954826 25.0048196,27.3954826 L25.1739856,27.395862 Z M19.7603015,25.7979532 C19.7603015,25.3681264 19.6591007,25.0244167 19.4219696,24.7664447 C19.1848385,24.5084727 18.8804892,24.3885917 18.4913702,24.3885917 L18.4573876,24.3885917 C18.051464,24.3885917 17.7299366,24.5084727 17.5099835,24.7664447 C17.2732259,25.007345 17.1716516,25.3851981 17.1716516,25.8666193 C17.1716516,26.3305895 17.2732259,26.6913709 17.5099835,26.9493428 C17.7295632,27.2073148 18.051464,27.3271959 18.4573876,27.3271959 C18.8801158,27.3271959 19.2016431,27.1902431 19.4219696,26.9322712 C19.6587273,26.6572275 19.7603015,26.2786157 19.7603015,25.7979532 Z M18.4573876,23.5118663 C18.6941452,23.4428209 18.9312763,23.4257492 19.2016431,23.4257492 C19.9462721,23.4257492 20.5213616,23.6495778 20.9612678,24.0964763 C21.383996,24.5263032 21.6043225,25.1279848 21.6043225,25.9007627 C21.6043225,26.6913709 21.401174,27.3101242 20.9780724,27.7570227 C20.5553442,28.2039212 19.9802546,28.4277499 19.2356257,28.4277499 C18.9648855,28.4277499 18.7109498,28.3936065 18.4573876,28.3241817 C18.3233038,28.2850788 18.1930478,28.2335198 18.0682685,28.1701573 C17.7295632,27.9983024 17.4252138,27.7574021 17.1884562,27.4315228 L17.1884562,27.5684756 C17.1884562,27.7061871 17.1716516,27.8264476 17.1716516,27.9463286 C17.1548471,28.0669685 17.1380425,28.2043006 17.1208645,28.3241817 L15.3108261,28.3241817 C15.3430984,28.1369995 15.3600852,27.9474275 15.3616132,27.7574021 C15.3784178,27.5684756 15.3955958,27.3966207 15.3955958,27.2425963 L15.3955958,21.4674384 L17.1888296,21.4674384 L17.1888296,24.2341878 C17.4595698,23.9591442 17.7639192,23.753146 18.0854465,23.6325061 C18.2038254,23.5809118 18.3390088,23.528938 18.4573876,23.5118663 Z M4.50026257,21.4670591 L5.78637196,21.4670591 L9.0849214,28.3238023 L6.91974653,28.3238023 L6.3278524,26.9322712 L2.65624161,26.9322712 L2.03036492,28.3238023 L0,28.3238023 L3.5020714,21.4670591 L4.50026257,21.4670591 Z M4.50026257,25.6090267 L5.70160227,25.6090267 L4.5510497,22.9792301 L4.49988914,23.0991112 L3.28211831,25.6086473 L4.50026257,25.6086473 L4.50026257,25.6090267 Z M9.39001762,28.3238023 L9.39001762,21.4670591 L11.182878,21.4670591 L11.182878,28.3238023 L9.39001762,28.3238023 Z" id="Shape" fill="#D9783E"></path>
                    </g>
                </g>
            </g>
        </g>
    </g>
</svg>