<?xml version="1.0" encoding="UTF-8" standalone="no"?>
<svg width="64px" height="19px" viewBox="0 0 64 19" version="1.1" xmlns="http://www.w3.org/2000/svg" xmlns:xlink="http://www.w3.org/1999/xlink">
    <!-- Generator: Sketch 49 (51002) - http://www.bohemiancoding.com/sketch -->
    <title>apple-itunes-seeklogo.com</title>
    <desc>Created with Sketch.</desc>
    <defs></defs>
    <g id="Homepage" stroke="none" stroke-width="1" fill="none" fill-rule="evenodd">
        <g id="Visual---123Credit---BrandPopup" transform="translate(-1019.000000, -512.000000)" fill="#000000" fill-rule="nonzero">
            <g id="Popup" transform="translate(458.000000, 195.000000)">
                <g id="Group-22-Copy-17" transform="translate(551.000000, 285.000000)">
                    <g id="apple-itunes-seeklogo.com" transform="translate(10.000000, 32.000000)">
                        <path d="M15.9636667,13.642 C15.5306667,14.6023333 15.323,15.0306667 14.7653333,15.879 C13.9873333,17.0643333 12.8903333,18.5386667 11.531,18.552 C10.3226667,18.563 10.012,17.7663333 8.37266667,17.7746667 C6.73366667,17.7833333 6.39166667,18.5656667 5.184,18.5546667 C3.82466667,18.5423333 2.785,17.2103333 2.00633333,16.026 C-0.169666667,12.7133333 -0.397333333,8.826 0.944333333,6.75966667 C1.898,5.29166667 3.403,4.43233333 4.81833333,4.43233333 C6.25933333,4.43233333 7.165,5.222 8.35566667,5.222 C9.51133333,5.222 10.215,4.431 11.881,4.431 C13.1396667,4.431 14.4736667,5.11733333 15.4246667,6.30066667 C12.3106667,8.007 12.817,12.4526667 15.9636667,13.642 Z" id="Shape"></path>
                        <path d="M10.618,3.10633333 C11.223,2.32966667 11.6826667,1.23333333 11.516,0.112333333 C10.527,0.180666667 9.37033333,0.809666667 8.69566667,1.62933333 C8.083,2.37333333 7.57733333,3.477 7.77366667,4.55 C8.85333333,4.583 9.97,3.93833333 10.618,3.10633333 Z" id="Shape"></path>
                        <path d="M21.488,8.377 C21.488,9.05 20.9763333,9.59266667 20.1753333,9.59266667 C19.407,9.59266667 18.8953333,9.049 18.9113333,8.377 C18.8953333,7.67366667 19.407,7.14566667 20.1913333,7.14566667 C20.9756667,7.14566667 21.4723333,7.67366667 21.488,8.377 Z M18.976,18.3783333 L18.976,10.553 L21.4083333,10.553 L21.4083333,18.3783333 L18.976,18.3783333 Z M25.52,9.64133333 L22.624,9.64133333 L22.624,7.59333333 L30.9123333,7.59333333 L30.9123333,9.64133333 L27.9683333,9.64133333 L27.9683333,18.3783333 L25.5193333,18.3783333 L25.52,9.64133333 Z M38.6403333,15.8663333 C38.6403333,16.89 38.6726667,17.722 38.7036667,18.3786667 L36.5916667,18.3786667 L36.4796667,17.2746667 L36.431,17.2746667 C36.127,17.7543333 35.3906667,18.5553333 33.9823333,18.5553333 C32.398,18.5553333 31.23,17.5623333 31.23,15.1463333 L31.23,10.5546667 L33.6783333,10.5546667 L33.6783333,14.763 C33.6783333,15.899 34.0463333,16.5866667 34.8943333,16.5866667 C35.567,16.5866667 35.9506667,16.123 36.1103333,15.739 C36.1736667,15.595 36.1893333,15.403 36.1893333,15.211 L36.1893333,10.5546667 L38.6383333,10.5546667 L38.6383333,15.8666667 L38.6403333,15.8666667 L38.6403333,15.8663333 Z M40.5916667,13.049 C40.5916667,12.0723333 40.5596667,11.2403333 40.528,10.5533333 L42.64,10.5533333 L42.752,11.6256667 L42.8006667,11.6256667 C43.1203333,11.13 43.9196667,10.3776667 45.2166667,10.3776667 C46.817,10.3776667 48.016,11.4336667 48.016,13.7376667 L48.016,18.3783333 L45.5843333,18.3783333 L45.5843333,14.0416667 C45.5843333,13.0343333 45.232,12.3456667 44.3526667,12.3456667 C43.68,12.3456667 43.2803333,12.8103333 43.121,13.2566667 C43.0573333,13.4166667 43.0253333,13.6406667 43.0253333,13.8646667 L43.0253333,18.377 L40.593,18.377 L40.593,13.0493333 L40.5916667,13.049 Z M51.84,15.242 C51.92,16.25 52.9123333,16.7303333 54.0483333,16.7303333 C54.8803333,16.7303333 55.5526667,16.6183333 56.208,16.4106667 L56.5283333,18.058 C55.7286667,18.3783333 54.7523333,18.5536667 53.6956667,18.5536667 C51.039,18.5536667 49.5196667,17.002 49.5196667,14.553 C49.5196667,12.5686667 50.7516667,10.3776667 53.4716667,10.3776667 C56.0003333,10.3776667 56.96,12.3446667 56.96,14.282 C56.96,14.698 56.9116667,15.0663333 56.8806667,15.2416667 L51.84,15.242 Z M54.7043333,13.577 C54.7043333,12.9856667 54.4476667,11.993 53.328,11.993 C52.304,11.993 51.888,12.9206667 51.8233333,13.577 L54.7043333,13.577 Z M58.3996667,16.25 C58.8486667,16.521 59.776,16.8413333 60.496,16.8413333 C61.2323333,16.8413333 61.5363333,16.5846667 61.5363333,16.185 C61.5363333,15.7853333 61.296,15.5933333 60.384,15.289 C58.7676667,14.7453333 58.1436667,13.8653333 58.16,12.953 C58.16,11.481 59.408,10.3763333 61.3446667,10.3763333 C62.2563333,10.3763333 63.0736667,10.5846667 63.553,10.825 L63.1206667,12.5053333 C62.768,12.3133333 62.097,12.0566667 61.4246667,12.0566667 C60.8333333,12.0566667 60.4966667,12.297 60.4966667,12.6966667 C60.4966667,13.065 60.8006667,13.2573333 61.7606667,13.593 C63.249,14.1046667 63.873,14.8573333 63.889,16.009 C63.889,17.4653333 62.737,18.5533333 60.4966667,18.5533333 C59.4733333,18.5533333 58.5596667,18.3126667 57.9683333,17.9923333 L58.3996667,16.25 Z" id="Shape"></path>
                    </g>
                </g>
            </g>
        </g>
    </g>
</svg>