<?xml version="1.0" encoding="utf-8"?>
<!-- Generator: Adobe Illustrator 21.1.0, SVG Export Plug-In . SVG Version: 6.00 Build 0)  -->
<svg version="1.1" baseProfile="tiny" id="Layer_1" xmlns="http://www.w3.org/2000/svg" xmlns:xlink="http://www.w3.org/1999/xlink"
	 x="0px" y="0px" viewBox="0 0 56.4 47.2" xml:space="preserve">
<g>
	<path fill="none" d="M34,10.7c0.3-0.3,0.5-0.8,0.5-1.2S34.3,8.5,34,8.2L32.7,7l-1.2,1.2C31.2,8.5,31,9,31,9.4s0.2,0.9,0.5,1.2
		C32.2,11.4,33.3,11.4,34,10.7z"/>
	<path d="M32.7,12c0.7,0,1.3-0.3,1.9-0.8c0.5-0.5,0.8-1.2,0.8-1.9c0-0.7-0.3-1.4-0.8-1.9L33,6c-0.2-0.2-0.4-0.2-0.6,0l-1.5,1.5
		c-0.5,0.5-0.8,1.2-0.8,1.9s0.3,1.4,0.8,1.9c0,0,0,0,0,0C31.4,11.8,32.1,12,32.7,12z M31.5,8.2L32.7,7L34,8.2
		c0.3,0.3,0.5,0.8,0.5,1.2s-0.2,0.9-0.5,1.2c-0.7,0.7-1.8,0.7-2.5,0C31.2,10.3,31,9.9,31,9.4S31.2,8.5,31.5,8.2z"/>
</g>
<g>
	<polygon fill="none" points="36.6,23.8 36.3,23.8 36.2,23.8 20.5,23.8 20.5,23.8 20.1,23.8 20.1,24.4 36.6,24.4 	"/>
	<rect x="20.9" y="15.2" fill="none" width="14.9" height="7.7"/>
	<rect x="20.1" y="13.7" fill="none" width="16.5" height="0.6"/>
	<rect x="33" y="2.2" fill="none" width="2.1" height="0.6"/>
	<rect x="20.9" y="5.1" fill="none" width="14.9" height="7.7"/>
	<rect x="20.1" y="3.6" fill="none" width="16.5" height="0.6"/>
	<path fill="#192C34" d="M19.7,22.9c-0.2,0-0.4,0.2-0.4,0.4v1.5c0,0.2,0.2,0.4,0.4,0.4h17.4c0.2,0,0.4-0.2,0.4-0.4v-1.5
		c0-0.2-0.2-0.4-0.4-0.4h-0.4v-7.7h0.4v0c0.2,0,0.4-0.2,0.4-0.4v-1.5c0-0.2-0.2-0.4-0.4-0.4h-0.4V5.1h0.4c0.2,0,0.4-0.2,0.4-0.4V3.2
		c0-0.2-0.2-0.4-0.4-0.4h-1.1v-1c0-0.2-0.2-0.4-0.4-0.4h-3c-0.2,0-0.4,0.2-0.4,0.4v1H19.7c-0.2,0-0.4,0.2-0.4,0.4v1.5
		c0,0.2,0.2,0.4,0.4,0.4h0.4v7.7h-0.4c-0.2,0-0.4,0.2-0.4,0.4v1.5c0,0.2,0.2,0.4,0.4,0.4h0.4v7.7H19.7z M33,2.2h2.1v0.6H33V2.2z
		 M20.1,3.6h16.5v0.6H20.1V3.6z M35.8,5.1v7.7H20.9V5.1H35.8z M20.1,13.7h16.5v0.6H20.1V13.7z M35.8,15.2v7.7H20.9v-7.7H35.8z
		 M20.1,23.8h0.4c0,0,0,0,0,0h15.7c0,0,0,0,0,0h0.4v0.6H20.1V23.8z"/>
</g>
<text transform="matrix(1 0 0 1 0.2386 45.733)" fill="#192C34" font-family="'VNF-Gotham'" font-size="12px">X</text>
<path fill="#192C34" d="M11.8,45.9c-0.3,0-0.6,0-0.9-0.1c-0.3-0.1-0.5-0.2-0.7-0.4C10,45.2,9.8,45,9.7,44.8
	c-0.1-0.2-0.2-0.5-0.2-0.8v0c0-0.3,0.1-0.6,0.2-0.9c0.1-0.3,0.3-0.5,0.5-0.6s0.5-0.3,0.8-0.4c0.3-0.1,0.7-0.1,1.1-0.1
	c0.2,0,0.4,0,0.6,0s0.3,0,0.5,0.1s0.3,0.1,0.4,0.1c0.1,0,0.3,0.1,0.4,0.1V42c0-0.6-0.2-1-0.5-1.3c-0.3-0.3-0.8-0.4-1.4-0.4
	c-0.4,0-0.7,0-1,0.1s-0.6,0.2-0.9,0.3L10.1,40c0.2-0.1,0.3-0.1,0.5-0.2c0.2-0.1,0.3-0.1,0.5-0.2s0.4-0.1,0.6-0.1c0.2,0,0.4,0,0.6,0
	c0.4,0,0.8,0.1,1.2,0.2c0.3,0.1,0.6,0.3,0.8,0.5c0.4,0.4,0.6,1,0.6,1.8v3.8H14v-0.9c-0.1,0.1-0.2,0.3-0.4,0.4
	c-0.1,0.1-0.3,0.2-0.5,0.3c-0.2,0.1-0.4,0.2-0.6,0.2C12.3,45.8,12.1,45.9,11.8,45.9z M12,45.1c0.3,0,0.6,0,0.8-0.1
	c0.2-0.1,0.5-0.2,0.7-0.3s0.3-0.3,0.4-0.5c0.1-0.2,0.2-0.4,0.2-0.7v-0.6c-0.2-0.1-0.5-0.1-0.8-0.2c-0.3-0.1-0.6-0.1-1-0.1
	c-0.3,0-0.5,0-0.8,0.1c-0.2,0.1-0.4,0.1-0.6,0.3c-0.2,0.1-0.3,0.2-0.4,0.4c-0.1,0.2-0.1,0.3-0.1,0.5v0c0,0.2,0,0.4,0.1,0.5
	c0.1,0.2,0.2,0.3,0.3,0.4c0.1,0.1,0.3,0.2,0.5,0.2C11.6,45.1,11.8,45.1,12,45.1z M12.4,38.6c-0.3,0-0.5,0-0.7-0.1
	c-0.2-0.1-0.4-0.2-0.5-0.3c-0.2-0.1-0.3-0.3-0.4-0.5c-0.1-0.2-0.1-0.4-0.2-0.7h0.7c0.1,0.3,0.2,0.5,0.4,0.6c0.2,0.1,0.4,0.2,0.7,0.2
	c0.3,0,0.5-0.1,0.7-0.2c0.2-0.1,0.3-0.3,0.4-0.6h0.7c0,0.3-0.1,0.5-0.2,0.7c-0.1,0.2-0.2,0.4-0.4,0.5c-0.2,0.1-0.3,0.2-0.5,0.3
	C12.9,38.6,12.7,38.6,12.4,38.6z"/>
<text transform="matrix(1 0 0 1 15.889 45.733)" fill="#192C34" font-family="'VNF-Gotham'" font-size="12px">ng</text>
<text transform="matrix(1 0 0 1 34.3128 45.733)" fill="#192C34" font-family="'VNF-Gotham'" font-size="12px">d</text>
<path fill="#192C34" d="M45.2,45.9c-0.3,0-0.6,0-0.9-0.1c-0.3-0.1-0.5-0.2-0.7-0.4c-0.2-0.2-0.4-0.4-0.5-0.6
	c-0.1-0.2-0.2-0.5-0.2-0.8v0c0-0.3,0.1-0.6,0.2-0.9c0.1-0.3,0.3-0.5,0.5-0.6s0.5-0.3,0.8-0.4c0.3-0.1,0.7-0.1,1.1-0.1
	c0.2,0,0.4,0,0.6,0s0.3,0,0.5,0.1S46.8,42,47,42c0.1,0,0.3,0.1,0.4,0.1V42c0-0.6-0.2-1-0.5-1.3c-0.3-0.3-0.8-0.4-1.4-0.4
	c-0.4,0-0.7,0-1,0.1s-0.6,0.2-0.9,0.3L43.4,40c0.2-0.1,0.3-0.1,0.5-0.2c0.2-0.1,0.3-0.1,0.5-0.2s0.4-0.1,0.6-0.1c0.2,0,0.4,0,0.6,0
	c0.4,0,0.8,0.1,1.2,0.2c0.3,0.1,0.6,0.3,0.8,0.5c0.4,0.4,0.6,1,0.6,1.8v3.8h-0.9v-0.9c-0.1,0.1-0.2,0.3-0.4,0.4
	c-0.1,0.1-0.3,0.2-0.5,0.3c-0.2,0.1-0.4,0.2-0.6,0.2C45.7,45.8,45.4,45.9,45.2,45.9z M45.3,45.1c0.3,0,0.6,0,0.8-0.1
	c0.2-0.1,0.5-0.2,0.7-0.3s0.3-0.3,0.4-0.5c0.1-0.2,0.2-0.4,0.2-0.7v-0.6c-0.2-0.1-0.5-0.1-0.8-0.2c-0.3-0.1-0.6-0.1-1-0.1
	c-0.3,0-0.5,0-0.8,0.1c-0.2,0.1-0.4,0.1-0.6,0.3c-0.2,0.1-0.3,0.2-0.4,0.4c-0.1,0.2-0.1,0.3-0.1,0.5v0c0,0.2,0,0.4,0.1,0.5
	c0.1,0.2,0.2,0.3,0.3,0.4c0.1,0.1,0.3,0.2,0.5,0.2C44.9,45.1,45.1,45.1,45.3,45.1z M45.4,37h0.8l1.3,1.6h-0.8l-0.9-0.8l-0.9,0.8
	h-0.8L45.4,37z M46.2,36.4l1-0.4l1.1,1.7h-0.7L46.2,36.4z"/>
<text transform="matrix(1 0 0 1 49.2307 45.733)" fill="#192C34" font-family="'VNF-Gotham'" font-size="12px">u</text>
</svg>
