<?xml version="1.0" encoding="UTF-8" standalone="no"?>
<svg width="44px" height="47px" viewBox="0 0 44 47" version="1.1" xmlns="http://www.w3.org/2000/svg" xmlns:xlink="http://www.w3.org/1999/xlink">
    <!-- Generator: Sketch 49 (51002) - http://www.bohemiancoding.com/sketch -->
    <title>aia</title>
    <desc>Created with Sketch.</desc>
    <defs></defs>
    <g id="Homepage" stroke="none" stroke-width="1" fill="none" fill-rule="evenodd">
        <g id="Visual---123Credit---Homepage3" transform="translate(-1147.000000, -2747.000000)" fill="#D02149" fill-rule="nonzero">
            <g id="Group-21-Copy-3" transform="translate(1127.000000, 2729.000000)">
                <g id="aia" transform="translate(20.000000, 18.000000)">
                    <polygon id="Shape" points="20.5441176 32.5794118 23.4105882 32.5794118 23.4105882 46.8276471 20.5441176 46.8276471 20.5441176 32.5794118"></polygon>
                    <path d="M15.3482353,31.4535294 C14.8564706,31.185 13.4070588,30.4570588 11.6988235,31.9355882 L2.57205882,39.6388235 L4.88529412,41.4732353 L7.71617647,38.9594118 C9.2216155,40.4211196 11.0957664,41.4465351 13.1385294,41.9261765 L12.5464706,45.6661765 L15.3385294,46.6367647 L16.8979412,34.7858824 C17.2408824,32.5697059 15.8529412,31.7220588 15.3482353,31.4535294 Z M11.4658824,38.5711765 C10.7967148,38.2300935 10.1862087,37.7845005 9.65735294,37.2511765 L13.3941176,33.9188235 C13.5735972,33.7483888 13.8426212,33.7134168 14.0597108,33.8322992 C14.2768004,33.9511816 14.3922294,34.1966874 14.3452941,34.4397059 L13.5461765,39.3638235 C12.812543,39.210033 12.1081158,38.9402757 11.4594118,38.5647059 L11.4658824,38.5711765 Z" id="Shape"></path>
                    <path d="M27.0017647,34.7858824 L28.5676471,46.6238235 L31.3597059,45.6532353 L30.7676471,41.9132353 C32.8104101,41.433594 34.684561,40.4081785 36.19,38.9464706 L39.0208824,41.4602941 L41.3341176,39.6258824 L32.2105882,31.9226471 C30.5152941,30.4441176 29.0529412,31.1720588 28.5611765,31.4405882 C28.0694118,31.7091176 26.6685294,32.5697059 27.0017647,34.7858824 Z M30.3664706,39.3638235 L29.5738235,34.4202941 C29.5268882,34.1772756 29.6423173,33.9317698 29.8594068,33.8128874 C30.0764964,33.694005 30.3455205,33.728977 30.525,33.8994118 L34.2617647,37.2317647 C33.1761914,38.2694995 31.8376046,39.0046068 30.3794118,39.3638235 L30.3664706,39.3638235 Z" id="Shape"></path>
                    <path d="M22,0 C13.6144241,0.000305820123 5.95826461,4.76762157 2.25822544,12.2927523 C-1.44181373,19.817883 -0.542192795,28.7919992 4.57794118,35.4329412 L5.28323529,34.8958824 C3.62437443,32.7664902 2.41378406,30.3232988 1.72441176,27.7135294 C1.72441176,27.4288235 2.33911765,27.555 2.695,27.6326471 C3.05088235,27.7102941 5.57441176,28.5255882 6.545,28.3638235 C7.6737928,28.1427972 8.77270129,27.7898869 9.81911765,27.3123529 C10.6493916,26.9624665 11.5456959,26.7968931 12.4461765,26.8270588 C12.8505882,26.8691176 12.2455882,26.3838235 11.88,26.2220588 C11.5144118,26.0602941 10.5470588,26.2220588 9.53441176,26.2220588 C8.52176471,26.2220588 11.3947059,23.3102941 11.6373529,23.1485294 C11.88,22.9867647 12.1226471,22.825 11.7991176,22.825 C11.4755882,22.825 9.57647059,23.8764706 8.92941176,24.0802941 C8.28235294,24.2841176 6.90735294,24.2420588 6.17941176,24.2841176 C5.45147059,24.3261765 3.67205882,25.4973529 3.14794118,25.74 C2.58686877,25.9603841 2.01321357,26.1472811 1.43,26.2997059 C1.43,26.2997059 1.69205882,22.7861765 2.86647059,21.1232353 C4.04088235,19.4602941 5.65529412,17.7941176 6.26352941,18.0917647 C6.87176471,18.3894118 6.26352941,18.9426471 6.54823529,19.2241176 C6.83294118,19.5055882 7.23735294,19.4667647 7.23735294,20.1138235 C7.23735294,20.7608824 7.39911765,21.0844118 6.55147059,22.0161765 C5.70382353,22.9479412 5.41911765,23.595 6.22794118,23.3102941 C7.03676471,23.0255882 8.97794118,22.4205882 9.50205882,22.2588235 C10.0261765,22.0970588 11.1197059,20.9258824 11.7247059,20.6023529 C12.3297059,20.2788235 15.0797059,17.49 15.6458824,17.2052941 C16.2120588,16.9205882 17.2214706,16.1538235 17.5061765,15.7105882 C17.7908824,15.2673529 18.4767647,14.3355882 19.0817647,14.0120588 C19.6867647,13.6885294 21.6279412,12.5173529 21.9935294,11.9511765 C22.3591176,11.385 22.8444118,10.4144118 23.0870588,10.4564706 C23.573699,10.6061837 24.0174343,10.8702062 24.3811765,11.2264706 C24.7047059,11.5920588 24.6238235,11.9964706 24.8276471,12.32 C25.1228517,12.7855467 25.5627248,13.1413096 26.0797059,13.3326471 C26.6847059,13.5364706 28.3444118,14.8305882 27.9788235,14.9923529 C27.6811765,15.125 26.565,14.3064706 26.0797059,14.2644118 C25.5944118,14.2223529 25.2708824,14.2644118 25.3938235,14.5491176 C25.5167647,14.8338235 26.9305882,16.0470588 27.2541176,16.4902941 C27.5776471,16.9335294 27.5776471,17.9882353 27.8591176,18.8358824 C28.1405882,19.6835294 28.7908824,19.7676471 28.8717647,21.1005882 C28.9526471,22.4335294 30.1238235,23.6888235 30.6091176,24.0932353 C31.0944118,24.4976471 31.7802941,25.1058824 32.1847059,25.1447059 C32.5891176,25.1835294 32.5082353,24.9020588 33.1552941,25.1447059 C33.8023529,25.3873529 33.6826471,25.1447059 33.3979412,24.6205882 C33.3167882,24.4961677 33.3023126,24.3396987 33.3592623,24.2025018 C33.416212,24.0653048 33.5372388,23.9650821 33.6826471,23.9347059 C35.0964706,23.8538235 35.6626471,25.3905882 35.6238235,26.6847059 C35.585,27.9788235 34.6952941,27.6552941 34.21,28.6679412 C33.7247059,29.6805882 34.21,29.3958824 34.4526471,29.1952941 C34.6952941,28.9947059 36.3938235,29.0335294 37.2414706,28.9526471 C38.0891176,28.8717647 38.8235294,27.7814706 39.1470588,27.5 C39.3747428,27.2484513 39.7506915,27.1978691 40.0367647,27.3802941 C40.3214706,27.5420588 39.9979412,28.4317647 40.1597059,28.5547059 C40.3214706,28.6776471 41.2111765,28.0305882 41.5347059,27.7879412 C41.7621331,27.6360262 42.0280515,27.5518748 42.3014706,27.5452941 L42.3014706,27.5258824 C41.6211698,30.2332238 40.3813119,32.7680445 38.6617647,34.9670588 L39.3670588,35.5041176 C44.5162547,28.8689569 45.4384054,19.8809883 41.7438159,12.3384698 C38.0492265,4.79595136 30.3826077,0.0150625782 21.9838235,0.0161764706 L22,0 Z M39.6744118,21.6505882 C39.1502941,21.2461765 37.7752941,19.6285294 37.0861765,19.4279412 C36.3970588,19.2273529 34.4170588,17.8911765 33.8120588,17.6097059 C33.1475104,17.208084 32.6353543,16.596911 32.3561765,15.8723529 C32.2364706,15.3870588 31.1041176,13.8502941 30.4958824,13.7305882 C29.8876471,13.6108824 27.1408824,12.3976471 26.7364706,12.2358824 C25.8846379,11.7949182 25.0727573,11.2807272 24.31,10.6991176 C23.9227118,10.341972 23.3947232,10.1790566 22.8735294,10.2558824 C22.6697059,10.3367647 22.0452941,11.4691176 21.8026471,11.8347059 C21.56,12.2002941 19.2144118,13.6561765 18.9329412,13.7370588 C18.4008771,13.9713509 17.9077356,14.285565 17.4705882,14.6688235 C16.9594118,15.1282353 16.8235294,15.7623529 16.1764706,16.1667647 C15.5294118,16.5711765 12.8214706,18.4314706 12.3361765,18.755 C11.8508824,19.0785294 11.0841176,20.1720588 10.5179412,20.13 C9.95176471,20.0879412 7.97176471,19.2402941 7.52529412,18.7647059 C7.1282094,18.3923793 6.67922206,18.0796139 6.19235294,17.8361765 C5.27676471,17.8361765 2.36176471,20.5732353 1.12911765,21.7735294 C1.64352941,11 10.7897059,2.41352941 22,2.41352941 C32.9385294,2.41352941 41.9067647,10.5794118 42.8191176,20.9776471 C41.9941176,22.3494118 40.1758824,22.0420588 39.6679412,21.6505882 L39.6744118,21.6505882 Z" id="Shape"></path>
                </g>
            </g>
        </g>
    </g>
</svg>