<?xml version="1.0" encoding="UTF-8" standalone="no"?>
<svg width="59px" height="12px" viewBox="0 0 59 12" version="1.1" xmlns="http://www.w3.org/2000/svg" xmlns:xlink="http://www.w3.org/1999/xlink">
    <!-- Generator: Sketch 49 (51002) - http://www.bohemiancoding.com/sketch -->
    <title>Manulife_logo</title>
    <desc>Created with Sketch.</desc>
    <defs></defs>
    <g id="Homepage" stroke="none" stroke-width="1" fill="none" fill-rule="evenodd">
        <g id="Visual---123Credit---Homepage3" transform="translate(-1239.000000, -2765.000000)" fill="#0F6A37" fill-rule="nonzero">
            <g id="Group-22-Copy-14" transform="translate(1227.000000, 2729.000000)">
                <g id="Manulife_logo" transform="translate(10.000000, 33.000000)">
                    <path d="M26.9132473,6.5229722 L26.9132473,6.89486553 L26.681194,6.89486553 C25.8094428,6.89486553 25.5654784,7.16142553 25.5654784,8.10341664 L25.5654784,12.7632211 C25.5654784,13.70395 25.8094428,13.9717544 26.681194,13.9717544 L26.9132473,13.9717544 L26.9132473,14.3430255 L22.6134428,14.3430255 L22.6134428,13.9717544 L22.8461184,13.9717544 C23.7178695,13.9717544 23.961834,13.70395 23.961834,12.7632211 L23.961834,7.70830553 L23.9380117,7.70830553 L20.8241628,14.3430255 L20.4648028,14.3430255 L17.3390251,7.82432331 L17.3152028,7.82432331 L17.3152028,12.7632211 C17.3152028,13.70395 17.5597895,13.9717544 18.4302962,13.9717544 L18.5940295,13.9717544 L18.5940295,14.3430255 L15.4682695,14.3430255 L15.4682695,13.9717544 L15.6307584,13.9717544 C16.4905984,13.9717544 16.7339228,13.70395 16.7339228,12.7632211 L16.7339228,8.10341664 C16.7339228,7.16142553 16.4905984,6.89486553 15.6307584,6.89486553 L15.4570695,6.89486553 L15.4570695,6.5229722 L18.4774784,6.5229722 L21.1849273,12.2056744 L23.8685362,6.5229722 L26.9132473,6.5229722 Z" id="path1864"></path>
                    <path d="M32.7008562,13.5410878 C32.5723228,13.7505455 32.340234,14.0177278 32.1081984,14.2033633 C31.8291051,14.4360389 31.4923228,14.5639855 31.1668295,14.5639855 C30.6437717,14.5639855 30.2837717,14.2152744 30.2837717,13.7154344 L30.2837717,13.5874344 C29.9814962,13.8777989 29.5167673,14.1920211 29.0871495,14.4008566 C28.854474,14.5174789 28.6456384,14.5638789 28.424874,14.5638789 C27.6227406,14.5638789 27.111594,13.98251 27.111594,13.0881633 C27.111594,12.7043411 27.2740828,12.3211589 27.5299228,12.0652655 C27.8673273,11.7397722 28.3088562,11.5077189 29.1448562,11.2173544 L30.190954,10.8686433 L30.283754,10.8334433 L30.283754,10.5894789 L30.283754,10.10091 C30.283754,9.48567442 30.0630073,9.25298108 29.4590428,9.25298108 C28.947914,9.25298108 28.6456206,9.46245664 28.6456206,9.83436775 C28.6456206,9.8468122 28.6456206,9.90405664 28.6580651,9.99738997 L28.6580651,10.0551678 C28.6580651,10.4502789 28.4253895,10.6942433 28.0541184,10.6942433 C27.6934962,10.6942433 27.4489095,10.4502789 27.4489095,10.0896566 C27.4489095,9.3226522 28.3319495,8.78830553 29.5756117,8.78830553 C30.2962162,8.78830553 30.888874,8.93941664 31.2607851,9.22981664 C31.5392384,9.4624922 31.6671851,9.74158553 31.6790962,10.2176033 L31.6790962,10.7406611 L31.6790962,12.9720922 C31.6790962,13.3665811 31.6897628,13.4136033 31.7135851,13.5057989 C31.7242517,13.5521989 31.7487851,13.59931 31.7951851,13.6343322 C31.829674,13.66811 31.8767851,13.6800211 31.9343851,13.6800211 C32.0974073,13.6800211 32.305674,13.5294433 32.5157717,13.2736211 L32.7008562,13.5410878 Z M30.2141717,11.3573011 C29.1918962,11.70539 29.2621362,11.6702611 28.9240917,11.8797366 C28.7616028,11.9844478 28.6337273,12.1124122 28.5409095,12.2629366 C28.4712206,12.3909366 28.4367317,12.5307233 28.4367317,12.6812478 C28.4367317,13.1691766 28.7735317,13.56491 29.1799317,13.56491 C29.4702962,13.56491 29.9814428,13.2964833 30.2837184,13.0073633 L30.2837184,11.3334789 L30.2141717,11.3573011 Z" id="path1868"></path>
                    <path d="M34.965034,9.59072331 C35.5683584,9.05575442 36.1961451,8.78858997 36.8120206,8.78858997 C37.4981362,8.78858997 38.0901717,9.1485722 38.2877362,9.6954522 C38.4050695,10.0084122 38.4388473,10.3803233 38.4388473,11.1592566 L38.4388473,13.1348122 C38.4388473,13.7970878 38.5780473,13.9708122 39.089834,13.9708122 L39.1940117,13.9708122 L39.1940117,14.3427233 L36.3241273,14.3427233 L36.3241273,13.9708122 L36.3819051,13.9708122 C36.9055851,13.9708122 37.0441806,13.7971233 37.0441806,13.1348122 L37.0441806,11.2520744 C37.0441806,10.4380122 37.0104028,10.2410878 36.8704917,10.0203233 C36.7312917,9.82277664 36.4992206,9.70674108 36.2546162,9.70674108 C35.824394,9.70674108 35.3828651,9.88114108 34.9651762,10.2178878 L34.9651762,13.1348122 C34.9651762,13.7970878 35.1043762,13.9708122 35.6155406,13.9708122 L35.8018162,13.9708122 L35.8018162,14.3427233 L32.838474,14.3427233 L32.838474,13.9708122 L32.9086962,13.9708122 C33.4192028,13.9708122 33.5590606,13.7971233 33.5590606,13.1348122 L33.5590606,10.7528566 C33.5590606,10.2529989 33.5352384,10.0322522 33.4655495,9.85788775 C33.3846606,9.68419886 33.2334962,9.59072331 33.0365717,9.59072331 C32.9782606,9.59072331 32.9192384,9.59072331 32.8270962,9.61383442 L32.8270962,9.19488331 L34.4771584,8.78848331 L34.9650873,8.78848331 L34.965034,9.59072331 Z" id="path1872"></path>
                    <path d="M44.7029006,12.6466878 L44.7135673,13.1346166 C44.7260117,13.5184389 44.8415673,13.6802522 45.1199673,13.6802522 C45.1896562,13.6802522 45.3407317,13.6457633 45.4686606,13.6112744 L45.4686606,14.0063855 L43.7609095,14.5639322 L43.2961806,14.5639322 L43.2961806,13.75051 C42.7035228,14.27355 42.0412295,14.5639322 41.4366606,14.5639322 C40.6934606,14.5639322 40.065674,14.0872922 39.9151673,13.4249989 C39.8335673,13.0882166 39.8216562,12.93707 39.8216562,12.1004478 L39.8216562,10.21771 C39.8216562,9.61438553 39.6817451,9.39362108 39.2641095,9.39362108 L39.2641095,9.02046553 L41.227114,9.02046553 L41.227114,12.2973722 C41.227114,13.0418166 41.2861362,13.25003 41.5181184,13.4488389 C41.6573184,13.5761278 41.8555406,13.6457633 42.0762873,13.6457633 C42.3434695,13.6457633 42.540394,13.5879855 42.8771762,13.4024211 C43.0979406,13.2850878 43.1562695,13.2500655 43.2961273,13.1346344 L43.2961273,10.21771 C43.2961273,9.56734553 43.1562162,9.39362108 42.6451228,9.39362108 L42.4011584,9.39362108 L42.4011584,9.02046553 L44.7022073,9.02046553 L44.7029006,12.6466878 Z" id="path1876"></path>
                    <path d="M47.6659228,13.1348655 C47.6659228,13.7739411 47.805834,13.9715055 48.2824206,13.9715055 L48.3169095,13.9715055 L48.3169095,14.3434166 L45.5749717,14.3434166 L45.5749717,13.9715055 L45.6094606,13.9715055 C46.1325006,13.9715055 46.2604473,13.7971055 46.2604473,13.1348655 L46.2604473,8.31262553 C46.2604473,7.70805664 46.2497806,7.49920331 46.1907584,7.33614553 C46.1324473,7.16245664 45.9580828,7.04576331 45.7598962,7.04576331 L45.6557184,7.04576331 C45.6450517,7.04576331 45.6205184,7.04576331 45.5854962,7.05820775 L45.5165184,6.67376331 L47.1897806,6.38339886 L47.6657984,6.38339886 L47.6659228,13.1348655 Z" id="path1880"></path>
                    <path d="M48.5263851,14.3429011 L48.5263851,13.9710078 L48.7126428,13.9710078 C49.2237895,13.9710078 49.3630251,13.7966078 49.3630251,13.1343678 L49.3630251,10.7060122 C49.3630251,10.1948655 49.339914,9.97410108 49.2702251,9.81166553 C49.1893362,9.62540775 49.0381717,9.53196775 48.8406073,9.53196775 C48.7470962,9.53196775 48.6887851,9.5444122 48.5966428,9.57836775 L48.5031317,9.19518553 L50.2811406,8.78878553 L50.7690695,8.78878553 L50.7690695,13.1343678 C50.7690695,13.7966611 50.9089806,13.9710078 51.4200562,13.9710078 L51.5361451,13.9710078 L51.5361451,14.3429189 L48.5263851,14.3429011 Z M50.1068295,8.05687442 C49.6421006,8.05687442 49.2701895,7.68496331 49.2701895,7.2202522 C49.2701895,6.75552331 49.6421006,6.3836122 50.1068295,6.3836122 C50.5721806,6.3836122 50.9434695,6.75552331 50.9434695,7.2202522 C50.9434695,7.68496331 50.5596473,8.05687442 50.1068295,8.05687442 Z" id="path1884"></path>
                    <path d="M51.8152028,14.3429011 L51.8152028,13.9710078 L52.0478962,13.9710078 C52.5590251,13.9710078 52.6982606,13.7966078 52.6982606,13.1343678 L52.6982606,9.68373664 L51.8152028,9.68373664 L51.8152028,9.02082108 L52.6982606,9.02082108 L52.6982606,8.8471322 C52.6982606,7.41783442 53.7913984,6.38364775 55.2890517,6.38364775 C56.0454073,6.38364775 56.5446251,6.72042997 56.5446251,7.24348775 C56.5446251,7.62668775 56.2768384,7.89447442 55.8591495,7.89447442 C55.6383851,7.89447442 55.4408206,7.76647442 55.2558073,7.4874522 L55.138474,7.32442997 C54.999274,7.10366553 54.8713095,7.02275886 54.6737628,7.02275886 C54.4072206,7.02275886 54.209034,7.2084122 54.1513273,7.49939886 C54.1042162,7.67379886 54.0930162,7.84748775 54.0930162,8.24259886 L54.0930162,9.0208922 L55.1272028,9.0208922 L55.1272028,9.68380775 L54.0930162,9.68380775 L54.0930162,13.1344389 C54.0930162,13.7967322 54.2322162,13.9710789 54.7553095,13.9710789 L55.1272028,13.9710789 L55.1272028,14.34299 L51.8152028,14.3429011 Z" id="path1888"></path>
                    <path d="M60.2726606,12.53035 C60.1560384,12.9718789 59.8424384,13.4949189 59.4247495,13.9013189 C58.9938873,14.3315589 58.4363406,14.5636122 57.8323762,14.5636122 C56.4037006,14.5636122 55.3927317,13.36699 55.3927317,11.6592211 C55.3927317,9.93955886 56.4143673,8.78871442 57.9377451,8.78871442 C59.3080917,8.78871442 60.2024206,9.70686553 60.2024206,11.1010522 L60.2024206,11.2290522 L56.659594,11.2290522 C56.7404828,12.4720922 57.4598428,13.3325544 58.4250517,13.3325544 C59.0641273,13.3325544 59.6561628,12.9606433 59.9935673,12.3679678 L60.2726606,12.53035 Z M58.6809273,10.6357011 L58.6809273,10.5434344 C58.6809273,9.78770108 58.3203051,9.2997722 57.7740473,9.2997722 C57.1469006,9.2997722 56.7166606,9.81154108 56.6470428,10.63563 L58.6809273,10.6357011 Z" id="path1892"></path>
                    <path d="M11.3714517,12.2041633 L9.79289173,13.73819 L9.79289173,7.51111442 L11.3714517,5.97770997 L11.3714517,12.2041633 Z M8.76622507,12.2230078 L7.18828729,13.7564122 L7.18828729,7.52995886 L8.76622507,5.99655442 L8.76622507,12.2230078 Z M6.17354951,12.2247855 L4.59623396,13.75883 L4.59623396,7.53173664 L6.17354951,5.99770997 L6.17354951,12.2247855 Z M2.01296284,14.3420833 L12.5643051,14.3420833 L12.5643051,3.79074108 L2.01296284,3.79074108 L2.01296284,14.3420833 Z" id="path1896"></path>
                </g>
            </g>
        </g>
    </g>
</svg>