<?xml version="1.0" encoding="UTF-8" standalone="no"?>
<svg width="28px" height="34px" viewBox="0 0 28 34" version="1.1" xmlns="http://www.w3.org/2000/svg" xmlns:xlink="http://www.w3.org/1999/xlink">
    <!-- Generator: Sketch 49 (51002) - http://www.bohemiancoding.com/sketch -->
    <title>Apple_logo_black</title>
    <desc>Created with Sketch.</desc>
    <defs></defs>
    <g id="Homepage" stroke="none" stroke-width="1" fill="none" fill-rule="evenodd">
        <g id="Visual---123Credit---BrandPopup" transform="translate(-535.000000, -406.000000)" fill="#000000" fill-rule="nonzero">
            <g id="Popup" transform="translate(458.000000, 195.000000)">
                <g id="Group-22-Copy" transform="translate(48.000000, 187.000000)">
                    <g id="Apple_logo_black" transform="translate(29.000000, 24.000000)">
                        <path d="M27.4131614,25.9118449 C26.9104499,27.0735074 26.3154038,28.1428115 25.625971,29.1259145 C24.6862084,30.4661363 23.9167522,31.3938243 23.3237579,31.9089785 C22.4045141,32.7545702 21.4196101,33.1876281 20.3649421,33.212257 C19.6077972,33.212257 18.6947091,32.9967543 17.6318335,32.5595916 C16.5654697,32.1244812 15.5854903,31.9089785 14.6894328,31.9089785 C13.7496702,31.9089785 12.7417851,32.1244812 11.6637256,32.5595916 C10.5840246,32.9967543 9.71423128,33.2245715 9.04921589,33.2471479 C8.03784259,33.2902485 7.02975231,32.8448761 6.02350872,31.9089785 C5.38126924,31.3486714 4.57795691,30.3881448 3.61562363,29.0273989 C2.58311593,27.5742947 1.7342518,25.8892685 1.06923641,23.9682154 C0.3570277,21.8932318 0,19.8839253 0,17.9386538 C0,15.7103554 0.481371831,13.7884814 1.44555181,12.1779576 C2.20331233,10.8843254 3.21140261,9.86386855 4.47310567,9.11473995 C5.73480874,8.36561136 7.09808002,7.98386364 8.56620255,7.95943999 C9.36951488,7.95943999 10.4229518,8.20798649 11.7320533,8.69645939 C13.0374615,9.1865742 13.8756559,9.4351207 14.2431482,9.4351207 C14.5178954,9.4351207 15.44904,9.14449986 17.0275539,8.56510533 C18.520299,8.02778515 19.7801554,7.80530422 20.8122527,7.892942 C23.6089697,8.11870679 25.7100982,9.22146512 27.1074307,11.2081952 C24.606185,12.7241031 23.3688993,14.8473182 23.3935219,17.5710677 C23.4160926,19.6926409 24.1855489,21.4581215 25.6977869,22.8599156 C26.3831159,23.5105286 27.1484684,24.0133684 28,24.3704872 C27.8153305,24.9061655 27.6204016,25.4192672 27.4131614,25.9118449 Z M20.9989741,0.665185143 C20.9989741,2.3280659 20.3916166,3.88069135 19.1810054,5.31778681 C17.7200645,7.02621048 15.9529826,8.0134183 14.0367287,7.8576406 C14.0123113,7.65814663 13.9981533,7.44818538 13.9981533,7.22755162 C13.9981533,5.63118937 14.692921,3.9227657 15.9267185,2.52589742 C16.5426938,1.81863794 17.3261029,1.23056173 18.2761249,0.761443036 C19.224095,0.299323052 20.120768,0.0437573195 20.964092,0 C20.9887146,0.222296214 20.9989741,0.444612951 20.9989741,0.665164619 L20.9989741,0.665185143 Z" id="Shape"></path>
                    </g>
                </g>
            </g>
        </g>
    </g>
</svg>