<?xml version="1.0" encoding="UTF-8" standalone="no"?>
<svg width="52px" height="29px" viewBox="0 0 52 29" version="1.1" xmlns="http://www.w3.org/2000/svg" xmlns:xlink="http://www.w3.org/1999/xlink">
    <!-- Generator: Sketch 49 (51002) - http://www.bohemiancoding.com/sketch -->
    <title>AIG_logo</title>
    <desc>Created with Sketch.</desc>
    <defs></defs>
    <g id="Homepage" stroke="none" stroke-width="1" fill="none" fill-rule="evenodd">
        <g id="Visual---123Credit---Homepage3" transform="translate(-992.000000, -2854.000000)" fill-rule="nonzero">
            <g id="Group-22-Copy-18" transform="translate(976.000000, 2827.000000)">
                <g id="AIG_logo" transform="translate(16.000000, 27.000000)">
                    <rect id="rect2986" stroke="#1CA3DB" stroke-width="0.36094946" fill="#FFFFFF" x="0.806678102" y="0.793903348" width="50.4767185" height="26.5765695"></rect>
                    <g id="g6" transform="translate(25.999940, 14.060719) scale(-1, 1) rotate(-180.000000) translate(-25.999940, -14.060719) translate(0.000000, 0.000001)" fill="#00A4E4">
                        <path d="M0,14.0607182 L0,0 L25.9999404,0 L51.9998809,0 L51.9998809,14.0607182 L51.9998809,28.1214365 L25.9999404,28.1214365 L0,28.1214365 L0,14.0607182 Z M50.0487239,14.0607182 L50.0487239,1.98212768 L25.9844551,1.98212768 L1.92018619,1.98212768 L1.92018619,14.0607182 L1.92018619,26.1393088 L25.9844551,26.1393088 L50.0487239,26.1393088 L50.0487239,14.0607182 Z" id="path8"></path>
                        <path d="M37.7533382,22.2184125 C37.0874671,22.159568 36.3286839,22.0078114 35.7464339,21.8188899 C34.5168953,21.4224643 33.5753847,20.8464085 32.6586506,19.9296744 C31.5994511,18.8704749 30.9149977,17.6595188 30.5340575,16.1791172 C30.3234564,15.3460041 30.2770003,14.9464815 30.2770003,13.9368353 C30.2739032,13.0201012 30.2986798,12.7692382 30.4442423,12.056911 C30.7012995,10.8180812 31.305229,9.56996021 32.1104684,8.60986711 C32.42637,8.2351211 33.1077264,7.57234715 33.4576958,7.2998046 C34.6005163,6.41094421 35.9446466,5.88444155 37.4807956,5.72958782 C38.0351719,5.67074341 39.2461281,5.70481123 39.7354658,5.78843224 C40.9123541,5.99283916 41.9529712,6.42642959 42.820152,7.07991231 C44.0496906,8.00593758 44.9881042,9.35935914 45.4340829,10.852149 C45.6818489,11.6852621 45.7747611,12.3387448 45.7964406,13.4660799 L45.8150231,14.2775134 L42.52593,14.2775134 L39.2399339,14.2775134 L39.2399339,13.1470813 L39.2399339,12.0166491 L41.2220616,12.0166491 C42.7860842,12.0166491 43.2041893,12.0073578 43.2041893,11.9794842 C43.2041893,11.8834749 43.0152677,11.2052155 42.9285496,10.9853233 C42.5816773,10.1150453 41.9808448,9.33458254 41.2685177,8.8297594 C40.9681015,8.61915833 40.3703661,8.31564503 40.0451733,8.2103445 C38.7691786,7.79843359 37.2640004,7.9192195 36.0034911,8.53553732 C34.4146918,9.30980595 33.2966479,10.8056929 32.9404844,12.6298698 C32.7143979,13.7881757 32.8042131,15.1013353 33.1820562,16.1822143 C33.9129658,18.2758366 35.6070655,19.6478406 37.7936001,19.9172861 C38.2519671,19.9730335 39.2616134,19.9389656 39.6859126,19.8522475 C41.0919845,19.5704138 42.3091347,18.789951 43.2196746,17.5820919 L43.399305,17.3405201 L43.6191973,17.5542183 C43.7399832,17.66881 44.1240204,18.0373619 44.4739898,18.3687489 C44.8239592,18.7001358 45.1119872,18.9788725 45.1181813,18.9881638 C45.1367638,19.0315228 44.6195523,19.6385494 44.2850683,19.9637422 C43.4612465,20.7658845 42.3586879,21.4348526 41.2530323,21.8034045 C40.3548807,22.1038207 39.7044951,22.2091212 38.6514898,22.2215095 C38.2333847,22.2246066 37.830765,22.2246066 37.7533382,22.2184125 Z" id="path10"></path>
                        <path d="M13.803661,21.7042981 C13.7633991,21.6144829 12.0754935,18.0311677 10.0531038,13.7448166 C8.03381125,9.45536845 6.37997347,5.94018889 6.37997347,5.93089767 C6.37997347,5.92160644 6.97461177,5.91850937 7.70242428,5.92160644 L9.02177802,5.93089767 L9.89205595,7.85727801 L10.7623339,9.78365835 L14.1381451,9.78675542 L17.5170534,9.78675542 L18.3563606,7.86037508 L19.1956678,5.93089767 L20.5150215,5.92160644 C21.2397369,5.91850937 21.8343752,5.92470352 21.8343752,5.93399474 C21.8343752,5.95877134 21.9334816,5.73887905 16.8016292,17.1732781 C16.0923991,18.7589802 15.3336158,20.4437888 15.1230148,20.9207382 C14.9093166,21.3976877 14.7203951,21.8065016 14.7049097,21.8281811 C14.6801331,21.8529577 14.5562501,21.865346 14.2775134,21.865346 L13.8779908,21.865346 L13.803661,21.7042981 Z M15.3460041,14.8195015 C15.9685161,13.4103326 16.4733393,12.2489296 16.4671451,12.2427355 C16.460951,12.2365413 15.4141398,12.2365413 14.1443392,12.2396384 L11.8339217,12.2489296 L13.013907,14.8287927 C13.6611956,16.2472528 14.1969895,17.4024616 14.2031837,17.3962675 C14.2093778,17.3900733 14.7234922,16.2317675 15.3460041,14.8195015 Z" id="path12"></path>
                        <polygon id="path14" points="24.5598008 13.7974669 24.5598008 5.94638304 25.7676598 5.94638304 26.9755189 5.94638304 26.9755189 13.7974669 26.9755189 21.6485508 25.7676598 21.6485508 24.5598008 21.6485508"></polygon>
                    </g>
                </g>
            </g>
        </g>
    </g>
</svg>