<?xml version="1.0" encoding="UTF-8" standalone="no"?>
<svg width="64px" height="7px" viewBox="0 0 64 7" version="1.1" xmlns="http://www.w3.org/2000/svg" xmlns:xlink="http://www.w3.org/1999/xlink">
    <!-- Generator: Sketch 49 (51002) - http://www.bohemiancoding.com/sketch -->
    <title>chubb</title>
    <desc>Created with Sketch.</desc>
    <defs></defs>
    <g id="Homepage" stroke="none" stroke-width="1" fill="none" fill-rule="evenodd">
        <g id="Visual---123Credit---Homepage3" transform="translate(-935.000000, -2767.000000)" fill="#2A2A2A" fill-rule="nonzero">
            <g id="Group-22-Copy-15" transform="translate(925.000000, 2729.000000)">
                <g id="chubb" transform="translate(10.000000, 38.000000)">
                    <path d="M54.1393258,3.93707865 L61.0876404,3.93707865 L61.0876404,5.59101124 L54.1393258,5.59101124 L54.1393258,3.93707865 Z M54.1393258,1.22247191 L61.0876404,1.22247191 L61.0876404,2.83146067 L54.1393258,2.83146067 L54.1393258,1.22247191 Z M60.5662921,6.71460674 C61.7977528,6.71460674 62.3640449,6.20224719 62.3640449,5.32134831 L62.3640449,4.54831461 C62.3640449,4.30561798 62.2831461,4.18876404 62.1033708,4.03595506 L61.3123596,3.35280899 L62.1033708,2.66966292 C62.2831461,2.51685393 62.3640449,2.40898876 62.3640449,2.15730337 L62.3640449,1.4741573 C62.3640449,0.593258427 61.7977528,0.0808988764 60.5662921,0.0808988764 L52.8898876,0.0808988764 L52.8898876,6.69662921 L60.5662921,6.69662921 L60.5662921,6.71460674 Z M40.7191011,3.93707865 L47.6674157,3.93707865 L47.6674157,5.59101124 L40.7191011,5.59101124 L40.7191011,3.93707865 Z M40.7191011,1.22247191 L47.6674157,1.22247191 L47.6674157,2.83146067 L40.7191011,2.83146067 L40.7191011,1.22247191 Z M47.1460674,6.71460674 C48.3775281,6.71460674 48.9438202,6.20224719 48.9438202,5.32134831 L48.9438202,4.54831461 C48.9438202,4.30561798 48.8629213,4.18876404 48.6831461,4.03595506 L47.8921348,3.35280899 L48.6831461,2.66966292 C48.8629213,2.51685393 48.9438202,2.40898876 48.9438202,2.15730337 L48.9438202,1.4741573 C48.9438202,0.593258427 48.3775281,0.0808988764 47.1460674,0.0808988764 L39.4696629,0.0808988764 L39.4696629,6.69662921 L47.1460674,6.69662921 L47.1460674,6.71460674 Z M33.9235955,0.0988764045 L33.9235955,5.53707865 L27.352809,5.53707865 L27.352809,0.0988764045 L26.1033708,0.0988764045 L26.1033708,5.20449438 C26.1033708,6.13932584 26.6696629,6.71460674 27.7932584,6.71460674 L33.4741573,6.71460674 C34.5977528,6.71460674 35.1640449,6.13932584 35.1640449,5.20449438 L35.1640449,0.0988764045 L33.9235955,0.0988764045 Z M13.8966292,2.80449438 L13.8966292,0.0988764045 L12.647191,0.0988764045 L12.647191,6.71460674 L13.8966292,6.71460674 L13.8966292,3.96404494 L20.5573034,3.96404494 L20.5573034,6.71460674 L21.8067416,6.71460674 L21.8067416,0.0988764045 L20.5573034,0.0988764045 L20.5573034,2.80449438 L13.8966292,2.80449438 Z M9.01573034,1.27640449 L9.01573034,0.0988764045 L1.68988764,0.0988764045 C0.566292135,0.0988764045 0,0.674157303 0,1.60898876 L0,5.19550562 C0,6.13033708 0.566292135,6.70561798 1.68988764,6.70561798 L9.01573034,6.70561798 L9.01573034,5.53707865 L1.27640449,5.53707865 L1.27640449,1.27640449 L9.01573034,1.27640449 Z M63.7842697,0.988764045 C63.6853933,1.08764045 63.5595506,1.14157303 63.4157303,1.14157303 C63.2719101,1.14157303 63.1460674,1.08764045 63.047191,0.988764045 C62.9483146,0.88988764 62.894382,0.764044944 62.894382,0.611235955 C62.894382,0.46741573 62.9483146,0.341573034 63.047191,0.242696629 C63.1460674,0.143820225 63.2719101,0.0898876404 63.4157303,0.0898876404 C63.5595506,0.0898876404 63.6853933,0.143820225 63.7842697,0.242696629 C63.8831461,0.341573034 63.9370787,0.46741573 63.9370787,0.611235955 C63.9370787,0.764044944 63.8831461,0.880898876 63.7842697,0.988764045 Z M63.0921348,0.296629213 C63.0022472,0.386516854 62.9573034,0.494382022 62.9573034,0.620224719 C62.9573034,0.746067416 63.0022472,0.853932584 63.0921348,0.943820225 C63.1820225,1.03370787 63.2898876,1.07865169 63.4157303,1.07865169 C63.541573,1.07865169 63.6494382,1.03370787 63.7393258,0.943820225 C63.8292135,0.853932584 63.8741573,0.746067416 63.8741573,0.620224719 C63.8741573,0.494382022 63.8292135,0.386516854 63.7393258,0.296629213 C63.6494382,0.206741573 63.541573,0.161797753 63.4157303,0.161797753 C63.2898876,0.161797753 63.1820225,0.206741573 63.0921348,0.296629213 Z M63.3977528,0.323595506 C63.4696629,0.323595506 63.5235955,0.33258427 63.5595506,0.341573034 C63.6224719,0.368539326 63.6494382,0.413483146 63.6494382,0.485393258 C63.6494382,0.539325843 63.6314607,0.575280899 63.5955056,0.602247191 C63.5775281,0.611235955 63.5505618,0.620224719 63.5146067,0.629213483 C63.5595506,0.638202247 63.5955056,0.656179775 63.6134831,0.683146067 C63.6314607,0.71011236 63.6494382,0.746067416 63.6494382,0.773033708 L63.6494382,0.862921348 C63.6494382,0.880898876 63.6494382,0.88988764 63.658427,0.88988764 L63.658427,0.898876404 L63.5505618,0.898876404 L63.5505618,0.88988764 L63.5505618,0.826966292 C63.5505618,0.764044944 63.5325843,0.719101124 63.4966292,0.692134831 C63.4786517,0.683146067 63.4337079,0.674157303 63.3797753,0.674157303 L63.2988764,0.674157303 L63.2988764,0.898876404 L63.2,0.898876404 L63.2,0.323595506 L63.3977528,0.323595506 Z M63.5146067,0.413483146 C63.4876404,0.395505618 63.4516854,0.395505618 63.388764,0.395505618 L63.2988764,0.395505618 L63.2988764,0.602247191 L63.388764,0.602247191 C63.4337079,0.602247191 63.4606742,0.602247191 63.4876404,0.593258427 C63.5235955,0.575280899 63.5505618,0.548314607 63.5505618,0.503370787 C63.5505618,0.458426966 63.541573,0.431460674 63.5146067,0.413483146 Z" id="Shape"></path>
                </g>
            </g>
        </g>
    </g>
</svg>