<?xml version="1.0" encoding="UTF-8" standalone="no"?>
<svg width="64px" height="14px" viewBox="0 0 64 14" version="1.1" xmlns="http://www.w3.org/2000/svg" xmlns:xlink="http://www.w3.org/1999/xlink">
    <!-- Generator: Sketch 49 (51002) - http://www.bohemiancoding.com/sketch -->
    <title>carters</title>
    <desc>Created with Sketch.</desc>
    <defs></defs>
    <g id="Homepage" stroke="none" stroke-width="1" fill="none" fill-rule="evenodd">
        <g id="Visual---123Credit---BrandPopup" transform="translate(-718.000000, -612.000000)" fill="#00A0CB" fill-rule="nonzero">
            <g id="Popup" transform="translate(458.000000, 195.000000)">
                <g id="Group-22-Copy-22" transform="translate(250.000000, 383.000000)">
                    <g id="carters" transform="translate(10.000000, 34.000000)">
                        <path d="M3.33466934,13.0180361 C1.9751503,12.6332665 0.88496994,11.7354709 0.371943888,10.5811623 C-0.0769539078,9.59358717 -0.115430862,7.86212425 0.256513026,6.72064128 C0.500200401,5.98957916 0.69258517,5.69458918 1.33386774,5.05330661 C2.39839679,4.00160321 3.20641283,3.68096192 4.87374749,3.66813627 C6.01523046,3.65531062 6.14348697,3.68096192 6.88737475,4.07855711 C7.32344689,4.32224449 7.79799599,4.64288577 7.95190381,4.79679359 L8.22124248,5.09178357 L7.4260521,5.82284569 L6.64368737,6.55390782 L6.29739479,6.32304609 C5.18156313,5.57915832 4.43767535,5.46372745 3.59118236,5.8997996 C2.93707415,6.23326653 2.57795591,6.75911824 2.41122244,7.65691383 C2.10340681,9.3242485 2.82164329,10.7094188 4.19398798,11.107014 C5.02765531,11.3507014 5.51503006,11.2865731 6.20761523,10.8248497 L6.70781563,10.4913828 L7.47735471,11.2609218 L8.24689379,12.0304609 L7.74669339,12.3382766 C6.47695391,13.1334669 4.71983968,13.4028056 3.33466934,13.0180361 Z M10.8376754,13.0052104 C9.3755511,12.4665331 8.67014028,10.6452906 9.3498998,9.17034068 C9.95270541,7.8749499 11.1326653,7.33627255 14.159519,6.97715431 C14.7751503,6.9002004 14.7751503,6.9002004 14.6981964,6.50260521 C14.4416834,5.20721443 12.6460922,4.91222445 11.1583166,5.8997996 L10.5811623,6.29739479 L10.0296593,5.68176353 L9.49098196,5.06613226 L9.90140281,4.70701403 C10.1322645,4.51462926 10.6452906,4.19398798 11.0300601,4.00160321 C11.658517,3.69378758 11.8893788,3.65531062 13.0180361,3.65531062 C14.6084168,3.65531062 15.3523046,3.86052104 16.0833667,4.50180361 C16.9811623,5.29699399 17.0965932,5.70741483 17.1478958,8.52905812 C17.1735471,9.8757515 17.1991984,11.4148297 17.2248497,11.9663327 L17.250501,12.9539078 L16.2116232,12.9539078 C15.1086172,12.9539078 15.006012,12.9026052 15.006012,12.2997996 C15.006012,11.9663327 14.9162325,11.991984 14.4160321,12.4408818 C13.608016,13.1462926 11.9406814,13.4028056 10.8376754,13.0052104 Z M13.6336673,11.3635271 C13.8645291,11.2737475 14.2108216,11.0044088 14.4032064,10.7863727 C14.6981964,10.4272545 14.749499,10.2476954 14.749499,9.59358717 L14.749499,8.81122244 L13.608016,8.8753507 C11.8509018,8.97795591 11.1967936,9.52945892 11.5302605,10.6452906 C11.7739479,11.4661323 12.6717435,11.7739479 13.6336673,11.3635271 Z M29.3835671,13.0436874 C28.8064128,12.8641283 28.1907816,12.2228457 27.9727455,11.5943888 C27.8573146,11.2609218 27.7803607,10.1835671 27.7418838,8.31102204 L27.6777555,5.51503006 L25.9078156,5.51503006 L25.9078156,3.71943888 L27.7034068,3.71943888 L27.7034068,2.51382766 C27.7034068,1.84689379 27.7418838,1.26973948 27.806012,1.24408818 C27.8573146,1.21843687 28.3703407,1.21843687 28.9603206,1.25691383 L30.012024,1.30821643 L30.012024,3.71943888 L32.4488978,3.71943888 L32.4488978,5.51503006 L30.012024,5.51503006 L30.012024,7.79799599 C30.012024,10.1963928 30.1274549,10.9402806 30.5250501,11.1583166 C30.6533066,11.2224449 31.1406814,11.2865731 31.5895792,11.2865731 L32.4104208,11.2865731 L32.5002004,12.0689379 C32.551503,12.50501 32.5643287,12.8769539 32.5258517,12.9154309 C32.2436874,13.1975952 30.1402806,13.2873747 29.3835671,13.0436874 Z M36.7839679,13.0052104 C35.7963928,12.7743487 35.1038076,12.4024048 34.501002,11.7995992 C33.103006,10.4016032 32.8336673,7.96472946 33.8853707,5.98957916 C34.3727455,5.09178357 35.0653307,4.43767535 36.0272545,3.98877756 C36.6557114,3.69378758 36.9122244,3.65531062 38.0921844,3.65531062 C39.2721443,3.65531062 39.5286573,3.69378758 40.1442886,3.98877756 C40.5290581,4.16833667 41.0420842,4.51462926 41.2857715,4.75831663 C42.1194389,5.57915832 42.6068136,7.16953908 42.4785571,8.56753507 L42.4272545,9.10621242 L35.6809619,9.10621242 L35.8476954,9.67054108 C36.0913828,10.4785571 36.3478958,10.812024 36.9635271,11.1583166 C37.9382766,11.7098196 39.4773547,11.4917836 40.2084168,10.7094188 L40.5162325,10.3631263 L41.195992,10.7607214 C42.3503006,11.4276553 42.298998,11.3507014 41.8757515,11.8124248 C40.7086172,13.0436874 38.7847695,13.4925852 36.7839679,13.0052104 Z M40.0801603,6.96432866 C39.9519038,6.25891784 39.6697395,5.79719439 39.208016,5.51503006 C37.8356713,4.66853707 36.1298597,5.4509018 35.7322645,7.09258517 L35.6553106,7.43887776 L40.1699399,7.43887776 L40.0801603,6.96432866 Z M54.9835671,13.0693387 C54.4064128,12.9282565 53.8292585,12.6460922 53.2521042,12.21002 L52.8288577,11.8893788 L53.3162325,11.3891784 C54.0857715,10.5811623 54.1755511,10.5683367 54.9322645,11.0557114 C55.4709419,11.402004 55.7146293,11.4789579 56.3174349,11.4789579 C56.9202405,11.4789579 57.1126253,11.4148297 57.3819639,11.1711423 C57.7667335,10.7991984 57.8180361,10.2861723 57.4973948,9.88857715 C57.3691383,9.73466934 56.6637275,9.38837675 55.9326653,9.10621242 C54.4961924,8.56753507 53.8292585,8.11863727 53.4316633,7.43887776 C52.9058116,6.55390782 53.2649299,5.11743487 54.1883768,4.4248497 C55.2144289,3.64248497 57.1254509,3.37314629 58.3823647,3.84769539 C59.0108216,4.07855711 60.0240481,4.78396794 60.0240481,4.97635271 C60.0240481,5.02765531 59.7034068,5.34829659 59.3186373,5.68176353 L58.6132265,6.29739479 L58.0360721,5.88697395 C57.048497,5.18156313 55.6633267,5.3739479 55.6633267,6.22044088 C55.6633267,6.64368737 56.1635271,7.01563126 57.1511022,7.36192385 C58.2925852,7.74669339 59.2416834,8.23406814 59.6008016,8.61883768 C60.4729459,9.55511022 60.4729459,11.0941884 59.6008016,12.0304609 C58.7543086,12.9539078 56.5611222,13.4412826 54.9835671,13.0693387 Z M18.8537074,9.20881764 C18.8537074,7.14388778 18.8152305,5.06613226 18.7639279,4.59158317 L18.6869739,3.71943888 L20.7775551,3.71943888 L20.7775551,4.55310621 C20.7775551,5.4252505 20.892986,5.60480962 21.1366733,5.07895792 C21.4573146,4.37354709 23.0476954,3.59118236 24.1763527,3.59118236 L24.753507,3.59118236 L24.753507,5.73306613 L23.8941884,5.79719439 C22.9066132,5.8741483 22.1883768,6.18196393 21.6112224,6.79759519 L21.2264529,7.19519038 L21.187976,10.0809619 L21.149499,12.9539078 L18.8537074,12.9539078 L18.8537074,9.20881764 Z M43.8509018,8.52905812 C43.8380762,6.09218437 43.8252505,4.02725451 43.8124248,3.9503006 C43.7995992,3.83486974 44.0945892,3.77074148 44.8,3.74509018 L45.7875752,3.70661323 L45.8004008,4.32224449 C45.8004008,4.84809619 46.0056112,5.70741483 46.0312625,5.30981964 C46.0569138,5.05330661 46.8649299,4.33507014 47.5062124,4.01442886 C47.9166333,3.80921844 48.4553106,3.65531062 48.955511,3.61683367 L49.7635271,3.55270541 L49.7635271,5.73306613 L48.8657315,5.79719439 C48.1731463,5.84849699 47.8268537,5.9511022 47.3651303,6.23326653 C46.2492986,6.93867735 46.2364729,6.93867735 46.197996,10.1450902 L46.159519,12.9539078 L43.8637275,12.9539078 L43.8509018,8.52905812 Z M61.6144289,6.23326653 C61.2553106,5.8741483 61.1783567,5.69458918 61.1783567,5.25851703 C61.1783567,4.82244489 61.2553106,4.64288577 61.6144289,4.28376754 C61.9863727,3.91182365 62.1402806,3.84769539 62.6533066,3.84769539 C63.1406814,3.84769539 63.3202405,3.91182365 63.6280561,4.21963928 C63.9486974,4.54028056 64,4.69418838 64,5.25851703 C64,5.82284569 63.9486974,5.97675351 63.6280561,6.29739479 C63.3202405,6.60521042 63.1406814,6.66933868 62.6533066,6.66933868 C62.1402806,6.66933868 61.9863727,6.60521042 61.6144289,6.23326653 Z M63.3074148,6.22044088 C64.256513,5.56633267 63.7819639,4.10420842 62.6148297,4.10420842 C62.0376754,4.10420842 61.4348697,4.69418838 61.4348697,5.25851703 C61.4348697,6.13066132 62.602004,6.73346693 63.3074148,6.22044088 Z" id="Shape"></path>
                        <path d="M62.0761523,5.24569138 L62.0761523,4.4761523 L62.5635271,4.51462926 C63.0380762,4.55310621 63.0380762,4.55310621 63.0509018,5.14308617 C63.0509018,5.46372745 63.1022044,5.79719439 63.153507,5.8741483 C63.2048096,5.96392786 63.1663327,6.02805611 63.0765531,6.02805611 C62.9867735,6.02805611 62.8456914,5.8997996 62.7815631,5.75871743 C62.6276553,5.41242485 62.4096192,5.4252505 62.3583166,5.77154309 C62.2685371,6.33587174 62.0761523,5.98957916 62.0761523,5.24569138 Z M62.8200401,4.96352705 C62.8456914,4.80961924 62.7815631,4.74549098 62.602004,4.74549098 C62.4480962,4.74549098 62.3326653,4.82244489 62.3326653,4.91222445 C62.3326653,5.30981964 62.7430862,5.34829659 62.8200401,4.96352705 Z M50.8280561,4.20681363 C50.8793587,4.04008016 51.1230461,3.02685371 51.3795591,1.96232465 L51.8541082,0 L52.9314629,0 C53.701002,0 53.995992,0.0384769539 53.9831663,0.166733467 C53.9831663,0.243687375 53.6496994,1.24408818 53.2521042,2.37274549 L52.5210421,4.4248497 L51.6360721,4.46332665 C50.7767535,4.50180361 50.7639279,4.50180361 50.8280561,4.20681363 Z" id="Shape"></path>
                    </g>
                </g>
            </g>
        </g>
    </g>
</svg>