<?xml version="1.0" encoding="UTF-8" standalone="no"?>
<svg width="64px" height="22px" viewBox="0 0 64 22" version="1.1" xmlns="http://www.w3.org/2000/svg" xmlns:xlink="http://www.w3.org/1999/xlink">
    <!-- Generator: Sketch 49 (51002) - http://www.bohemiancoding.com/sketch -->
    <title>Google_2015_logo</title>
    <desc>Created with Sketch.</desc>
    <defs></defs>
    <g id="Homepage" stroke="none" stroke-width="1" fill="none" fill-rule="evenodd">
        <g id="Visual---123Credit---BrandPopup" transform="translate(-618.000000, -412.000000)" fill-rule="nonzero">
            <g id="Popup" transform="translate(458.000000, 195.000000)">
                <g id="Group-22-Copy-2" transform="translate(149.000000, 187.000000)">
                    <g id="Google_2015_logo" transform="translate(11.000000, 30.000000)">
                        <path d="M27.1515152,11.1515152 C27.1515152,14.2221494 24.7569084,16.4848485 21.8181818,16.4848485 C18.8794552,16.4848485 16.4848485,14.2221494 16.4848485,11.1515152 C16.4848485,8.05923983 18.8794552,5.81818182 21.8181818,5.81818182 C24.7569084,5.81818182 27.1515152,8.05923983 27.1515152,11.1515152 Z M24.8168335,11.1515152 C24.8168335,9.23266934 23.4289683,7.91977484 21.8181818,7.91977484 C20.2073953,7.91977484 18.8195301,9.23266934 18.8195301,11.1515152 C18.8195301,13.0511244 20.2073953,14.3832555 21.8181818,14.3832555 C23.4289683,14.3832555 24.8168335,13.0487198 24.8168335,11.1515152 Z" id="Shape" fill="#EA4335"></path>
                        <path d="M38.7878788,11.1515152 C38.7878788,14.2221494 36.393272,16.4848485 33.4545455,16.4848485 C30.5158189,16.4848485 28.1212121,14.2221494 28.1212121,11.1515152 C28.1212121,8.0616444 30.5158189,5.81818182 33.4545455,5.81818182 C36.393272,5.81818182 38.7878788,8.05923983 38.7878788,11.1515152 Z M36.4531971,11.1515152 C36.4531971,9.23266934 35.065332,7.91977484 33.4545455,7.91977484 C31.8437589,7.91977484 30.4558938,9.23266934 30.4558938,11.1515152 C30.4558938,13.0511244 31.8437589,14.3832555 33.4545455,14.3832555 C35.065332,14.3832555 36.4531971,13.0487198 36.4531971,11.1515152 Z" id="Shape" fill="#FBBC05"></path>
                        <path d="M49.4545455,6.14186706 L49.4545455,15.760633 C49.4545455,19.7173227 47.251518,21.3333333 44.6471108,21.3333333 C42.1955016,21.3333333 40.7199749,19.5965446 40.1635166,18.1761945 L42.0974372,17.3235012 C42.4418028,18.1955189 43.2856125,19.2245481 44.6448302,19.2245481 C46.3119245,19.2245481 47.3450212,18.1351299 47.3450212,16.0843182 L47.3450212,15.3137541 L47.267482,15.3137541 C46.7703184,15.9635401 45.8124804,16.5311971 44.60378,16.5311971 C42.0746315,16.5311971 39.7575758,14.1977647 39.7575758,11.1952217 C39.7575758,8.17093872 42.0746315,5.81818182 44.60378,5.81818182 C45.8101998,5.81818182 46.7680379,6.38583877 47.267482,7.01630032 L47.3450212,7.01630032 L47.3450212,6.14428262 L49.4545455,6.14428262 L49.4545455,6.14186706 Z M47.5023803,11.1952217 C47.5023803,9.30866819 46.3142051,7.92938257 44.8021893,7.92938257 C43.2696485,7.92938257 41.9856894,9.30866819 41.9856894,11.1952217 C41.9856894,13.0624508 43.2696485,14.4224119 44.8021893,14.4224119 C46.3142051,14.4224119 47.5023803,13.0624508 47.5023803,11.1952217 Z" id="Shape" fill="#4285F4"></path>
                        <polygon id="Shape" fill="#34A853" points="53.3333333 0.96969697 53.3333333 16.4848485 51.3939394 16.4848485 51.3939394 0.96969697"></polygon>
                        <path d="M62.1084865,12.9092549 L63.9004467,14.1211575 C63.3220891,14.9892068 61.9283423,16.4848485 59.5200996,16.4848485 C56.5334993,16.4848485 54.3030303,14.1427986 54.3030303,11.1515152 C54.3030303,7.97988906 56.5524618,5.81818182 59.2617349,5.81818182 C61.9899706,5.81818182 63.3244595,8.02076673 63.7605979,9.21102823 L64,9.81697953 L56.972008,12.7697899 C57.5100701,13.8398229 58.3467923,14.38566 59.5200996,14.38566 C60.6957771,14.38566 61.5111664,13.7989453 62.1084865,12.9092549 Z M56.5927572,10.990409 L61.2907269,9.01144903 C61.0323622,8.3453835 60.254898,7.88130175 59.3399554,7.88130175 C58.1666481,7.88130175 56.5334993,8.93209826 56.5927572,10.990409 Z" id="Shape" fill="#EA4335"></path>
                        <path d="M8.07546182,9.79805019 L8.07546182,7.54598247 L15.4064923,7.54598247 C15.4781611,7.93847887 15.5151515,8.40277338 15.5151515,8.90536022 C15.5151515,10.5950093 15.0689551,12.6843346 13.6309542,14.172949 C12.2322555,15.6807095 10.4451579,16.4848485 8.07777371,16.4848485 C3.68979017,16.4848485 0,12.784852 0,8.24242424 C0,3.69999648 3.68979017,0 8.07777371,0 C10.5052672,0 12.2345674,0.986027523 13.5338544,2.27121388 L11.9987537,3.86034562 C11.0670586,2.9556893 9.80476197,2.25206772 8.07546182,2.25206772 C4.87117035,2.25206772 2.36507227,4.92535107 2.36507227,8.24242424 C2.36507227,11.5594974 4.87117035,14.2327808 8.07546182,14.2327808 C10.1538587,14.2327808 11.3375507,13.3688101 12.0958535,12.5838173 C12.7108185,11.9472073 13.1154008,11.0377644 13.2749218,9.79565692 L8.07546182,9.79805019 Z" id="Shape" fill="#4285F4"></path>
                    </g>
                </g>
            </g>
        </g>
    </g>
</svg>