<?xml version="1.0" encoding="UTF-8" standalone="no"?>
<svg width="64px" height="22px" viewBox="0 0 64 22" version="1.1" xmlns="http://www.w3.org/2000/svg" xmlns:xlink="http://www.w3.org/1999/xlink">
    <!-- Generator: Sketch 49 (51002) - http://www.bohemiancoding.com/sketch -->
    <title>AEON_logo</title>
    <desc>Created with Sketch.</desc>
    <defs></defs>
    <g id="Homepage" stroke="none" stroke-width="1" fill="none" fill-rule="evenodd">
        <g id="Visual---123Credit---BrandPopup" transform="translate(-818.000000, -314.000000)" fill="#B52E83">
            <g id="Popup" transform="translate(458.000000, 195.000000)">
                <g id="Group-21-Copy" transform="translate(350.000000, 89.000000)">
                    <g id="AEON_logo" transform="translate(10.000000, 30.000000)">
                        <path d="M26.8747228,12.4536863 C26.8747228,11.8378433 26.7398663,11.2561451 26.7398663,10.5034756 C26.7398663,4.72138043 31.3932678,0 36.9567676,0 C42.6556115,0 47.1741566,4.72138043 47.1741566,10.5034756 C47.1741566,16.2850758 42.6553677,21.0410959 36.9567676,21.0410959 C32.7079355,21.0410959 29.0665671,18.3723605 27.4478018,14.5063313 C26.7396225,14.5063313 25.8626897,14.5063313 24.9860007,14.5063313 C22.3559339,14.5063313 19.8607235,14.3695048 17.6691231,14.0614596 L17.6691231,18.6804057 L27.3129453,18.6804057 L27.3129453,20.7328033 L15.6121353,20.7328033 L15.6121353,13.6168353 C12.8474558,13.0351371 11.0940779,12.0088145 11.0940779,10.9480998 C11.0940779,9.92177734 12.4092333,8.72448356 15.6121353,8.14253792 L15.6121353,1.91606593 L2.63006683,20.7328033 L0,20.7328033 L13.8590012,0.444871712 L27.3131892,0.444871712 L27.3131892,2.66898285 L17.6693669,2.66898285 L17.6693669,7.83474014 C19.1191349,7.69791363 20.8727566,7.5608397 22.9292568,7.5608397 C20.8727566,7.5608397 19.1191349,7.83474014 17.6693669,8.14253792 L17.6693669,12.0088145 C19.7261109,12.2822201 22.3564216,12.5905128 25.2562014,12.5905128 C25.8629335,12.5905128 26.4362564,12.5905128 26.8749667,12.5905128 L26.8749667,12.4536863 L26.8747228,12.4536863 Z M64,0.444871712 L64,20.7328033 L61.8079118,20.7328033 L50.4111994,4.27675614 L50.4111994,20.7328033 L48.3546993,20.7328033 L48.3546993,0.444871712 L50.4111994,0.444871712 L61.8079118,17.0379928 L61.8079118,0.444871712 L64,0.444871712 Z M29.8081557,14.3695048 C35.0685332,13.7878065 38.8452458,12.5907602 38.8452458,10.9480998 C38.8452458,9.61397956 37.0923556,8.45083055 31.3932678,7.83474014 C34.7649233,8.27936442 37.0923556,9.34007912 37.0923556,10.2295751 C37.0923556,11.2558976 33.7538656,12.1453936 29.066811,12.4534388 C28.9319545,11.8375958 28.9319545,11.2558976 28.9319545,10.5032281 C28.9319545,5.91842678 32.5735667,2.22386371 36.9570115,2.22386371 C41.4755565,2.22386371 45.1508219,5.91842678 45.1508219,10.5032281 C45.1508219,15.1219268 41.4755565,18.9535638 36.9570115,18.9535638 C33.8882344,18.9538113 31.1235549,17.0377453 29.8081557,14.3695048 Z M15.6121353,11.5639428 C14.1623673,11.2561451 13.2859222,10.6744468 13.2859222,10.2295751 C13.2859222,9.78495084 14.1623673,9.16886042 15.6121353,8.72423614 L15.6121353,11.5639428 Z" id="Shape"></path>
                    </g>
                </g>
            </g>
        </g>
    </g>
</svg>