<?xml version="1.0" encoding="UTF-8" standalone="no"?>
<svg width="64px" height="52px" viewBox="0 0 64 52" version="1.1" xmlns="http://www.w3.org/2000/svg" xmlns:xlink="http://www.w3.org/1999/xlink">
    <!-- Generator: Sketch 49 (51002) - http://www.bohemiancoding.com/sketch -->
    <title>Generali_logo</title>
    <desc>Created with Sketch.</desc>
    <defs></defs>
    <g id="Homepage" stroke="none" stroke-width="1" fill="none" fill-rule="evenodd">
        <g id="Visual---123Credit---BrandPopup" transform="translate(-516.000000, -593.000000)" fill="#C5281C" fill-rule="nonzero">
            <g id="Popup" transform="translate(458.000000, 195.000000)">
                <g id="Group-22-Copy-24" transform="translate(48.000000, 383.000000)">
                    <g id="Generali_logo" transform="translate(10.000000, 15.000000)">
                        <path d="M12.7296703,45.7223051 L12.7296703,41.4321953 C15.4021978,41.4321953 16.3868132,41.2915359 16.8791209,44.5970304 L17.1604396,44.5970304 L17.1604396,40.9398876 L9.77582418,40.9398876 L9.77582418,41.4321953 L11.0417582,41.4321953 L11.0417582,50.9267008 L9.63516484,50.9267008 L9.63516484,51.4190084 L17.2307692,51.4190084 L17.2307692,47.5508766 L16.8791209,47.5508766 C16.5274725,50.5047227 15.7538462,50.9267008 13.643956,50.9267008 L12.6593407,50.9267008 L12.6593407,46.3552722 L13.221978,46.3552722 C14.1362637,46.3552722 14.6989011,46.9179095 14.9098901,48.535492 L15.2615385,48.535492 L15.2615385,43.7530744 C15.2615385,43.7530744 14.9098901,43.7530744 14.9098901,43.7530744 C14.9098901,43.7530744 14.8395604,45.7926348 13.221978,45.7926348 L12.7296703,45.7926348 L12.7296703,45.7223051 Z" id="path2"></path>
                        <path d="M9.70549451,45.8629645 L5.55604396,45.8629645 L5.55604396,46.3552722 L6.96263736,46.3552722 L6.96263736,49.7310964 C6.75164835,50.5750524 5.41538462,50.9267008 5.06373626,50.9267008 C2.39120879,50.9267008 2.6021978,47.0585689 2.6021978,46.0036238 C2.6021978,45.0893381 2.53186813,41.0805469 5.06373626,41.0805469 C6.89230769,41.0805469 7.80659341,42.8387887 8.15824176,44.4563711 L8.43956044,44.4563711 C8.43956044,43.823404 8.43956044,40.6585689 8.43956044,40.6585689 C8.43956044,40.6585689 7.17362637,41.5728546 7.17362637,41.5025249 C7.17362637,41.5025249 6.61098901,40.6585689 4.99340659,40.6585689 C1.8989011,40.6585689 0.703296703,43.7530744 0.703296703,45.9332942 C0.703296703,47.9025249 1.61758242,51.3486788 4.99340659,51.3486788 C6.04835165,51.3486788 6.75164835,50.7860414 7.17362637,50.223404 C7.17362637,50.223404 8.50989011,51.2783491 8.50989011,51.2783491 L8.50989011,46.2849425 L9.63516484,46.2849425 L9.63516484,45.8629645 L9.70549451,45.8629645 Z" id="path4"></path>
                        <path d="M58.1626374,47.4805469 C57.810989,50.4343931 57.0373626,50.8563711 54.9274725,50.8563711 L54.7868132,50.8563711 L54.7868132,41.4321953 L56.1230769,41.4321953 L56.1230769,40.9398876 L51.7626374,40.9398876 L51.7626374,41.4321953 L53.0989011,41.4321953 L53.0989011,50.9267008 L52.043956,50.9267008 L48.1758242,40.6585689 L47.6131868,40.6585689 C47.6131868,40.6585689 44.378022,49.9420854 44.378022,50.012415 C44.378022,50.012415 44.167033,50.7860414 43.6043956,50.9267008 C43.1120879,50.9267008 43.1824176,50.7157117 43.1824176,50.5750524 L43.1824176,48.746481 C43.1824176,48.2541733 43.1120879,47.1992282 42.6901099,46.7069205 C42.1274725,46.1442832 41.2131868,46.1442832 41.2131868,46.0739535 C41.2131868,46.0739535 43.6043956,45.5816458 43.6043956,43.3310964 C43.6043956,41.7135139 42.4791209,40.9398876 40.6505495,40.8695579 L35.4461538,40.8695579 L35.4461538,41.3618656 L36.7824176,41.3618656 L36.7824176,50.8563711 L35.4461538,50.8563711 L35.4461538,51.3486788 L39.7362637,51.3486788 L39.7362637,50.8563711 L38.4,50.8563711 L38.4,46.2849425 L40.1582418,46.2849425 C43.2527473,46.5662612 39.5956044,51.3486788 43.6747253,51.3486788 L46.2065934,51.3486788 L46.2065934,50.8563711 C46.0659341,50.8563711 45.1516484,50.8563711 45.0813187,50.223404 C45.010989,49.7310964 45.7142857,48.0431843 45.7142857,48.0431843 L49.2307692,48.0431843 C49.2307692,48.0431843 50.2857143,50.8563711 50.356044,50.8563711 L49.1604396,50.8563711 L49.1604396,51.3486788 L58.6549451,51.3486788 L58.6549451,47.4805469 L58.1626374,47.4805469 Z M40.0879121,45.7926348 L38.4,45.7926348 L38.4,41.4321953 L40.5802198,41.4321953 C41.8461538,41.6431843 41.9164835,43.1201073 41.9164835,43.5420854 C41.9164835,44.6673601 41.4241758,45.7926348 40.0879121,45.7926348 Z M45.9956044,47.6212062 L47.5428571,43.1201073 L49.1604396,47.6212062 L45.9956044,47.6212062 Z" id="path6"></path>
                        <path d="M30.2417582,41.3618656 C32.9142857,41.3618656 33.9692308,41.2212062 34.3912088,44.5267008 L34.6725275,44.5267008 L34.6725275,40.8695579 L23.9824176,40.8695579 L23.9824176,41.3618656 L24.2637363,41.3618656 C24.6153846,41.3618656 25.5296703,41.3618656 25.6,42.2058216 L25.6,48.2541733 L20.6065934,40.8695579 L17.8637363,40.8695579 L17.8637363,41.3618656 L18.2857143,41.3618656 C18.8483516,41.3618656 19.5516484,41.3618656 19.621978,42.2058216 L19.621978,49.9420854 C19.621978,50.7157117 18.4967033,50.9970304 18.0043956,50.9970304 L18.0043956,51.3486788 L21.7318681,51.3486788 L21.7318681,50.9970304 C21.2395604,50.9970304 20.1142857,50.7157117 20.1142857,49.9420854 L20.1142857,43.1201073 C22.0835165,45.9332942 25.810989,51.3486788 25.8813187,51.3486788 L26.0923077,51.3486788 L26.0923077,42.2058216 C26.1626374,41.4321953 27.0065934,41.3618656 27.4285714,41.3618656 L28.6241758,41.3618656 L28.6241758,50.8563711 L27.2175824,50.8563711 L27.2175824,51.3486788 L34.8131868,51.3486788 L34.8131868,47.4805469 L34.4615385,47.4805469 C34.1098901,50.4343931 33.3362637,50.8563711 31.2263736,50.8563711 L30.2417582,50.8563711 L30.2417582,46.2849425 L30.8043956,46.2849425 C31.7186813,46.2849425 32.2813187,46.8475799 32.4923077,48.4651623 L32.843956,48.4651623 L32.843956,43.6827447 C32.843956,43.6827447 32.4923077,43.6827447 32.4923077,43.6827447 C32.4923077,43.6827447 32.421978,45.7223051 30.8043956,45.7223051 L30.3120879,45.7223051 L30.3120879,41.3618656 L30.2417582,41.3618656 Z" id="path8"></path>
                        <polygon id="polygon10" points="59.0769231 40.8695579 59.0769231 41.4321953 60.4131868 41.4321953 60.4131868 50.8563711 59.0769231 50.8563711 59.0769231 51.3486788 63.367033 51.3486788 63.367033 50.8563711 61.9604396 50.8563711 61.9604396 41.4321953 63.367033 41.4321953 63.367033 40.8695579"></polygon>
                        <path d="M52.043956,34.3992282 L53.3802198,33.9069205 C55.2791209,33.1332942 55.5604396,32.6409865 55.4197802,31.3750524 L55.4197802,26.3113161 C56.8263736,29.968459 58.232967,32.5003271 60.9758242,32.5003271 C61.3274725,32.5003271 61.7494505,32.4299975 62.1714286,32.3596678 L63.2263736,32.1486788 L62.4527473,31.3047227 C61.9604396,30.812415 61.7494505,30.390437 61.4681319,29.8981293 C61.3274725,29.6871403 61.2571429,29.4761513 61.1164835,29.2651623 C60.4835165,28.2102172 58.9362637,27.8585689 57.6703297,28.4212062 C57.1076923,27.2959315 56.5450549,25.8190084 55.8417582,23.990437 L55.7010989,23.6387887 C55.5604396,23.35747 55.4901099,23.0761513 55.3494505,22.7948326 L55.3494505,22.7245029 C54.9274725,21.7398876 54.4351648,20.8256018 53.9428571,19.9113161 C53.4505495,19.0673601 52.9582418,18.3640634 52.3956044,17.7310964 C50.9186813,16.0431843 49.0197802,14.9882392 46.6989011,14.5662612 C45.0813187,14.2849425 43.956044,14.2146128 42.4791209,14.1442832 C42.1978022,14.1442832 41.8461538,14.1442832 41.5648352,14.0739535 C40.9318681,14.0036238 39.5956044,13.9332942 38.2593407,13.7926348 C37.3450549,13.7223051 36.5010989,13.6519755 35.7978022,13.5816458 C35.8681319,13.3706568 35.8681319,13.1596678 35.8681319,12.9486788 C35.8681319,12.6673601 35.8681319,12.3860414 35.7978022,12.1750524 L45.0813187,12.1750524 C47.4725275,12.1750524 49.2307692,11.1201073 50.2153846,9.01021723 C52.6065934,9.01021723 54.2945055,7.88494251 55.3494505,5.84538207 L55.7010989,5.84538207 C58.1626374,5.84538207 59.9208791,4.72010734 60.9758242,2.46955789 L61.3274725,1.83659086 L29.9604396,1.83659086 C27.9208791,1.83659086 26.1626374,3.1728546 25.4593407,5.28274471 L25.4593407,5.35307438 C24.8967033,3.8761513 23.9824176,2.61021723 22.7164835,1.83659086 C20.9582418,0.781645806 18.989011,0.429997454 17.4417582,0.922305146 C16.9494505,1.06296449 16.3868132,1.2739535 15.9648352,1.55527218 C15.6131868,1.83659086 15.0505495,2.18823921 14.6989011,2.6805469 C14.2769231,3.1728546 13.9252747,3.80582163 13.643956,4.36845899 C13.432967,4.50911833 13.2923077,4.64977767 13.221978,4.79043701 L12.8703297,5.49373372 L12.8703297,5.56406339 C12.4483516,6.54867877 11.8857143,7.25197548 11.4637363,7.81461284 C11.0417582,8.30692053 11.0417582,8.79922822 11.0417582,9.0805469 C11.1120879,9.43219526 11.2527473,9.71351394 11.4637363,9.92450295 C11.3230769,10.135492 11.2527473,10.4168106 11.2527473,10.6277997 C11.2527473,11.4717557 11.956044,12.1047227 12.8703297,12.1047227 C13.5032967,12.1047227 14.0659341,11.823404 14.6285714,11.401426 C14.8395604,11.2607667 15.4725275,10.8387887 15.6835165,10.8387887 C15.9648352,10.8387887 16.1758242,11.0497777 16.1758242,11.3310964 C16.1758242,12.0343931 15.3318681,12.3860414 14.6989011,12.3860414 L13.432967,12.5267008 C12.5186813,12.5970304 12.0967033,13.0893381 12.0967033,13.5113161 C12.0967033,13.9332942 12.3076923,14.2146128 12.4483516,14.3552722 L12.5186813,14.4256018 L12.8703297,14.7069205 L11.3934066,16.95747 C10.4087912,16.0431843 9.28351648,15.5508766 8.2989011,15.4805469 C7.66593407,15.4805469 7.1032967,15.6212062 6.68131868,16.0431843 C6.54065934,16.1838436 6.47032967,16.2541733 6.4,16.3948326 C5.34505495,16.3948326 4.5010989,16.95747 4.07912088,17.590437 C3.58681319,18.2937337 3.7978022,19.4893381 4.36043956,20.4036238 L0.843956044,21.3882392 L0.843956044,37.7047227 L63.4373626,37.7047227 L63.4373626,34.4695579 L52.043956,34.4695579 L52.043956,34.3992282 Z M60.1318681,29.968459 C60.2725275,30.179448 60.3428571,30.390437 60.4835165,30.5310964 C60.6241758,30.7420854 60.7648352,30.9530744 60.9054945,31.2343931 C59.9208791,31.1640634 59.1472527,30.601426 58.5142857,29.6168106 C59.0769231,29.335492 59.8505495,29.546481 60.1318681,29.968459 Z M46.5582418,16.0431843 C48.5978022,16.3948326 50.2153846,17.3091183 51.4813187,18.7157117 C51.7626374,18.9970304 51.9736264,19.3486788 52.2549451,19.7003271 C48.8791209,19.2783491 47.6835165,18.7860414 45.7846154,15.9025249 C46.0659341,15.9025249 46.2769231,15.9728546 46.5582418,16.0431843 Z M45.0813187,11.1201073 L38.6813187,11.1201073 C39.243956,10.6277997 39.6659341,9.99483262 40.0175824,9.29153592 L48.6681319,9.29153592 C47.9648352,10.55747 46.7692308,11.1201073 45.0813187,11.1201073 Z M50.1450549,8.02560185 L43.7450549,8.02560185 C44.3076923,7.53329416 44.8,6.90032712 45.1516484,6.12670075 L53.8021978,6.12670075 C53.0989011,7.39263482 51.9032967,8.02560185 50.1450549,8.02560185 Z M50.6373626,3.1728546 L59.2175824,3.1728546 C58.3736264,4.29812932 57.2483516,4.86076668 55.6307692,4.86076668 L49.2307692,4.86076668 C49.7934066,4.36845899 50.2857143,3.80582163 50.6373626,3.1728546 Z M15.7538462,3.45417328 C15.9648352,3.1728546 16.3164835,2.89153592 16.6681319,2.61021723 C16.9494505,2.39922822 17.3714286,2.18823921 17.7934066,2.11790954 C18.4263736,1.9772502 19.1296703,1.9772502 19.832967,2.11790954 L17.5120879,3.52450295 C17.2307692,3.52450295 16.9494505,3.45417328 16.6681319,3.45417328 C16.2461538,3.45417328 15.8945055,3.45417328 15.6131868,3.52450295 C15.6835165,3.52450295 15.6835165,3.52450295 15.7538462,3.45417328 Z M13.0813187,13.5816458 C13.0813187,13.5113161 13.1516484,13.4409865 13.221978,13.4409865 L14.3472527,13.5113161 C15.6835165,13.4409865 17.0901099,12.8783491 17.2307692,11.4717557 C17.2307692,10.4871403 16.5274725,9.5728546 15.6131868,9.5728546 C15.1208791,9.5728546 14.4879121,9.92450295 13.8549451,10.346481 C13.432967,10.6277997 13.0813187,10.8387887 12.8703297,10.8387887 C12.7296703,10.8387887 12.589011,10.6981293 12.589011,10.6277997 C12.589011,10.6277997 12.589011,10.6277997 12.589011,10.55747 L13.2923077,9.5728546 L12.6593407,9.15087657 C12.5186813,9.0805469 12.3076923,8.86955789 12.3076923,8.79922822 C12.3076923,8.72889855 12.378022,8.65856888 12.378022,8.58823921 C12.6593407,8.30692053 12.9406593,7.95527218 13.221978,7.46296449 C13.432967,7.18164581 13.5032967,7.04098647 13.7846154,7.04098647 C14.0659341,7.04098647 14.3472527,7.25197548 14.3472527,7.60362383 C14.3472527,7.81461284 14.5582418,7.95527218 14.8395604,7.95527218 C15.1208791,7.95527218 15.2615385,7.74428317 15.4021978,7.60362383 C15.4021978,7.60362383 16.0351648,7.04098647 15.6835165,6.75966778 C15.3318681,6.4783491 13.7846154,7.11131614 14.2065934,5.70472273 L14.3472527,5.49373372 C14.4879121,5.28274471 15.2615385,4.72010734 16.7384615,4.72010734 C17.0197802,4.72010734 17.3010989,4.72010734 17.6527473,4.79043701 L17.8637363,4.79043701 L21.0989011,2.82120625 C21.0989011,2.89153592 21.1692308,2.96186559 21.1692308,2.96186559 C21.3098901,3.94648097 20.7472527,5.0717557 19.7626374,5.63439306 L19.3406593,5.84538207 L19.621978,7.32230515 C18.778022,7.60362383 18.2153846,8.23659086 18.2153846,9.01021723 C18.2153846,9.29153592 18.2857143,9.64318427 18.356044,9.99483262 C18.4263736,10.4871403 18.567033,10.979448 18.567033,11.4717557 C18.567033,13.0190084 16.4571429,14.0036238 14.6989011,13.9332942 L14.6285714,13.9332942 C14.5582418,13.9332942 13.432967,13.8629645 13.1516484,13.6519755 C13.0813187,13.7223051 13.0813187,13.6519755 13.0813187,13.5816458 Z M5.06373626,18.3640634 C5.34505495,17.9420854 5.90769231,17.6607667 6.61098901,17.7310964 L7.17362637,17.801426 L7.38461538,17.3091183 C7.45494505,17.168459 7.52527473,17.0277997 7.5956044,16.95747 C7.73626374,16.8168106 8.01758242,16.746481 8.2989011,16.746481 C9.07252747,16.746481 10.0571429,17.3091183 10.8307692,18.1530744 C11.1120879,18.4343931 11.3934066,18.8563711 11.6043956,19.2080194 C11.6747253,19.2783491 11.6747253,19.3486788 11.7450549,19.4190084 C11.8153846,19.4893381 11.8857143,19.6299975 11.8857143,19.6299975 C11.8857143,19.7003271 12.3076923,20.2629645 12.3076923,20.3332942 C12.589011,19.9816458 12.8703297,19.5596678 13.0813187,19.2080194 C13.0813187,19.2080194 13.0813187,19.1376898 13.0813187,19.1376898 C13.010989,18.9970304 12.8703297,18.7860414 12.8,18.6453821 L12.7296703,18.5750524 C12.7296703,18.5750524 12.7296703,18.5750524 12.7296703,18.5750524 C12.7296703,18.5750524 12.6593407,18.5047227 12.6593407,18.4343931 C12.589011,18.2937337 12.4483516,18.0827447 12.378022,18.012415 L14.0659341,15.3398876 C14.4879121,15.4102172 14.8395604,15.4102172 15.0505495,15.4102172 L15.1208791,15.4102172 C17.5120879,15.4102172 19.9736264,14.0036238 19.9736264,11.7530744 L19.9736264,11.6827447 C19.9736264,11.0497777 19.832967,10.4871403 19.7626374,9.99483262 C19.6923077,9.64318427 19.621978,9.36186559 19.621978,9.22120625 C19.621978,8.93988756 19.9736264,8.65856888 20.4659341,8.65856888 L21.2395604,8.65856888 L20.8879121,6.68933811 C21.9428571,5.91571174 22.6461538,4.579448 22.5758242,3.38384361 C23.7714286,4.29812932 24.5450549,5.84538207 24.6857143,7.46296449 C24.756044,7.95527218 24.6153846,8.58823921 24.4747253,9.29153592 L24.4043956,9.5728546 C24.1230769,10.6981293 23.7010989,11.8937337 23.4901099,12.4563711 L23.2791209,12.9486788 L23.7714286,13.2299975 C24.6153846,13.7223051 25.178022,14.0739535 25.178022,15.1992282 C25.178022,16.535492 23.9824176,17.5201073 22.8571429,17.7310964 L21.2395604,18.012415 L22.5758242,18.9267008 C22.9978022,19.2080194 23.2791209,19.7003271 23.2791209,20.1926348 C23.2791209,21.0365909 22.5758242,21.6695579 21.7318681,21.6695579 L21.2395604,21.6695579 L21.0989011,22.0915359 C20.6065934,23.6387887 20.1142857,24.412415 18.4263736,24.623404 C18.4263736,24.1310964 18.4263736,23.6387887 18.4263736,23.0058216 C18.4263736,22.8651623 18.4263736,22.4431843 18.4263736,22.3025249 L18.356044,20.8256018 L17.3010989,21.8805469 C16.9494505,22.2321953 16.3164835,22.5135139 15.6131868,22.6541733 L15.6131868,21.3882392 L8.22857143,19.4190084 L5.62637363,20.1223051 C5.06373626,19.5596678 4.92307692,18.5750524 5.06373626,18.3640634 Z M2.95384615,34.3992282 L8.2989011,32.9926348 L13.643956,34.3992282 L2.95384615,34.3992282 Z M14.3472527,33.2739535 L8.22857143,31.6563711 L2.10989011,33.2739535 L2.10989011,22.3728546 L8.22857143,20.7552722 L14.3472527,22.3728546 L14.3472527,33.2739535 Z M17.2307692,31.1640634 C16.6681319,31.9376898 16.5978022,33.0629645 17.0197802,34.3992282 L15.6835165,34.3992282 L15.6835165,23.990437 C16.1758242,23.9201073 16.6681319,23.779448 17.1604396,23.568459 C17.1604396,23.990437 17.0901099,24.412415 17.0197802,24.8343931 C17.0197802,24.9750524 16.9494505,25.0453821 16.9494505,25.1860414 L16.8087912,25.9596678 L17.5824176,25.9596678 C18.7076923,25.9596678 19.5516484,25.7486788 20.2549451,25.4673601 L20.2549451,29.8277997 C20.2549451,29.968459 20.1846154,30.0387887 20.043956,30.0387887 L19.832967,30.0387887 C18.7076923,29.968459 17.7230769,30.390437 17.2307692,31.1640634 Z M31.2967033,31.4453821 C30.8043956,32.0080194 30.3824176,32.9223051 30.6637363,34.3992282 L22.7164835,34.3992282 C23.5604396,34.3288986 24.1934066,34.1179095 24.6153846,33.6959315 C25.1076923,33.1332942 25.178022,32.4299975 25.178022,31.8673601 C25.178022,31.7970304 25.2483516,31.6563711 25.6703297,31.4453821 L26.3736264,31.1640634 L25.9516484,30.5310964 C25.2483516,29.4761513 25.6,27.2256018 25.810989,25.9596678 L25.8813187,25.9596678 C28.5538462,25.9596678 30.3120879,25.3970304 32.1406593,24.8343931 C32.632967,24.6937337 33.1252747,24.5530744 33.6175824,24.3420854 C33.6175824,24.3420854 34.1802198,24.201426 34.8835165,23.990437 L37.4857143,28.2805469 L37.4857143,28.3508766 C37.767033,28.7025249 37.767033,28.9838436 37.2747253,29.4761513 L36.0087912,30.8827447 L33.8989011,30.4607667 C32.9846154,30.3201073 31.9296703,30.7420854 31.2967033,31.4453821 Z M32,34.3992282 C31.789011,33.4849425 31.8593407,32.7816458 32.2813187,32.2893381 C32.7032967,31.7970304 33.2659341,31.7267008 33.7582418,31.7267008 L36.2197802,32.1486788 L36.2901099,32.1486788 L36.6417582,32.1486788 L38.4,30.2497777 C38.6813187,29.8981293 39.5956044,28.8431843 38.6813187,27.5069205 L36.3604396,23.7091183 C36.7120879,23.6387887 37.1340659,23.6387887 37.4857143,23.6387887 C37.4857143,23.6387887 38.6813187,23.6387887 39.9472527,24.3420854 C40.0879121,24.6937337 40.3692308,25.1860414 40.5802198,25.7486788 C41.0725275,26.7332942 41.7054945,27.9992282 41.8461538,28.4915359 C41.9164835,28.6321953 42.0571429,29.1245029 41.4945055,29.75747 L37.0637363,34.4695579 L32,34.4695579 L32,34.3992282 Z M47.1912088,34.3992282 L38.7516484,34.3992282 L42.3384615,30.601426 C43.0417582,29.8277997 43.3230769,28.9135139 42.9714286,28.0695579 C42.8307692,27.5772502 42.3384615,26.5926348 41.8461538,25.5376898 C43.2527473,26.1706568 45.432967,26.8036238 49.8637363,27.1552722 C50.4263736,27.2256018 50.567033,27.3662612 50.6373626,27.8585689 L50.8483516,29.75747 L48.5274725,30.2497777 C47.7538462,30.390437 47.1208791,30.8827447 46.8395604,31.6563711 C46.5582418,32.5003271 46.6989011,33.4849425 47.1912088,34.3992282 Z M48.1054945,32.1486788 C48.2461538,31.7970304 48.4571429,31.5860414 48.8087912,31.5157117 L52.2549451,30.7420854 L51.9736264,27.6475799 L51.9736264,27.5772502 C51.9032967,27.1552722 51.621978,25.9596678 50.0043956,25.8190084 C43.8153846,25.3267008 42.4087912,24.412415 40.8615385,23.4277997 C40.8615385,23.4277997 40.8615385,23.4277997 40.8615385,23.4277997 L40.7912088,23.35747 C39.1736264,22.3025249 37.556044,22.3025249 37.4153846,22.3025249 C35.6571429,22.3025249 33.4769231,23.0058216 33.2659341,23.0761513 C32.7032967,23.2168106 32.210989,23.4277997 31.7186813,23.568459 C29.7494505,24.201426 28.1318681,24.7640634 25.3186813,24.623404 L24.8263736,24.623404 L24.6857143,25.1157117 C24.6153846,25.4673601 23.7714286,28.6321953 24.5450549,30.601426 C23.8417582,31.1640634 23.8417582,31.7267008 23.8417582,31.8673601 C23.8417582,32.5706568 23.7010989,32.7113161 23.6307692,32.7816458 C23.2791209,33.1332942 22.2241758,33.1332942 21.3098901,33.1332942 L20.9582418,33.1332942 L20.7472527,33.4146128 C20.1846154,34.1882392 18.989011,34.3992282 18.2153846,34.1882392 C17.8637363,33.1332942 17.8637363,32.3596678 18.2153846,31.8673601 C18.6373626,31.3047227 19.410989,31.2343931 19.7626374,31.2343931 L19.9736264,31.2343931 C20.8175824,31.2343931 21.4505495,30.5310964 21.4505495,29.75747 L21.4505495,24.201426 C21.7318681,23.8497777 21.8725275,23.35747 22.0835165,22.8651623 C23.4197802,22.6541733 24.4747253,21.5288986 24.4747253,20.1223051 C24.4747253,19.5596678 24.3340659,19.0673601 24.0527473,18.6453821 C25.3186813,18.012415 26.3736264,16.8168106 26.3736264,15.1992282 C26.3736264,13.5816458 25.5296703,12.8080194 24.756044,12.3860414 C24.967033,11.7530744 25.3186813,10.6981293 25.6,9.5728546 L26.6549451,5.70472273 C27.1472527,4.15746998 28.4131868,3.1728546 29.8901099,3.1728546 L49.0197802,3.1728546 C48.1758242,4.29812932 47.0505495,4.86076668 45.432967,4.86076668 L33.9692308,4.86076668 L33.3362637,6.12670075 L43.7450549,6.12670075 C42.9010989,7.39263482 41.7054945,8.02560185 40.0175824,8.02560185 L32.4923077,8.02560185 L31.8593407,9.29153592 L38.5406593,9.29153592 C37.6967033,10.55747 36.5714286,11.1201073 34.8835165,11.1201073 L30.8043956,11.1201073 L30.1714286,12.3860414 L34.4615385,12.3860414 C34.5318681,12.4563711 34.6021978,12.6673601 34.6021978,13.1596678 C34.6021978,14.0036238 33.8989011,14.6365909 33.0549451,14.6365909 C32.7736264,14.6365909 32.4923077,14.5662612 32.0703297,14.3552722 C31.8593407,14.2849425 31.7186813,14.2146128 31.5076923,14.1442832 L30.5230769,15.0585689 C30.7340659,15.1288986 30.8747253,15.1992282 31.0857143,15.2695579 C31.9296703,15.6212062 32.421978,15.8321953 33.0549451,15.8321953 C33.8285714,15.8321953 34.5318681,15.4805469 35.0945055,14.9882392 C35.7978022,15.0585689 36.9934066,15.1288986 38.189011,15.1992282 C39.5956044,15.3398876 40.8615385,15.4102172 41.5648352,15.4805469 C41.9164835,15.4805469 42.1978022,15.4805469 42.5494505,15.5508766 C43.1120879,15.5508766 43.6747253,15.6212062 44.167033,15.6212062 C46.7692308,19.8409865 48.1054945,20.4036238 53.1692308,21.0365909 C53.5208791,21.6695579 53.8725275,22.3728546 54.1538462,23.0761513 L54.1538462,31.3047227 L54.1538462,31.3750524 C54.1538462,31.7267008 54.1538462,31.8673601 54.1538462,31.9376898 C53.9428571,32.1486788 53.1692308,32.5003271 52.9582418,32.5706568 L48.6681319,34.3288986 C48.1054945,33.5552722 47.8945055,32.7816458 48.1054945,32.1486788 Z" id="path12"></path>
                        <polygon id="polygon14" points="8.93186813 24.3420854 13.010989 25.3970304 13.010989 24.0607667 8.93186813 23.0058216"></polygon>
                        <polygon id="polygon16" points="7.5956044 23.0058216 3.51648352 24.0607667 3.51648352 25.3970304 7.5956044 24.3420854"></polygon>
                        <polygon id="polygon18" points="7.5956044 25.6783491 3.51648352 26.7332942 3.51648352 28.0695579 7.5956044 27.0146128"></polygon>
                        <polygon id="polygon20" points="8.93186813 27.0146128 13.010989 28.0695579 13.010989 26.7332942 8.93186813 25.6783491"></polygon>
                        <polygon id="polygon22" points="8.93186813 29.6871403 13.010989 30.7420854 13.010989 29.4058216 8.93186813 28.3508766"></polygon>
                        <polygon id="polygon24" points="7.5956044 28.3508766 3.51648352 29.4058216 3.51648352 30.7420854 7.5956044 29.6871403"></polygon>
                    </g>
                </g>
            </g>
        </g>
    </g>
</svg>