<?xml version="1.0" encoding="UTF-8" standalone="no"?>
<svg width="56px" height="34px" viewBox="0 0 56 34" version="1.1" xmlns="http://www.w3.org/2000/svg" xmlns:xlink="http://www.w3.org/1999/xlink">
    <!-- Generator: Sketch 49 (51002) - http://www.bohemiancoding.com/sketch -->
    <title>fpt</title>
    <desc>Created with Sketch.</desc>
    <defs></defs>
    <g id="Homepage" stroke="none" stroke-width="1" fill="none" fill-rule="evenodd">
        <g id="Visual---123Credit---BrandPopup" transform="translate(-922.000000, -308.000000)" fill-rule="nonzero">
            <g id="Popup" transform="translate(458.000000, 195.000000)">
                <g id="Group-22-Copy-7" transform="translate(450.000000, 89.000000)">
                    <g id="fpt" transform="translate(14.000000, 24.000000)">
                        <path d="M52.0701754,25.5438884 C52.0701754,24.7491671 52.5489039,24.0326993 53.2831306,23.7285727 C54.0173573,23.424446 54.8624887,23.5925531 55.4244415,24.1545059 C55.9863943,24.7164586 56.1545014,25.5615901 55.8503747,26.2958168 C55.5462481,27.0300434 54.8297802,27.5087719 54.035059,27.5087719 C52.9498838,27.5087719 52.0701754,26.6290636 52.0701754,25.5438884 Z M55.5249158,25.5438884 C55.4732566,24.735454 54.7851119,24.1164421 53.9757385,24.1503454 C53.1663651,24.1842487 52.532399,24.8586417 52.5485301,25.6685642 C52.5646612,26.4784867 53.2249775,27.1271017 54.035059,27.1287505 C54.4452094,27.1233765 54.8355618,26.9515341 55.1165107,26.6526697 C55.3974596,26.3538052 55.5448743,25.9535882 55.5249158,25.5438884 Z M53.2793346,24.4210978 L54.1084722,24.4210978 C54.6396386,24.4210978 54.9332915,24.6067901 54.9332915,25.07318 C54.9446022,25.2321501 54.8872847,25.388352 54.7758368,25.5022765 C54.664389,25.616201 54.5094843,25.6769372 54.3503041,25.6691227 L54.9505652,26.6407684 L54.5187226,26.6407684 L53.9443721,25.682078 L53.6939034,25.682078 L53.6939034,26.6407684 L53.2620609,26.6407684 L53.2793346,24.4210978 Z M53.7111771,25.3754698 L54.0782433,25.3754698 C54.3200751,25.3754698 54.5359964,25.3409224 54.5359964,25.042951 C54.5359964,24.7449797 54.298483,24.7363428 54.1041538,24.7363428 L53.7327692,24.7363428 L53.7111771,25.3754698 Z" id="Shape" fill="#08509F"></path>
                        <path d="M10.9125325,5.89932682 C7.84693308,5.89959742 5.12668321,7.84947514 4.16332311,10.7371666 L4.10318622,10.9253558 L3.94590512,11.5312332 L0,28.4912281 L9.94109039,28.4912122 C12.8357555,28.4973777 15.4245849,26.7047784 16.4173708,24.006801 L16.7920699,22.3911278 L20.6315789,5.89473684 L10.9125325,5.89932682 Z" id="Shape" fill="#08509F"></path>
                        <path d="M28.8706001,0 C25.7839606,0.0024601555 23.0729449,2.06273306 22.2274835,5.04852597 C22.1645156,5.26566688 22.1135416,5.48733155 22.0745614,5.71351999 L15.7192982,33.4035088 L25.1644877,33.4035088 C28.3305571,33.402888 31.0915513,31.2390713 31.8660744,28.1514132 L38.3157895,0 L28.8706001,0 Z" id="Shape" fill="#F27123"></path>
                        <path d="M45.3009447,5.89473684 C42.3487991,5.89485302 39.7041151,7.70539736 38.6566416,10.443411 C38.6057451,10.5811105 38.425294,11.1410886 38.425294,11.1410886 L34.3859649,28.4912281 L44.1025641,28.4912281 C47.3694151,28.4895399 50.2149251,26.2801645 51.0013495,23.1347167 L55.0175439,5.89473684 L45.3009447,5.89473684 Z" id="Shape" fill="#51B748"></path>
                        <path d="M7.01802059,11.4447943 C6.53718948,11.7922723 6.18291692,12.2718176 6.00419527,12.817114 L3.92982456,21.6140351 L4.04662471,21.6140351 C4.70950036,21.6074623 5.34845211,21.3799363 5.85001907,20.9718598 C6.38237746,20.5899429 6.75726376,20.0457673 6.91056445,19.4323987 L7.42915713,17.1891838 L11.8815789,17.1891838 C12.5472251,17.1824115 13.1890508,16.9550402 13.6943173,16.5470085 C14.2239008,16.157525 14.5937314,15.6072809 14.7408467,14.9899535 L14.7642067,14.879992 L7.97578185,14.879992 L8.39159039,13.1206078 L14.8249428,13.1206078 C15.4888378,13.1162984 16.1295592,12.8902905 16.6330092,12.482831 C17.1503167,12.0831643 17.5105318,11.5318933 17.6561785,10.9169791 L17.6842105,10.8070175 L8.80739893,10.8070175 C8.14393114,10.8148141 7.50491009,11.0439233 7.00400458,11.4535912" id="Shape" fill="#FFFFFF"></path>
                        <path d="M50.5837819,11.314505 C50.2131773,10.9691017 49.7062547,10.7857833 49.1858736,10.8089796 L40.3324546,10.8089796 L40.3324546,10.8837094 C40.3006328,11.0283738 40.28347,11.1755659 40.281198,11.3232967 C40.2695644,11.7991372 40.4629102,12.2590998 40.8170628,12.5980998 C41.1876674,12.9435031 41.6945899,13.1268214 42.2149711,13.1036252 L44.1254457,13.1036252 L42.1963323,21.6140351 L42.3174843,21.6140351 C42.9764171,21.6076559 43.6117843,21.38191 44.1114666,20.9766335 C44.6362501,20.5875552 44.9991583,20.036665 45.1365993,19.4204945 L46.5345076,13.1212087 L51.0357722,13.1212087 L51.0357722,13.0464789 C51.0690573,12.8901586 51.0862229,12.7311656 51.0870289,12.5717246 C51.1008421,12.0994046 50.9068778,11.6427441 50.551164,11.3101091" id="Shape" fill="#FFFFFF"></path>
                        <path d="M31.4637761,10.8214364 L25.5072274,10.8214364 L23.0624446,10.8214364 L20.6315789,21.6140351 L20.7475554,21.6140351 C21.4041554,21.6064522 22.0367767,21.379756 22.5335921,20.9740191 C23.0542465,20.5863688 23.4152379,20.0390287 23.5541846,19.4265831 L24.0505636,17.1865271 L30.0813372,17.1865271 C30.7373515,17.1801656 31.3699048,16.9550463 31.867374,16.5508948 C32.3849264,16.1569035 32.7449151,15.6079913 32.8879664,14.9946915 L33.3518721,13.0439577 C33.385514,12.8881437 33.4026087,12.7295449 33.4029017,12.5705212 C33.4159186,12.0979148 33.2191066,11.6417143 32.8601321,11.3124076 C32.488418,10.9720159 31.9856705,10.7899054 31.4684151,10.8082854 L31.4637761,10.8214364 Z M24.9737359,13.1184801 L30.8792549,13.1184801 L30.471018,14.8719487 L24.570138,14.8719487 L24.9737359,13.1184801 Z" id="Shape" fill="#FFFFFF"></path>
                    </g>
                </g>
            </g>
        </g>
    </g>
</svg>