<svg xmlns="http://www.w3.org/2000/svg" viewBox="0 0 26.68 43"><defs><style>.cls-1{fill:none;}.cls-2{fill:#192c34;}</style></defs><title>yte</title><g id="Layer_2" data-name="Layer 2"><g id="Layer_1-2" data-name="Layer 1"><path class="cls-1" d="M23.08,38.6a1.61,1.61,0,0,0-.4-.7c-.2-.2-.4-.3-.6-.5a1.88,1.88,0,0,0-.8-.2,1.45,1.45,0,0,0-.7.2c-.2.1-.4.3-.6.4a1.61,1.61,0,0,0-.4.7,2.35,2.35,0,0,0-.2.8h4A4.88,4.88,0,0,1,23.08,38.6Z"/><polygon class="cls-2" points="5.97 42.9 5.97 39.5 9.47 34.5 8.38 34.5 5.47 38.7 2.67 34.5 1.48 34.4 4.97 39.5 4.97 42.9 5.97 42.9"/><path class="cls-2" d="M14.18,34.8v1.9h-.9v.8h.9v3.7a2,2,0,0,0,.1.8,1,1,0,0,0,.4.5,3.33,3.33,0,0,0,.6.3,1.48,1.48,0,0,0,.7.1,1.27,1.27,0,0,0,.6-.1.76.76,0,0,0,.5-.2v-.8c-.2.1-.3.1-.5.2h-.4c-.2,0-.3,0-.4-.1s-.2-.1-.3-.2-.2-.2-.2-.3a.75.75,0,0,1-.1-.5V37.3h2v-.8h-2V34.6Z"/><polygon class="cls-2" points="21.27 34.9 22.18 35.7 22.98 35.7 21.68 34.2 20.88 34.2 19.57 35.7 20.38 35.7 21.27 34.9"/><path class="cls-2" d="M18.58,38.5a4.32,4.32,0,0,0,0,2.6,3.51,3.51,0,0,0,1.7,1.7,2.54,2.54,0,0,0,1.2.2,2,2,0,0,0,.8-.1c.2-.1.5-.1.7-.2a2.09,2.09,0,0,0,.6-.4c.2-.1.3-.3.5-.5l-.6-.5a1.8,1.8,0,0,1-.9.6,2,2,0,0,1-1.1.2,2.2,2.2,0,0,1-.8-.1,2.51,2.51,0,0,1-.7-.4,2.65,2.65,0,0,1-.5-.6,2.39,2.39,0,0,1-.2-.9h4.9v-.3a5.07,5.07,0,0,0-.2-1.3,2.07,2.07,0,0,0-.6-1,2.18,2.18,0,0,0-.9-.7,2.55,2.55,0,0,0-2.4,0,2.18,2.18,0,0,0-.9.7A2.07,2.07,0,0,0,18.58,38.5Zm.9.1a4.35,4.35,0,0,1,.4-.7,2.09,2.09,0,0,1,.6-.4,1.85,1.85,0,0,1,.7-.2,1.88,1.88,0,0,1,.8.2,2.65,2.65,0,0,1,.6.5,1.61,1.61,0,0,1,.4.7,2.35,2.35,0,0,1,.2.8h-4A4.65,4.65,0,0,1,19.48,38.6Z"/><polygon class="cls-2" points="22.48 34.8 23.27 34.8 24.57 33.5 23.68 33.1 22.48 34.8"/><path class="cls-1" d="M23.68,11.9a6.28,6.28,0,0,0,0-8.8,6,6,0,0,0-4.4-1.8,6,6,0,0,0-4.4,1.8l-1.2,1.2a.61.61,0,0,1-.8,0l-1.2-1.2a6,6,0,0,0-4.4-1.8,6,6,0,0,0-4.4,1.8,6.28,6.28,0,0,0,0,8.8l10.4,10.4Z"/><path class="cls-2" d="M13.28,23.6a.76.76,0,0,0,.4-.2l10.8-10.7a7.26,7.26,0,0,0,2.2-5.2,7.6,7.6,0,0,0-2.1-5.2A7.26,7.26,0,0,0,19.38.1a7.6,7.6,0,0,0-5.2,2.1l-.8.8-.8-.8A7.26,7.26,0,0,0,7.38,0a7.6,7.6,0,0,0-5.2,2.1,7.3,7.3,0,0,0,0,10.4L13,23.4C13.08,23.6,13.18,23.6,13.28,23.6ZM3,3a6.2,6.2,0,0,1,4.4-1.8A6.47,6.47,0,0,1,11.78,3L13,4.2a.61.61,0,0,0,.8,0L15,3a6.2,6.2,0,0,1,4.4-1.8A6.47,6.47,0,0,1,23.78,3a6.28,6.28,0,0,1,0,8.8L13.28,22.3,3,11.9A6.22,6.22,0,0,1,3,3Z"/><path class="cls-2" d="M8.08,11.3c.2,0,.3-.1.4-.3l1.6-3.4,3,8.4a.66.66,0,0,0,.5.4h0a.51.51,0,0,0,.5-.4l2.5-7,.8,1.7a.71.71,0,0,0,.6.3h8c.3,0,.4-.2.4-.5a.47.47,0,0,0-.5-.5h-7.7L17,7.4a.55.55,0,0,0-.5-.3.51.51,0,0,0-.5.4l-2.4,6.9-2.9-8.2a1,1,0,0,0-.5-.4.55.55,0,0,0-.5.3l-2,4.2H1.08a.47.47,0,0,0-.5.5c0,.3.4.5.6.5Z"/></g></g></svg>