<?xml version="1.0" encoding="UTF-8" standalone="no"?>
<svg width="66px" height="13px" viewBox="0 0 66 13" version="1.1" xmlns="http://www.w3.org/2000/svg" xmlns:xlink="http://www.w3.org/1999/xlink">
    <!-- Generator: Sketch 49 (51002) - http://www.bohemiancoding.com/sketch -->
    <title>Lotte_logo</title>
    <desc>Created with Sketch.</desc>
    <defs></defs>
    <g id="Homepage" stroke="none" stroke-width="1" fill="none" fill-rule="evenodd">
        <g id="Visual---123Credit---BrandPopup" transform="translate(-716.000000, -319.000000)" fill="#E60012" fill-rule="nonzero">
            <g id="Popup" transform="translate(458.000000, 195.000000)">
                <g id="Group-23" transform="translate(249.000000, 89.000000)">
                    <g id="Lotte_logo" transform="translate(9.000000, 35.000000)">
                        <path d="M18.17254,0 C13.3877002,0 10.5217391,2.781029 10.5217391,6.2194238 C10.5217391,9.65259219 13.3877002,12.4347826 18.17254,12.4347826 C22.9558543,12.4347826 25.826087,9.65259219 25.826087,6.2194238 C25.826087,2.781029 22.9561594,0 18.17254,0 M18.17254,11.1003068 C15.8783677,11.1003068 14.1355412,8.91073281 14.1355412,6.21913344 C14.1355412,3.51562947 15.8783677,1.33012047 18.17254,1.33012047 C20.4676277,1.33012047 22.209844,3.51562947 22.209844,6.21913344 C22.209844,8.91073281 20.4676277,11.1003068 18.17254,11.1003068" id="Shape"></path>
                        <polygon id="Shape" points="39.2173913 0 26.7826087 0 26.7826087 1.3930955 31.5449027 1.3930955 31.5449027 11.4782609 35.1376928 11.4782609 35.1376928 1.3930955 39.2173913 1.3930955"></polygon>
                        <polygon id="Shape" points="52.6086957 0 40.173913 0 40.173913 1.3930955 44.2517805 1.3930955 44.2517805 11.4782609 47.8375214 11.4782609 47.8375214 1.3930955 52.6086957 1.3930955"></polygon>
                        <path d="M4.26952254,10.1082244 C3.8782367,10.1082244 3.56037291,9.80167726 3.56037291,9.42291611 L3.56037291,0 L0,0 L0,10.1148947 C0,10.8689368 0.632444479,11.4782609 1.41710542,11.4782609 L10.5217391,11.4782609 L10.5217391,10.1079344 L4.26952254,10.1079344 L4.26952254,10.1082244 Z" id="Shape"></path>
                        <path d="M58.9299207,1.37221794 L66,1.37221794 L66,0 L55.9857983,0 C55.1788269,0 54.5217391,0.63391133 54.5217391,1.38091754 L54.5217391,10.1156125 C54.5217391,10.8689984 55.1788269,11.4782609 55.9857983,11.4782609 L66,11.4782609 L66,10.1234421 L58.9299207,10.1234421 C58.5282816,10.1234421 58.1989683,9.82040585 58.1989683,9.44139299 L58.1989683,6.05898597 L65.8907419,6.05898597 L65.8907419,4.71895657 L58.1989683,4.71895657 L58.1989683,2.05571703 C58.1989683,1.68076398 58.5282816,1.37221794 58.9299207,1.37221794" id="Shape"></path>
                    </g>
                </g>
            </g>
        </g>
    </g>
</svg>