<?xml version="1.0" encoding="UTF-8" standalone="no"?>
<svg width="63px" height="21px" viewBox="0 0 63 21" version="1.1" xmlns="http://www.w3.org/2000/svg" xmlns:xlink="http://www.w3.org/1999/xlink">
    <!-- Generator: Sketch 49 (51002) - http://www.bohemiancoding.com/sketch -->
    <title>Grab_(application)_logo</title>
    <desc>Created with Sketch.</desc>
    <defs></defs>
    <g id="Homepage" stroke="none" stroke-width="1" fill="none" fill-rule="evenodd">
        <g id="Visual---123Credit---BrandPopup" transform="translate(-920.000000, -413.000000)" fill="#1AAE48" fill-rule="nonzero">
            <g id="Popup" transform="translate(458.000000, 195.000000)">
                <g id="Group-22-Copy-5" transform="translate(451.000000, 187.000000)">
                    <g id="Grab_(application)_logo" transform="translate(10.000000, 30.000000)">
                        <g id="g1762" transform="translate(32.261854, 11.478553) scale(-1, 1) rotate(-180.000000) translate(-32.261854, -11.478553) translate(1.268724, 1.071609)">
                            <path d="M59.523231,13.0527775 C58.0766112,14.2952608 56.1784359,14.9796497 54.1772239,14.9796497 C52.7137734,14.9796497 51.2433443,14.5111608 50.4350599,14.0486691 C48.7618413,13.0908775 47.3866495,12.0512414 44.9108936,9.30239702 L44.9108936,7.32648873 C47.0114479,9.67810534 48.9991133,11.531247 50.5081298,12.5504219 C51.49991,13.2348108 52.9071213,13.6588497 54.1772239,13.6588497 C57.4555171,13.6588497 60.2264261,11.2786581 60.2264261,8.4599637 L60.2264261,7.27074984 C60.2264261,5.8779832 59.5901433,4.56953045 58.4304666,3.58457492 C57.2826945,2.60879161 55.7708044,2.07151107 54.1772239,2.07151107 C51.4830793,2.07151107 49.1115916,3.66077492 48.4670987,5.83106376 L47.3841864,4.70288045 C48.1739981,2.42887495 51.0265977,0.751063872 54.1772239,0.751063872 C56.1784359,0.751063872 58.0766112,1.43651108 59.523231,2.67652494 C60.9677983,3.91900825 61.7629465,5.55025266 61.7629465,7.27074984 L61.7629465,8.4599637 C61.7629465,10.1797553 60.9677983,11.8117053 59.523231,13.0527775 Z M26.6085263,13.6588497 C27.6524406,13.6588497 28.5551412,13.466233 29.3699937,13.0697108 C29.7529949,13.4810497 30.1396906,13.8151303 30.4278652,14.0624275 C29.5658046,14.628283 28.1060487,14.9796497 26.6085263,14.9796497 C24.4743106,14.9796497 22.5363163,14.3181914 21.1525038,13.1162775 C19.7789539,11.9252997 19.0203406,10.2718303 19.0203406,8.4599637 L19.0203406,0.751063872 L20.556861,0.751063872 L20.556861,8.4599637 C20.556861,11.5210164 23.0453425,13.6588497 26.6085263,13.6588497 Z M41.2101906,0.751063872 L41.2101906,8.4599637 C41.2101906,10.8299248 39.0497026,12.6869469 36.2915192,12.6869469 C35.0070489,12.6869469 33.7808704,12.2399775 32.8358878,11.4289414 C31.8929577,10.6186109 31.3732583,9.56309979 31.3732583,8.4599637 L31.3732583,7.27074984 C31.3732583,4.98016378 33.6265205,3.04341382 36.2915192,3.04341382 C37.0222182,3.04341382 38.0168719,3.19793049 38.6256509,3.62726103 L38.6256509,5.02284989 C38.027545,4.60974712 37.1593269,4.36386101 36.2915192,4.36386101 C34.3958069,4.36386101 32.9097787,5.6416221 32.9097787,7.27074984 L32.9097787,8.4599637 C32.9097787,10.0894442 34.3958069,11.3650886 36.2915192,11.3650886 C38.1888735,11.3650886 39.6736702,10.0894442 39.6736702,8.4599637 L39.6736702,0.751063872 L41.2101906,0.751063872 Z M0.0488500999,9.22513869 L0.0488500999,8.79863036 C0.0488500999,6.50910263 1.05951351,4.37268046 2.89570256,2.78376938 C4.72737606,1.19838608 7.18260671,0.326672215 9.80901797,0.326672215 C11.9206559,0.326672215 13.7905064,0.737305539 15.3688982,1.5441083 C16.6701992,2.21085828 17.2469588,2.88466383 17.2966299,2.94639994 L17.2966299,10.054872 L9.43586888,10.054872 L9.43586888,8.73371925 L15.7601096,8.73371925 L15.7601096,3.35668048 L15.753952,3.35209437 C15.0134009,2.71462494 13.2556183,1.64817774 9.80901797,1.64817774 C7.56314488,1.64817774 5.48393685,2.38371939 3.95070052,3.72251103 C2.42526378,5.05495267 1.58537047,6.85799985 1.58537047,8.79863036 L1.58537047,9.22513869 C1.58537047,11.0574664 2.54718378,12.8855608 4.22286536,14.2381108 C5.93385037,15.6164135 8.16289275,16.3762969 10.500719,16.3762969 C12.6809112,16.3762969 14.1997799,16.091958 15.4198009,15.456958 L15.4198009,16.9389774 C14.1496983,17.4032329 12.6316506,17.6117246 10.500719,17.6117246 C4.83574939,17.6117246 0.0488500999,13.7703275 0.0488500999,9.22513869 Z M26.6085263,11.3650886 C27.1914434,11.3650886 27.685281,11.2821859 28.0785448,11.1177914 C28.2698402,11.5277192 28.4660616,11.8656803 28.7521836,12.2759608 C28.3342895,12.5327831 27.3396358,12.6869469 26.6085263,12.6869469 C23.8047768,12.6869469 21.6898549,10.8697886 21.6898549,8.4599637 L21.6898549,0.751063872 L23.2263752,0.751063872 L23.2263752,8.4599637 C23.2263752,10.1712887 24.6175768,11.3650886 26.6085263,11.3650886 Z M15.4198009,12.9155469 L15.4198009,14.4769413 C14.0294203,15.1179386 12.5121937,15.4036885 10.500719,15.4036885 C8.44819375,15.4036885 6.50239986,14.7563413 5.01965565,13.583708 C3.53567992,12.4068414 2.71754337,10.8588525 2.71754337,9.22513869 L2.71754337,8.79863036 C2.71754337,5.39114988 5.89813644,2.61937494 9.80901797,2.61937494 C12.9900215,2.61937494 14.2958381,3.51401937 14.6283472,3.79694714 L14.6283472,7.76146372 L9.43586888,7.76146372 L9.43586888,6.4413693 L13.1907585,6.4413693 L13.1907585,4.45487768 L13.1772118,4.45099712 C12.6940474,4.28554435 11.6907731,3.94052769 9.80901797,3.94052769 C8.31724264,3.94052769 6.9215255,4.43900268 5.87802169,5.34669988 C4.82959181,6.25757208 4.25406374,7.48418039 4.25406374,8.79863036 L4.25406374,9.22513869 C4.25406374,11.858272 7.11487338,14.0825358 10.500719,14.0825358 C12.8430607,14.0825358 14.2281047,13.7565691 15.4198009,12.9155469 Z M51.6916158,10.4277581 C52.3849588,11.0221886 53.2925855,11.3650886 54.1772239,11.3650886 C56.0729361,11.3650886 57.5597854,10.0894442 57.5597854,8.4599637 L57.5597854,7.27074984 C57.5597854,5.6416221 56.0729361,4.36386101 54.1772239,4.36386101 C53.2593346,4.36386101 52.3726437,4.79742489 51.6780692,5.58094432 C51.0623116,6.27379986 50.6633007,7.2111304 50.6017249,8.05356371 L49.3574842,6.74793318 C49.6017347,5.74921932 50.2092821,4.79213323 51.0676482,4.11938602 C51.953518,3.42653048 53.0577766,3.04341382 54.1772239,3.04341382 C56.8902517,3.04341382 59.0954848,4.93994711 59.0954848,7.27074984 L59.0954848,8.4599637 C59.0954848,9.56309979 58.5757854,10.6186109 57.6328553,11.4289414 C56.6882832,12.2399775 55.4616941,12.6869469 54.1772239,12.6869469 C53.3652449,12.6869469 52.073796,12.4368275 50.5348126,11.2476136 L50.5294761,11.2430275 C50.1177395,10.8888386 49.1505896,10.0576942 48.5623359,9.46502757 C47.5730187,8.53757481 46.1354301,7.13739984 44.9108936,5.73651932 L44.9108936,3.67453325 C46.2700757,5.17524989 47.0524984,6.01591931 48.32999,7.28380262 C49.4740676,8.43103593 50.89031,9.82521367 51.6916158,10.4277581 Z M28.7057965,7.27074984 C28.7057965,5.55025266 29.5017658,3.91900825 30.9463331,2.67652494 C32.3921318,1.43651108 34.2907176,0.751063872 36.2915192,0.751063872 C37.1392121,0.751063872 38.0098933,0.906638869 38.6256509,1.16734164 L38.6256509,2.4867305 C37.906446,2.22779162 37.0374069,2.07151107 36.2915192,2.07151107 C33.0132259,2.07151107 30.2414959,4.45205546 30.2414959,7.27074984 L30.2414959,8.4599637 C30.2414959,11.2786581 33.0132259,13.6588497 36.2915192,13.6588497 C37.9216347,13.6588497 39.4454294,13.1226275 40.5821179,12.1457858 C41.7175748,11.1700025 42.3415425,9.86084423 42.3415425,8.4599637 L42.3415425,0.751063872 L43.8780629,0.751063872 L43.8780629,8.7139637 C43.7824152,10.3963609 42.9466269,11.9704553 41.525048,13.1473219 C40.1014165,14.3287747 38.2405971,14.9796497 36.2915192,14.9796497 C34.2907176,14.9796497 32.3921318,14.2952608 30.9463331,13.0527775 C29.5017658,11.8117053 28.7057965,10.1797553 28.7057965,8.4599637 L28.7057965,7.27074984 Z M46.49298,12.3828525 C46.9634188,12.8682747 47.4502777,13.361458 48.0274478,13.7777358 L48.0274478,20.7532107 L46.49298,20.7532107 L46.49298,12.3828525 Z M49.1596207,14.3181914 L49.1596207,20.7532107 L50.6953201,20.7532107 L50.6953201,15.2237719 C50.278247,15.0427969 49.6953298,14.6984858 49.1596207,14.3181914 Z" id="path1764"></path>
                        </g>
                    </g>
                </g>
            </g>
        </g>
    </g>
</svg>