<?xml version="1.0" encoding="UTF-8" standalone="no"?>
<svg width="64px" height="13px" viewBox="0 0 64 13" version="1.1" xmlns="http://www.w3.org/2000/svg" xmlns:xlink="http://www.w3.org/1999/xlink">
    <!-- Generator: Sketch 49 (51002) - http://www.bohemiancoding.com/sketch -->
    <title>VietJet_Air_logo</title>
    <desc>Created with Sketch.</desc>
    <defs></defs>
    <g id="Homepage" stroke="none" stroke-width="1" fill="none" fill-rule="evenodd">
        <g id="Visual---123Credit---BrandPopup" transform="translate(-1019.000000, -417.000000)" fill="#ED1D24" fill-rule="nonzero">
            <g id="Popup" transform="translate(458.000000, 195.000000)">
                <g id="Group-22-Copy-6" transform="translate(551.000000, 187.000000)">
                    <g id="VietJet_Air_logo" transform="translate(10.000000, 35.000000)">
                        <g id="g15161" transform="translate(12.043011, 5.849462) scale(-1, 1) rotate(-180.000000) translate(-12.043011, -5.849462) translate(8.946237, 2.064516)">
                            <path d="M5.82922201,3.24423963 L1.84276281,3.24423963 C1.80487287,2.33729442 2.15790512,1.68448131 3.15943833,1.68448131 C3.87424668,1.68448131 4.5872334,1.90545008 4.96103226,2.08820891 L5.15011765,0.828002048 C4.59889184,0.545032258 3.72086528,0.308923707 2.72078937,0.308923707 C1.01574194,0.308923707 0.0153017078,1.30778904 0.0153017078,2.99551459 C0.0153017078,4.02069432 0.351574953,5.18934153 0.929760911,6.0169831 C1.57971917,6.96574296 2.56850095,7.56160164 3.79482353,7.56160164 C5.28746869,7.56160164 6.1246907,6.65573784 6.1246907,5.10030517 C6.1246907,4.70919406 6.01903605,3.84550538 5.82922201,3.24423963 M3.55801139,6.38033794 C2.99622011,6.38033794 2.52040987,5.97805223 2.19251613,5.29423861 C2.0580797,4.99396621 2.03439848,4.91213927 1.94368121,4.54229595 L4.29467932,4.54229595 C4.34859962,4.74776446 4.39851233,5.08480492 4.39851233,5.30613415 C4.39851233,6.00688991 4.09648577,6.38033794 3.55801139,6.38033794" id="path15163"></path>
                        </g>
                        <polygon id="path15167" points="2.55601632 11.0107527 0.818987537 11.0107527 0 2.06451613 1.89888828 2.06451613 2.2477296 8.14649439 4.91894969 2.06451613 6.88172043 2.06451613 2.55601632 11.0107527"></polygon>
                        <g id="g15177" transform="translate(17.204301, 4.473118) scale(-1, 1) rotate(-180.000000) translate(-17.204301, -4.473118) translate(15.139785, 0.000000)">
                            <path d="M3.78494624,5.7255914 L2.79776344,5.7255914 L2.10443011,2.09306151 C2.08275269,1.98749591 1.96954839,1.35624946 2.55415054,1.32368516 C2.71931183,1.31044473 2.96395699,1.35768086 3.07165591,1.40992688 C3.07165591,1.40992688 2.78606452,0.00608344086 1.4916129,0.00608344086 C0.490322581,0.00608344086 0.0333763441,0.826990108 0.268043011,2.05512946 L1.43174194,8.08596645 C1.43174194,8.08596645 2.08963441,8.89577978 3.36791398,8.65995699 C3.14666667,7.5205643 3.04584946,7.01456516 3.04584946,7.01456516 L4.03131183,7.01707011 L3.78494624,5.7255914 Z" id="path15179"></path>
                        </g>
                        <g id="g15181" transform="translate(30.279570, 4.473118) scale(-1, 1) rotate(-180.000000) translate(-30.279570, -4.473118) translate(28.215054, 0.000000)">
                            <path d="M3.78494624,5.7255914 L2.79673118,5.7255914 L2.10202151,2.09306151 C2.08,1.98749591 1.96851613,1.35624946 2.55380645,1.32368516 C2.7175914,1.31044473 2.96223656,1.35768086 3.0695914,1.40992688 C3.0695914,1.40992688 2.78468817,0.00608344086 1.49023656,0.00608344086 C0.490322581,0.00608344086 0.0333763441,0.826990108 0.270107527,2.05512946 L1.43002151,8.08596645 C1.43002151,8.08596645 2.09066667,8.89577978 3.36929032,8.65995699 C3.14632258,7.5205643 3.04447312,7.01456516 3.04447312,7.01456516 L4.0344086,7.01707011 L3.78494624,5.7255914 Z" id="path15183"></path>
                        </g>
                        <g id="g15185" transform="translate(25.118280, 5.849462) scale(-1, 1) rotate(-180.000000) translate(-25.118280, -5.849462) translate(22.021505, 2.064516)">
                            <path d="M5.82922201,3.24423963 L1.84239848,3.24423963 C1.80305123,2.33729442 2.15608349,1.68448131 3.15725237,1.68448131 C3.86951044,1.68448131 4.58395446,1.90545008 4.95811765,2.08820891 L5.14938899,0.828002048 C4.59743454,0.545032258 3.72013662,0.308923707 2.7156888,0.308923707 C1.01610626,0.308923707 0.0149373814,1.30778904 0.0149373814,2.99551459 C0.0149373814,4.02069432 0.348660342,5.18934153 0.926481973,6.0169831 C1.57899051,6.96574296 2.56886528,7.56160164 3.79518786,7.56160164 C5.28710436,7.56160164 6.12578368,6.65573784 6.12578368,5.10030517 C6.12578368,4.70919406 6.01940038,3.84550538 5.82922201,3.24423963 M3.55691841,6.38033794 C2.99439848,6.38033794 2.51640228,5.97805223 2.1921518,5.29423861 C2.05334345,4.99396621 2.03148387,4.91213927 1.94258824,4.54229595 L4.29067173,4.54229595 C4.34641366,4.74776446 4.39632638,5.08480492 4.39632638,5.30613415 C4.39632638,6.00688991 4.09575712,6.38033794 3.55691841,6.38033794" id="path15187"></path>
                        </g>
                        <g id="g15189" transform="translate(44.387097, 5.161290) scale(-1, 1) rotate(-180.000000) translate(-44.387097, -5.161290) translate(41.978495, 1.376344)">
                            <path d="M4.12903226,5.76753712 C3.6923871,5.95137737 3.21617204,5.9647148 2.91131183,5.82088684 L1.83466667,0.0994900154 L0.0213333333,0.0994900154 L1.27552688,6.69971531 C2.03802151,7.15751357 3.456,7.42570405 4.56636559,7.21122376 L4.12903226,5.76753712 Z" id="path15191"></path>
                        </g>
                        <path d="M36.605066,11.0107527 L36.6244211,9.01724325 L33.9561555,9.01724325 L32.8791279,11.0107527 L30.9677419,11.0107527 L36.2012117,2.06451613 L38.1962894,2.06451613 L38.5376344,11.0107527 L36.6050514,11.0107527 L36.605066,11.0107527 Z M36.6682916,4.05300684 L34.6582299,7.72635537 L36.6258976,7.72635537 L36.6682916,4.05300684 Z" id="path15195"></path>
                        <g id="g15205" transform="translate(18.924731, 7.225806) scale(-1, 1) rotate(-180.000000) translate(-18.924731, -7.225806) translate(15.139785, 2.064516)">
                            <path d="M2.52329749,0 C0.817908858,0 -0.115711214,1.19078341 0.0219887353,2.43465438 C0.866572453,1.3883871 2.43750538,1.38543779 3.37436969,2.26359447 C3.72006144,2.58211982 4.00303123,3.09640553 4.23589555,4.33105991 C4.63926267,6.43686636 5.38868203,10.2042396 5.38868203,10.2042396 L7.29881823,10.2042396 L5.97624987,3.46875576 C5.53971941,1.36774194 4.23012801,0 2.52329749,0" id="path15207"></path>
                        </g>
                        <polygon id="path15211" points="8.17641063 8.94623656 6.19354839 8.94623656 7.64817223 2.06451613 9.6344086 2.06451613 8.17641063 8.94623656"></polygon>
                        <polygon id="path15215" points="41.2083706 8.94623656 39.2258065 8.94623656 40.6822315 2.06451613 42.6666667 2.06451613"></polygon>
                        <g id="g15225" transform="translate(45.763441, 8.258065) scale(-1, 1) rotate(-180.000000) translate(-45.763441, -8.258065) translate(44.731183, 7.569892)">
                            <path d="M0.825806452,0 C0.463277419,0 0.210993548,0.226408602 0.210993548,0.515784946 C0.210993548,0.907010753 0.64,1.28344086 1.11483871,1.28344086 C1.47654194,1.28344086 1.73790968,1.06288172 1.73790968,0.766967742 C1.73790968,0.37711828 1.29651613,0 0.825806452,0" id="path15227"></path>
                        </g>
                        <g id="g15229" transform="translate(48.860215, 6.193548) scale(-1, 1) rotate(-180.000000) translate(-48.860215, -6.193548) translate(46.795699, 3.440860)">
                            <path d="M3.44086022,4.12903226 C3.35070968,4.20163441 3.16627957,4.29625806 2.94675269,4.29625806 C2.58511828,4.29625806 2.26064516,4.08326882 2.01634409,3.62907527 C1.78374194,3.21445161 1.63475269,2.57032258 1.63475269,2.09204301 C1.63475269,1.48266667 1.87389247,1.16060215 2.25273118,1.16060215 C2.49978495,1.16060215 2.76129032,1.25212903 2.89445161,1.35191398 L3.00834409,0.469677419 C2.78090323,0.267010753 2.37522581,0.100817204 1.82709677,0.100817204 C0.904602151,0.100817204 0.243612903,0.836473118 0.243612903,2.00774194 C0.243612903,2.73617204 0.509247312,3.61187097 0.904602151,4.20163441 C1.38012903,4.9008172 2.05006452,5.25212903 2.73548387,5.25212903 C3.27260215,5.25212903 3.7243871,5.04911828 3.87991398,4.88498925 L3.44086022,4.12903226 Z" id="path15231"></path>
                        </g>
                        <g id="g15233" transform="translate(52.645161, 6.193548) scale(-1, 1) rotate(-180.000000) translate(-52.645161, -6.193548) translate(50.236559, 3.440860)">
                            <path d="M4.07609595,1.37634409 C3.60326882,0.694709677 2.88031762,0.272516129 1.91465343,0.272516129 C0.703682382,0.272516129 0.0767047146,1.02606452 0.0767047146,2.10580645 C0.0767047146,2.83354839 0.351655914,3.73780645 0.767417701,4.32791398 C1.25024979,5.02021505 1.98024152,5.42382796 2.91737304,5.42382796 C4.13242018,5.42382796 4.76940281,4.67853763 4.76940281,3.59845161 C4.76940281,2.86933333 4.48259388,1.96782796 4.07609595,1.37634409 M2.79583127,4.53058065 C2.39859719,4.53058065 2.11327047,4.23432258 1.91465343,3.7932043 C1.69676758,3.32180645 1.50630273,2.4763871 1.50630273,1.96782796 C1.50630273,1.54391398 1.63710835,1.24868817 2.05583457,1.24868817 C2.46677916,1.24868817 2.72913151,1.5236129 2.927378,1.96782796 C3.13970554,2.43853763 3.344622,3.29496774 3.344622,3.80077419 C3.344622,4.22572043 3.20269975,4.53058065 2.79583127,4.53058065" id="path15235"></path>
                        </g>
                        <g id="g15237" transform="translate(58.494624, 6.193548) scale(-1, 1) rotate(-180.000000) translate(-58.494624, -6.193548) translate(54.365591, 3.440860)">
                            <path d="M7.89901823,3.78494624 L7.18379804,0.304516129 L5.73863675,0.304516129 L6.47145021,3.83139785 C6.47934923,3.89608602 6.49012062,3.95045161 6.49012062,4.0147957 C6.49012062,4.30417204 6.31203366,4.51027957 5.88584572,4.51027957 C5.62661431,4.51027957 5.36953717,4.3987957 5.19145021,4.24808602 L4.37641515,0.304516129 L2.93053576,0.304516129 L3.66370827,3.84206452 C3.67232539,3.90572043 3.68273773,3.95939785 3.68273773,4.0147957 C3.68273773,4.32344086 3.45941094,4.51027957 3.02460589,4.51027957 C2.78943058,4.51027957 2.59518654,4.47208602 2.41063675,4.40808602 L1.56723703,0.304516129 L0.124230014,0.304516129 L1.1062216,5.03913978 C1.69685273,5.28172043 2.37652735,5.41109677 3.20736045,5.41109677 C3.86728752,5.41109677 4.40226648,5.18812903 4.63636466,4.90907527 C4.96848247,5.16989247 5.59896774,5.41109677 6.42333801,5.41109677 C7.43548948,5.41109677 7.93528191,4.89152688 7.93528191,4.1476129 C7.93528191,4.02855914 7.92558766,3.90572043 7.89901823,3.78494624" id="path15239"></path>
                        </g>
                        <g id="g15241" transform="translate(63.311828, 8.258065) scale(-1, 1) rotate(-180.000000) translate(-63.311828, -8.258065) translate(62.623656, 7.569892)">
                            <path d="M0.917562724,0.344086022 C0.901964158,0.356473118 0.891412186,0.373333333 0.885448029,0.389505376 C0.877648746,0.405333333 0.872143369,0.426322581 0.867555556,0.444903226 C0.863426523,0.464172043 0.861132616,0.483784946 0.861132616,0.503741935 C0.859756272,0.525075269 0.859297491,0.541591398 0.857003584,0.563956989 C0.855168459,0.583913978 0.849663082,0.601462366 0.844157706,0.621419355 C0.839111111,0.637935484 0.829935484,0.655139785 0.820301075,0.670967742 C0.807913978,0.684731183 0.793232975,0.698150538 0.773964158,0.70916129 C0.756530466,0.718451613 0.732215054,0.726021505 0.704229391,0.728774194 L0.703311828,0.728774194 C0.764329749,0.741849462 0.810207885,0.76972043 0.839111111,0.80516129 C0.866179211,0.841290323 0.881318996,0.886365591 0.881318996,0.934537634 C0.881318996,1.00025806 0.852415771,1.05290323 0.79827957,1.09144086 C0.743225806,1.12963441 0.664315412,1.14855914 0.565218638,1.14855914 L0.0812043011,1.14855914 L0.0812043011,0.339956989 L0.224344086,0.339956989 L0.224344086,0.682666667 L0.554207885,0.682666667 C0.587240143,0.682666667 0.610637993,0.678193548 0.631741935,0.670967742 C0.651928315,0.661333333 0.6670681,0.653075269 0.678078853,0.640344086 C0.690924731,0.627612903 0.701935484,0.612473118 0.705146953,0.595268817 C0.712487455,0.576688172 0.71753405,0.559827957 0.72074552,0.539526882 C0.725333333,0.521290323 0.729921147,0.501333333 0.729921147,0.48 L0.732215054,0.423225806 C0.733591398,0.405333333 0.734050179,0.389505376 0.740473118,0.376430108 C0.742767025,0.359913978 0.749648746,0.349935484 0.763412186,0.339956989 L0.920315412,0.339956989 L0.917562724,0.344086022 Z M0.224344086,1.05290323 L0.560172043,1.05290323 C0.621189964,1.05290323 0.6670681,1.03913978 0.694136201,1.01608602 C0.722580645,0.989935484 0.738179211,0.957935484 0.738179211,0.917333333 C0.738179211,0.889806452 0.732215054,0.864688172 0.719369176,0.848516129 C0.705146953,0.830967742 0.688630824,0.815483871 0.669362007,0.80516129 C0.647799283,0.795526882 0.62302509,0.785892473 0.595039427,0.783827957 C0.565218638,0.779010753 0.536315412,0.777978495 0.506035842,0.777978495 L0.224344086,0.777978495 L0.224344086,1.05290323 Z" id="path15243"></path>
                        </g>
                        <g id="g15245" transform="translate(63.311828, 8.602151) scale(-1, 1) rotate(-180.000000) translate(-63.311828, -8.602151) translate(62.623656, 7.569892)">
                            <path d="M0.688172043,0 C0.324473118,0 0.0285591398,0.370787097 0.0285591398,0.828696774 C0.0285591398,1.28454194 0.324473118,1.65450323 0.688172043,1.65450323 C1.05152688,1.65450323 1.34675269,1.28454194 1.34675269,0.828696774 C1.34675269,0.370787097 1.05152688,0 0.688172043,0 M0.688172043,1.53310968 C0.377806452,1.53310968 0.127655914,1.216 0.127655914,0.828696774 C0.127655914,0.438090323 0.377806452,0.124283871 0.688172043,0.124283871 C0.997505376,0.124283871 1.248,0.438090323 1.248,0.828696774 C1.248,1.216 0.997505376,1.53310968 0.688172043,1.53310968" id="path15247"></path>
                        </g>
                    </g>
                </g>
            </g>
        </g>
    </g>
</svg>