<?xml version="1.0" encoding="UTF-8" standalone="no"?>
<svg width="64px" height="13px" viewBox="0 0 64 13" version="1.1" xmlns="http://www.w3.org/2000/svg" xmlns:xlink="http://www.w3.org/1999/xlink">
    <!-- Generator: Sketch 49 (51002) - http://www.bohemiancoding.com/sketch -->
    <title>Amazon.com-Logo</title>
    <desc>Created with Sketch.</desc>
    <defs></defs>
    <g id="Homepage" stroke="none" stroke-width="1" fill="none" fill-rule="evenodd">
        <g id="Visual---123Credit---BrandPopup" transform="translate(-718.000000, -417.000000)">
            <g id="Popup" transform="translate(458.000000, 195.000000)">
                <g id="Group-22-Copy-3" transform="translate(250.000000, 187.000000)">
                    <g id="Amazon.com-Logo" transform="translate(10.000000, 35.000000)">
                        <path d="M25.6236314,9.90082913 C23.1447289,11.5220936 19.5517111,12.3870968 16.4581897,12.3870968 C12.1205737,12.3870968 8.21560613,10.9635486 5.26134724,8.5959104 C5.02924061,8.40972767 5.23720733,8.15599423 5.51573669,8.3009845 C8.70395788,9.94696317 12.6460649,10.9371865 16.7181504,10.9371865 C19.464439,10.9371865 22.4855443,10.4330121 25.2634011,9.38677031 C25.6830508,9.22859745 26.0339964,9.6306187 25.6236314,9.90082913" id="path8" fill="#FF9900"></path>
                        <path d="M26.7572232,9.36268374 C26.4500796,8.96278331 24.7192422,9.17374024 23.9423527,9.26729503 C23.7056715,9.29664556 23.6695382,9.08752326 23.88273,8.93710063 C25.261258,7.9520248 27.5232724,8.23635772 27.7870536,8.56655072 C28.0508334,8.89857905 27.7183982,11.2007597 26.422979,12.2995677 C26.22424,12.4683332 26.0345343,12.3784483 26.1230646,12.1546497 C26.4139457,11.4172184 27.0661723,9.76441881 26.7572232,9.36268374" id="path10" fill="#FF9900"></path>
                        <path d="M23.9864854,1.23813188 L23.9864854,0.249898018 C23.9864854,0.100337742 24.0968086,0 24.2291963,0 L28.5262868,0 C28.664192,0 28.7745153,0.102231139 28.7745153,0.249898018 L28.7745153,1.09614446 C28.7726777,1.23813188 28.656837,1.42366235 28.4508992,1.71710344 L26.2242084,4.99039254 C27.0516337,4.96956879 27.9250262,5.09640975 28.6752243,5.53183897 C28.8443867,5.63028332 28.8903546,5.77416413 28.9032258,5.91615298 L28.9032258,6.97064778 C28.9032258,7.11452858 28.7487729,7.28301921 28.5869656,7.19593453 C27.2649244,6.48220923 25.5089461,6.40458936 24.0471628,7.20350739 C23.8982267,7.28680673 23.7419355,7.12020805 23.7419355,6.97632724 L23.7419355,5.97484105 C23.7419355,5.81392184 23.743773,5.53941111 23.9000642,5.29519256 L26.4797906,1.48613722 L24.2347125,1.48613722 C24.0968086,1.48613722 23.9864854,1.3858002 23.9864854,1.23813188" id="path12" fill="#221F1F"></path>
                        <path d="M8.67087591,7.22580645 L7.44480873,7.22580645 C7.32754871,7.21672523 7.23442897,7.12408661 7.22580645,7.00601682 L7.22580645,0.377821104 C7.22580645,0.245220801 7.33099666,0.139866253 7.4620531,0.139866253 L8.60534769,0.139866253 C8.72433432,0.145312079 8.81917672,0.241586787 8.82779989,0.36147185 L8.82779989,1.22791582 L8.85021751,1.22791582 C9.14854312,0.390534959 9.70898094,0 10.4642808,0 C11.2316504,0 11.7110409,0.390534959 12.0559264,1.22791582 C12.352528,0.390534959 13.0267786,0 13.7493143,0 C14.2631936,0 14.8253567,0.223422258 15.1685175,0.724760361 C15.5565136,1.28240802 15.4771896,2.09254105 15.4771896,2.80277089 L15.4754656,6.98603702 C15.4754656,7.11863732 15.3702754,7.22580645 15.239219,7.22580645 L14.0148751,7.22580645 C13.8924419,7.21672523 13.7941495,7.11318803 13.7941495,6.98603702 L13.7941495,3.47303767 C13.7941495,3.19330585 13.8182905,2.49579194 13.7596608,2.23059064 C13.6682663,1.78556348 13.3940823,1.66022774 13.0388497,1.66022774 C12.7422481,1.66022774 12.4318514,1.86911879 12.3059682,2.20334488 C12.180085,2.53757029 12.1921561,3.09703322 12.1921561,3.47303767 L12.1921561,6.98603702 C12.1921561,7.11863732 12.0869659,7.22580645 11.9559094,7.22580645 L10.7315669,7.22580645 C10.6074084,7.21672523 10.51084,7.11318803 10.51084,6.98603702 L10.509116,3.47303767 C10.509116,2.7337461 10.6246514,1.64569653 9.75381684,1.64569653 C8.87263382,1.64569653 8.90712256,2.70649826 8.90712256,3.47303767 L8.90712256,6.98603702 C8.90712256,7.11863732 8.80193235,7.22580645 8.67087591,7.22580645" id="path14" fill="#221F1F"></path>
                        <path d="M32.4953311,8.83332738e-15 C34.1832296,8.83332738e-15 35.0967742,1.84553691 35.0967742,4.19218038 C35.0967742,6.45937919 34.0872342,8.25806452 32.4953311,8.25806452 C30.8378302,8.25806452 29.9354839,6.41252761 29.9354839,4.1127365 C29.9354839,1.79868533 30.8490297,0 32.4953311,0 M32.5049299,1.51757818 C31.6665813,1.51757818 31.6137836,2.97200668 31.6137836,3.87848014 C31.6137836,4.78698932 31.6025841,6.72622862 32.4953311,6.72622862 C33.3768781,6.72622862 33.4184757,5.16180119 33.4184757,4.20847536 C33.4184757,3.58107567 33.3976769,2.83145349 33.248885,2.23664377 C33.1208925,1.719243 32.8665089,1.51757818 32.5049299,1.51757818" id="path16" fill="#221F1F"></path>
                        <path d="M37.6079773,7.22580645 L36.3569699,7.22580645 C36.2315148,7.21672523 36.1307981,7.11318803 36.1307981,6.98603702 L36.1290323,0.356022561 C36.1396339,0.234320837 36.243885,0.139866253 36.3711059,0.139866253 L37.5355333,0.139866253 C37.6450839,0.145312079 37.7351989,0.22160629 37.7599373,0.325143484 L37.7599373,1.33871758 L37.7829065,1.33871758 C38.1345328,0.432313307 38.6275133,0 39.4950907,0 C40.0587507,0 40.6082761,0.20889105 40.9616682,0.781069917 C41.2903226,1.31147113 41.2903226,2.20334488 41.2903226,2.84454786 L41.2903226,7.01691679 C41.2761872,7.13316784 41.1719362,7.22580645 41.0482502,7.22580645 L39.788407,7.22580645 C39.6735536,7.21672523 39.5781377,7.1295359 39.5657702,7.01691679 L39.5657702,3.41672811 C39.5657702,2.69196775 39.64705,1.63116463 38.779472,1.63116463 C38.4737888,1.63116463 38.1928414,1.84187303 38.0532516,2.16156584 C37.8765565,2.5666334 37.853586,2.96988359 37.853586,3.41672811 L37.853586,6.98603702 C37.8518202,7.11863732 37.7422676,7.22580645 37.6079786,7.22580645" id="path18" fill="#221F1F"></path>
                        <path d="M42.3225806,7.224254 C42.3225806,6.65301815 42.785621,6.19354839 43.3548381,6.19354839 C43.9240553,6.19354839 44.3870968,6.65301815 44.3870968,7.224254 C44.3870968,7.79238257 43.9240553,8.25806452 43.3548381,8.25806452 C42.785621,8.25806452 42.3225806,7.79238257 42.3225806,7.224254" id="path20" fill="#221F1F"></path>
                        <path d="M55.9792656,7.22580645 C55.8462172,7.22038504 55.7419355,7.1174465 55.7419355,6.98741469 L55.7419355,0.397320984 C55.7491275,0.279929942 55.8480147,0.187823877 55.9702761,0.180601074 L56.4395424,0.180601074 C56.5689958,0.180601074 56.6732768,0.274511979 56.6840644,0.397320984 L56.6840644,1.35811291 C57.0184849,0.595980099 57.6405781,0 58.4262852,0 L58.4748297,0 L58.5215767,0 C59.3558283,0 59.9653357,0.617651952 60.1918788,1.51523385 C60.5460757,0.628487878 61.2113202,0 62.0887232,0 L62.133672,0 L62.1858129,0 C62.8061079,0 63.4030295,0.400932041 63.7122782,1.01135981 C64.0107386,1.59469777 63.999951,2.37127756 63.999951,3.02324351 L63.9981542,6.98741469 C63.999951,7.11383337 63.8974688,7.21677536 63.7698143,7.22580645 L63.2088514,7.22580645 C63.08659,7.22038504 62.9877029,7.13370039 62.9715214,7.01992247 L62.9715214,3.02324351 C62.9715214,2.55187863 62.9948949,2.05161566 62.8043111,1.62178758 C62.6101317,1.1829298 62.2379544,0.90841782 61.8388087,0.888552873 C61.3929152,0.910224038 60.982981,1.23711081 60.7168829,1.67777481 C60.3716755,2.24666372 60.3842614,2.75956746 60.3842614,3.42417624 L60.3842614,7.02353352 C60.3680798,7.13189348 60.2727876,7.21677536 60.1559208,7.22580645 L59.5985543,7.22580645 C59.4655052,7.22038504 59.359426,7.1174465 59.359426,6.98741469 L59.3558324,2.75956746 C59.3558324,2.37127756 59.3324589,1.91435967 59.1544617,1.56580173 C58.9476965,1.16848282 58.5773173,0.90841782 58.1889585,0.888552873 C57.7862164,0.912030944 57.379878,1.22085692 57.1389522,1.58025078 C56.8279053,2.03897351 56.7685731,2.60605758 56.7685731,3.18939622 L56.7685731,6.98741469 C56.7685731,7.11383337 56.6660896,7.21677536 56.5384344,7.22580645 L55.9792697,7.22580645" id="path22" fill="#221F1F"></path>
                        <path d="M51.9958538,8.25806452 C50.3055778,8.25806452 49.5483871,6.17379908 49.5483871,4.08953441 C49.5483871,1.89791637 50.4379185,0 52.1399211,0 L52.1834764,0 L52.2303819,0 C53.885479,0 54.7096774,2.02147434 54.7096774,4.10573901 C54.7096774,6.3135601 53.7966936,8.25806452 52.0846399,8.25806452 L52.0410846,8.25806452 L51.9958538,8.25806452 M52.1198188,7.24732812 C52.675985,7.22504621 53.1148871,6.80778812 53.3745436,6.11303452 C53.6073963,5.489172 53.6526264,4.77416149 53.6526264,4.08953441 C53.6526264,3.34414046 53.5856186,2.56634039 53.2958087,1.92829904 C53.0361528,1.37127992 52.5905497,1.01681448 52.1181434,0.99655911 C51.5921307,1.0188387 51.1213998,1.45027562 50.885197,2.11464733 C50.6724465,2.68989759 50.6071136,3.45351882 50.6071136,4.08953441 C50.6071136,4.80454492 50.6841724,5.6309588 50.9287516,6.25279555 C51.1666305,6.8422231 51.6239595,7.22504621 52.1198188,7.24732812" id="path24" fill="#221F1F"></path>
                        <path d="M46.0264573,7.21491814 C46.8622615,7.1865597 47.3013807,6.45129536 47.4821946,5.49929775 C47.5190957,5.37979209 47.6021227,5.28864333 47.7238952,5.28864333 L48.2755627,5.2866191 C48.4065602,5.29269177 48.5264883,5.402074 48.5154181,5.53576004 C48.260802,7.15820358 47.3696477,8.25806452 46.1002594,8.25806452 L46.0485984,8.25806452 L46.0006271,8.25806452 C44.1518952,8.25806452 43.3548387,6.22038634 43.3548387,4.15232473 C43.3548387,2.10047004 44.1629668,0 46.0116973,0 L46.0615131,0 L46.1113296,0 C47.3954778,0 48.3106185,1.08568133 48.509883,2.70812719 C48.509883,2.82965862 48.4065602,2.93498467 48.2847877,2.94916351 L47.70729,2.9410612 C47.5855174,2.92283161 47.5061802,2.80940325 47.4877297,2.68179529 C47.3493519,1.77638494 46.8751763,1.05529944 46.0854987,1.026941 C44.8290251,1.0715025 44.4710884,2.76889174 44.4710884,4.0753548 C44.4710884,5.33320637 44.7699852,7.17035819 46.0264573,7.21491968" id="path26" fill="#221F1F"></path>
                        <path d="M20.3345037,4.61378514 C20.3345037,5.17678839 20.3472622,5.64629681 20.0920962,6.14629337 C19.8861411,6.5527951 19.5580709,6.80279299 19.195371,6.80279299 C18.6977975,6.80279299 18.4061797,6.38003082 18.4061797,5.75605208 C18.4061797,4.52435503 19.3958583,4.30077978 20.3345037,4.30077978 L20.3345037,4.61378514 M21.6413176,8.13611431 C21.5556556,8.22147969 21.4317169,8.22757716 21.3351186,8.17066794 C20.9049815,7.7722972 20.8266094,7.58733952 20.5914925,7.2072612 C19.8806733,8.01619762 19.3758085,8.25806452 18.4553893,8.25806452 C17.3636439,8.25806452 16.516129,7.50807084 16.516129,6.00605152 C16.516129,4.83329567 17.0847853,4.03452145 17.8976706,3.64428093 C18.6011992,3.29875391 19.5835864,3.23777997 20.3345037,3.1422524 L20.3345037,2.95526197 C20.3345037,2.61176771 20.3581978,2.20526675 20.1759368,1.90852261 C20.0191919,1.6422635 19.7166372,1.53250823 19.4487141,1.53250823 C18.9547849,1.53250823 18.5155365,1.81502623 18.4080012,2.40038739 C18.38613,2.5304686 18.300468,2.65851628 18.181997,2.66461375 L16.926217,2.51420738 C16.8205052,2.4877863 16.7020357,2.39225717 16.7330204,2.21136577 C17.0209931,0.512192277 18.3988891,0 19.6309745,0 C20.2615995,0 21.0854204,0.186990425 21.5829939,0.719506316 C22.2136175,1.37600517 22.1534717,2.25201455 22.1534717,3.20525986 L22.1534717,5.45727441 C22.1534717,6.1340992 22.404992,6.43084334 22.6419317,6.79669552 C22.7239501,6.9267744 22.7421764,7.08327747 22.6364604,7.18083779 C22.3721817,7.42677174 21.9019472,7.88408522 21.6431362,8.14018058 L21.6413148,8.13611043" id="path28" fill="#221F1F"></path>
                        <path d="M3.81737746,4.61378514 C3.81737746,5.17678839 3.83013117,5.64629681 3.57503317,6.14629337 C3.36913052,6.5527951 3.04296833,6.80279299 2.67854082,6.80279299 C2.18109728,6.80279299 1.89137804,6.38003082 1.89137804,5.75605208 C1.89137804,4.52435503 2.88079806,4.30077978 3.81737746,4.30077978 L3.81737746,4.61378514 M5.12384927,8.13611431 C5.03820894,8.22147969 4.91430261,8.22757716 4.81772953,8.17066794 C4.38770622,7.7722972 4.31117559,7.58733952 4.07429775,7.2072612 C3.36366414,8.01619762 2.86075562,8.25806452 1.93875306,8.25806452 C0.849114555,8.25806452 0,7.50807084 0,6.00605152 C0,4.83329567 0.570328767,4.03452145 1.3811794,3.64428093 C2.0845242,3.29875391 3.06665618,3.23777997 3.81737746,3.1422524 L3.81737746,2.95526197 C3.81737746,2.61176771 3.84106531,2.20526675 3.66067357,1.90852261 C3.50214656,1.6422635 3.19967291,1.53250823 2.93364014,1.53250823 C2.43984201,1.53250823 1.99888387,1.81502623 1.89137804,2.40038739 C1.86951185,2.5304686 1.78387152,2.65851628 1.66725531,2.66461375 L0.409980858,2.51420738 C0.304296694,2.4877863 0.18767978,2.39225717 0.216834009,2.21136577 C0.506553936,0.512192277 1.88226696,0 3.11403258,0 C3.74449084,0 4.56809658,0.186990425 5.06554012,0.719506316 C5.6960004,1.37600517 5.63586889,2.25201455 5.63586889,3.20525986 L5.63586889,5.45727441 C5.63586889,6.1340992 5.88732489,6.43084334 6.12420273,6.79669552 C6.20802071,6.9267744 6.22624219,7.08327747 6.12055802,7.18083779 C5.85634831,7.42677174 5.38623733,7.88408522 5.1274926,8.14018058 L5.12384927,8.13611043" id="path30" fill="#221F1F"></path>
                    </g>
                </g>
            </g>
        </g>
    </g>
</svg>