<?xml version="1.0" encoding="UTF-8" standalone="no"?>
<svg width="64px" height="11px" viewBox="0 0 64 11" version="1.1" xmlns="http://www.w3.org/2000/svg" xmlns:xlink="http://www.w3.org/1999/xlink">
    <!-- Generator: Sketch 49 (51002) - http://www.bohemiancoding.com/sketch -->
    <title>Samsung_Logo</title>
    <desc>Created with Sketch.</desc>
    <defs></defs>
    <g id="Homepage" stroke="none" stroke-width="1" fill="none" fill-rule="evenodd">
        <g id="Visual---123Credit---BrandPopup" transform="translate(-1019.000000, -320.000000)" fill="#163DAD" fill-rule="nonzero">
            <g id="Popup" transform="translate(458.000000, 195.000000)">
                <g id="Group-21-Copy-2" transform="translate(551.000000, 89.000000)">
                    <g id="Samsung_Logo" transform="translate(10.000000, 36.000000)">
                        <g id="Group">
                            <polygon id="Shape" points="52.9635637 7.73917413 52.8392918 0.310247997 55.1017704 0.310247997 55.1017704 9.6744406 51.8487721 9.6744406 49.5899486 1.9901274 49.5406054 1.9901274 49.6667047 9.6744406 47.4170188 9.6744406 47.4170188 0.310247997 50.8125642 0.310247997 52.9142204 7.73917413"></polygon>
                            <polygon id="Shape" points="11.825928 1.18802282 10.574072 9.77281192 8.10508281 9.77281192 9.79920046 0.310247997 13.8654483 0.310247997 15.5540834 9.77281192 13.0942319 9.77281192 11.8770988 1.18802282"></polygon>
                            <polygon id="Shape" points="22.4858938 7.54432325 23.6153055 0.310247997 27.3434609 0.310247997 27.5408338 9.77281192 25.2564249 9.77281192 25.1961165 1.26558482 25.1486008 1.26558482 23.6207881 9.77281192 21.3016562 9.77281192 19.772016 1.26558482 19.7226728 1.26558482 19.6660194 9.77281192 17.3761279 9.77281192 17.5789834 0.310247997 21.3089663 0.310247997 22.4365505 7.54432325"></polygon>
                            <path d="M4.25631068,7.10354409 C4.34585951,7.33244657 4.3184466,7.62756052 4.27641348,7.80538559 C4.19965734,8.1194171 3.99314677,8.44101564 3.38640777,8.44101564 C2.81256425,8.44101564 2.46533409,8.10049954 2.46533409,7.58215838 L2.46533409,6.66654843 L0.0127926899,6.66654843 L0.0109651628,7.39865804 C0.0109651628,9.50796607 1.61553398,10.1454879 3.33523701,10.1454879 C4.98914906,10.1454879 6.35065677,9.56093524 6.56630497,7.98321066 C6.67778412,7.16597204 6.59371788,6.63060507 6.55716733,6.42818717 C6.17155911,4.44751855 2.70108509,3.85539889 2.44340377,2.74872159 C2.39954312,2.55954598 2.41233581,2.35712808 2.43426613,2.24929798 C2.49822958,1.94850876 2.69743004,1.61555969 3.26944603,1.61555969 C3.80308395,1.61555969 4.11924615,1.95796754 4.11924615,2.47441695 C4.11924615,2.64845851 4.11924615,3.05896958 4.11924615,3.05896958 L6.39817247,3.05896958 L6.39817247,2.3949632 C6.39817247,0.33294907 4.61085094,0.0113505365 3.31696174,0.0113505365 C1.69046259,0.0113505365 0.361850371,0.567526825 0.118789263,2.10741628 C0.0529982867,2.53306139 0.0438606511,2.91141261 0.138892062,3.38624339 C0.539120503,5.31772635 3.78480868,5.87768615 4.25631068,7.10354409 Z" id="Shape"></path>
                            <path d="M33.9810394,7.08651828 C34.0705882,7.31352901 34.0413478,7.60107594 34.0011422,7.77890101 C33.9262136,8.09293252 33.7215306,8.40885578 33.1184466,8.40885578 C32.5537407,8.40885578 32.2083381,8.06833969 32.2083381,7.56134906 L32.2065106,6.65330614 L29.7795545,6.65330614 L29.7758995,7.37595696 C29.7758995,9.46445568 31.3658481,10.0944105 33.0672758,10.0944105 C34.7029126,10.0944105 36.0516276,9.51742485 36.2654483,7.95483432 C36.3769275,7.14327096 36.2983438,6.61547102 36.2581382,6.41683663 C35.8743575,4.45508557 32.440434,3.86864119 32.1845802,2.77142266 C32.1407196,2.58224705 32.1535123,2.38361266 32.1754426,2.28145783 C32.2412336,1.97688511 32.436779,1.65339482 33.0033124,1.65339482 C33.5332953,1.65339482 33.8421473,1.98634389 33.8421473,2.50090154 C33.8421473,2.67305134 33.8421473,3.0797789 33.8421473,3.0797789 L36.1046259,3.0797789 L36.1046259,2.42144778 C36.1046259,0.382134729 34.3319246,0.0624279507 33.0490006,0.0624279507 C31.4407767,0.0624279507 30.1231296,0.611037214 29.8855511,2.14146788 C29.8197601,2.56143773 29.81245,2.93222193 29.9074814,3.40516095 C30.3003998,5.31772635 33.51502,5.87390263 33.9810394,7.08651828 Z" id="Shape"></path>
                            <path d="M41.6584809,8.35777837 C42.2926328,8.35777837 42.4900057,7.90375691 42.5338664,7.67107091 C42.5521416,7.56891608 42.5576242,7.43270965 42.5557967,7.3097455 L42.5557967,0.306464485 L44.8676185,0.306464485 L44.8676185,7.09408531 C44.8731011,7.26812687 44.8566533,7.62566877 44.8475157,7.7145813 C44.6848658,9.48148148 43.3361508,10.0546836 41.6566533,10.0546836 C39.9753284,10.0546836 38.6247858,9.48148148 38.4639634,7.7145813 C38.4566533,7.62566877 38.4402056,7.26623511 38.4438607,7.09408531 L38.4438607,0.306464485 L40.7538549,0.306464485 L40.7538549,7.30785374 C40.7538549,7.43081789 40.75751,7.56891608 40.7757853,7.66917916 C40.826956,7.90186515 41.0188464,8.35777837 41.6584809,8.35777837 Z" id="Shape"></path>
                            <path d="M60.7287264,8.2575153 C61.3902913,8.2575153 61.6223872,7.82430315 61.6644203,7.5726996 C61.6808681,7.4648695 61.6863507,7.33244657 61.6845231,7.21326594 L61.6845231,5.83985102 L60.7470017,5.83985102 L60.7470017,4.45886908 L63.9890348,4.45886908 L63.9890348,6.9994975 C63.9872073,7.17732257 63.9835523,7.30785374 63.9561393,7.62377701 C63.8044546,9.34527504 62.3607082,9.96009577 60.7415191,9.96009577 C59.118675,9.96009577 57.6785837,9.34527504 57.5232439,7.62377701 C57.4976585,7.30785374 57.4940034,7.17732257 57.4903484,6.9994975 L57.4921759,3.01545919 C57.4921759,2.8470929 57.5122787,2.5500872 57.530554,2.39117969 C57.7334095,0.622387751 59.118675,0.0529691703 60.7415191,0.0529691703 C62.3625357,0.0529691703 63.7825243,0.618604239 63.9506568,2.39117969 C63.9798972,2.6919689 63.9707596,3.01545919 63.9707596,3.01545919 L63.9707596,3.33138246 L61.6662479,3.33138246 L61.6662479,2.80169076 C61.6680754,2.80358251 61.6625928,2.57657178 61.6370074,2.4422571 C61.5986294,2.23227218 61.4231868,1.75176613 60.7250714,1.75176613 C60.058024,1.75176613 59.8643061,2.20578759 59.8149629,2.4422571 C59.78755,2.567113 59.7765848,2.73547929 59.7765848,2.88871154 L59.7765848,7.21704945 C59.7747573,7.33623008 59.7820674,7.46865301 59.8003427,7.57648311 C59.8368932,7.82430315 60.0671616,8.2575153 60.7287264,8.2575153 Z" id="Shape"></path>
                        </g>
                    </g>
                </g>
            </g>
        </g>
    </g>
</svg>